<?xml version="1.0" encoding="utf-8" ?><svg xmlns="http://www.w3.org/2000/svg" xmlns:xlink="http://www.w3.org/1999/xlink" width="1024" height="1024" viewBox="0 0 1024 1024"><path fill="white" d="M0 0L1024 0L1024 1024L0 1024L0 0Z"/><path fill="#000101" d="M736.953 265.424C751.578 268.747 766.395 271.257 781.146 274.036C786.999 275.139 797.351 277.846 802.619 277.989C805.325 278.063 816.405 276.159 819.788 275.695L857.231 270.758C864.968 275.18 872.688 280.904 880.807 285.571C881.402 314.821 880.978 346.413 880.872 375.756L880.786 456.933C861.259 459.955 838.384 462.047 818.502 464.426L818.353 524.378C797.308 526.644 774.865 528.302 753.696 530.105C753.431 552.618 753.362 575.134 753.49 597.648C732.584 599.4 711.503 602.368 690.499 604.118C690.557 625.372 689.762 647.848 690.292 668.892C683.939 669.938 675.258 670.649 668.635 671.436L624.183 676.632C624.222 701.713 622.29 726.688 622.165 751.53C612.084 754.339 591.402 757.514 580.257 759.739C591.526 751.783 603.034 739.957 614.991 731.746C617.134 736.514 618.589 741.669 620.466 746.602C621.823 722.794 622.56 698.954 622.677 675.107C630.332 674.792 641.831 673.195 649.579 672.248C662.549 670.641 675.528 669.104 688.515 667.638C688.897 645.972 689.12 624.303 689.184 602.634C709.68 601.372 731.451 597.614 751.999 596.351L752.145 528.558C759.944 528.361 769.88 527.237 777.713 526.535L816.928 523.118C817.012 503.129 816.986 483.14 816.849 463.152C837.686 460.49 858.546 458.019 879.429 455.74L879.384 377.128C874.468 377.538 869.43 378.132 864.513 378.652C864.056 400.347 864.456 422.108 864.178 443.86L802.538 450.648L802.486 511.991C800.058 512.371 797.308 512.582 794.834 512.786C777.142 514.246 759.496 516.697 741.813 518.14L741.423 524.95C741.134 524.692 740.593 523.997 740.321 523.67C739.63 526.347 738.989 547.544 738.935 551.273C736.723 550.191 735.702 549.596 733.357 548.749L732.95 549.944C732.807 563.631 730.982 565.019 737.46 578.922L736.626 581.169C735.194 576.868 732.514 570.463 730.703 566.12C727.828 566.287 724.878 566.592 722.016 566.478C720.472 566.365 719.534 566.281 717.977 566.002C716.819 564.621 717.123 562.171 716.944 559.884C716.827 557.258 717.118 554.143 717.218 551.472C717.847 534.711 719.212 517.952 719.501 501.182C740.649 499.669 762.404 496.515 783.774 494.792C784.197 474.267 783.865 451.158 783.641 430.577C790.435 430.428 800.877 429.046 807.905 428.309C821.271 426.941 834.63 425.503 847.981 423.994C847.854 401.709 848.996 378.873 849.461 356.549C859.003 356.069 869.804 354.817 879.392 353.907C879.415 332.06 879.83 308.349 879.215 286.631C853.274 288.589 826.634 290.262 800.807 292.587C799.919 314.768 800.493 340.44 800.507 362.887C778.993 363.504 754.925 364.833 733.357 366.058C733.072 388.607 733.421 411.907 733.569 434.491C725.243 434.415 715.718 435.262 707.303 435.831L667.502 438.555L667.571 481.808C667.583 488.417 667.309 499.938 667.971 506.213C646.484 506.919 624.078 508.473 602.528 509.713L602.499 580.378C582.928 582.998 562.755 584.272 542.837 587.083L542.6 667.784C538.158 663.124 530.84 657.432 525.772 653.218C512.388 642.09 498.698 631.761 485.48 620.377L485.441 574.384C485.425 564.588 485.612 553.816 485.052 544.115C504.344 542.961 526.252 541.202 545.485 539.491L545.441 476.623L609.519 471.478C609.374 458.888 609.145 446.3 608.833 433.713C608.673 425.366 608.779 414.32 607.949 406.174C615.685 406.174 626.976 405.06 634.987 404.473C647.164 403.58 660.553 402.83 672.601 401.405C672.624 380.426 672.75 355.929 671.72 335.08C693.022 334.554 715.735 332.547 737.256 331.536C736.984 309.5 736.883 287.462 736.953 265.424Z"/><path fill="#149473" d="M734.06 519.239L734.741 519.134C741.086 518.221 740.536 517.269 740.321 523.67C739.63 526.347 738.989 547.544 738.935 551.273C736.723 550.191 735.702 549.596 733.357 548.749C732.749 546.84 733.982 523.214 734.06 519.239Z"/><path fill="white" d="M750.452 269.902L782.407 276.029C787.266 276.965 798.296 279.662 802.837 279.333C820.397 278.062 839.541 273.749 857.003 272.241C863.54 276.452 870.681 281.26 877.314 285.196L827.666 288.997C819.371 289.606 807.604 290.74 799.439 290.748C799.042 314.238 798.878 337.732 798.95 361.225C777.847 362.369 752.763 364.268 731.884 364.562L732.04 432.939C723.262 433.022 713.765 433.84 704.925 434.427C691.932 435.251 678.949 436.214 665.977 437.317L666.182 504.489L623.636 507.027C617.46 507.383 607.029 507.673 601.161 508.495L600.945 579.048C588.549 580.269 576.163 581.587 563.788 583.002C557.57 583.734 547.395 585.307 541.429 585.608L541.013 664.048C538.889 662.185 536.844 660.382 534.639 658.612C534.39 631.971 534.85 605.209 534.509 578.624C546.691 577.343 558.865 575.981 571.03 574.54C579.125 573.661 588.295 572.975 596.259 571.878C595.652 565.764 596.022 557.654 595.9 551.385C595.614 536.624 596.141 521.355 595.563 506.627C607.199 506.227 619.881 505.03 631.57 504.159C639.437 503.573 650.906 502.975 658.383 501.773C658.148 481.712 658.027 461.651 658.021 441.589C655.683 440.169 656.152 440.482 655.915 437.249C655.801 435.703 654.825 435.219 654.642 434.733C654.879 433.946 657.508 435.222 658.11 435.748C662.075 436.059 674.227 434.78 678.678 434.478C693.97 433.44 709.347 431.916 724.675 431.346C724.306 408.441 724.49 384.972 724.453 362.022C746.49 360.809 768.58 358.005 790.514 356.464C791.12 335.405 790.893 312.242 790.783 291.148C776.982 284.52 763.244 277.76 749.572 270.871L750.452 269.902Z"/><path fill="#1D1B1C" d="M658.021 441.589C655.683 440.169 656.152 440.482 655.915 437.249C655.801 435.703 654.825 435.219 654.642 434.733C654.879 433.946 657.508 435.222 658.11 435.748C658.011 437.783 658.025 439.564 658.021 441.589Z"/><path fill="white" d="M537.01 541.791C539.703 541.484 543.026 541.479 545.779 541.394C554.257 546.176 562.96 552.301 571.278 557.442C578.576 561.953 585.929 566.268 593.272 570.701C577.841 571.586 558.116 574.361 542.451 576.153L533.982 577.035C527.35 573.159 517.59 565.896 510.846 561.356C505.399 557.688 492.923 549.453 488.637 545.446C504.036 543.722 521.414 542.945 537.01 541.791Z"/><path fill="white" d="M608.585 473.237C610.75 473.299 650.93 497.971 654.983 500.491C636.639 502.753 614.589 503.694 595.884 505.094C591.52 504.206 555.555 481.915 549.69 477.948C566.128 475.761 591.488 474.557 608.585 473.237Z"/><path fill="white" d="M665.415 403.795C666.814 403.658 671.049 403.157 672.155 403.58C678.44 405.984 685.32 409.98 691.233 413.186L721.725 429.644C703.627 430.867 685.329 432.532 667.3 433.606C664.204 434 660.081 434.067 656.888 434.203C654.839 432.701 652.572 431.5 650.404 430.18C637.757 422.484 624.705 415.442 612.192 407.528C628.408 406.992 649.173 405.397 665.415 403.795Z"/><path fill="white" d="M679.281 336.404C694.676 336.096 720.961 332.879 735.203 333.539C738.805 333.706 782.09 352.819 786.466 355.155C766.669 356.976 743.343 359.71 723.778 360.603C709.337 353.338 693.328 345.653 679.241 337.989L679.281 336.404Z"/><path fill="#149473" d="M785.489 434.813C790.77 440.14 795.826 445.498 801.197 450.852C801.484 470.599 801.188 490.935 801.204 510.734L796.379 511.202C791.415 511.6 786.86 511.986 781.906 512.637C781.945 509.084 781.089 498.774 782.555 496.423L784.719 496.135C784.93 495.927 785.14 495.718 785.35 495.51C785.469 487.2 785.253 478.89 785.257 470.58C785.264 458.657 785.38 446.735 785.489 434.813Z"/><path fill="#149473" d="M849.495 412.499C854.199 413.072 858.278 412.979 862.992 412.967L863.021 442.389C849.734 444.024 836.433 445.542 823.12 446.94C819.348 447.229 815.751 447.68 811.996 448.143C812.002 441.932 811.825 435.722 811.463 429.521C823.886 427.958 836.893 426.831 849.44 425.386C849.358 421.192 849.468 416.716 849.495 412.499Z"/><path fill="#149473" d="M877.388 355.713C877.632 355.672 879.177 355.371 879.215 355.843C879.683 361.627 879.524 370.22 879.337 375.859C870.397 376.401 861.39 377.569 852.379 378.156C852.415 378.155 850.645 378.291 850.63 377.854C850.409 371.282 850.877 364.57 850.904 357.937C853.052 357.808 855.115 357.663 857.25 357.51C863.973 357.033 870.687 356.434 877.388 355.713Z"/><path fill="#149473" d="M778.384 496.691C778.538 496.668 780.269 496.358 780.307 496.787C780.732 501.571 780.535 507.944 780.545 512.699C770.36 513.489 760.512 514.871 750.58 515.683C750.303 515.734 749.377 515.924 749.311 515.682C748.634 513.173 748.78 501.866 748.759 499.769C758.443 498.95 768.652 497.732 778.384 496.691Z"/><path fill="#149473" d="M860.886 378.706C861.317 378.656 862.747 378.464 862.778 378.831C863.312 385.135 862.999 406.229 863.005 411.568C859.319 411.563 855.633 411.533 851.947 411.477C851.651 411.403 850.216 411.078 850.181 410.8C849.384 404.514 850.062 384.578 850.202 379.569C853.769 379.362 857.332 379.074 860.886 378.706Z"/><path fill="#149473" d="M745.081 500.228C745.335 500.178 746.763 499.876 746.837 500.257C747.673 504.514 747.447 512.012 747.435 516.229L722.931 518.153C722.677 518.146 720.816 518.249 720.783 517.957C720.324 513.977 720.858 506.41 720.902 502.591C728.786 502.115 737.167 501.035 745.081 500.228Z"/><path fill="#149473" d="M804.887 430.204C806.514 429.946 808.364 429.874 810.027 429.772C810.407 435.926 810.414 442.204 810.513 448.386C807.358 448.572 804.578 448.929 801.453 449.109C799.971 447.641 798.51 446.151 797.073 444.64L784.883 432.147C791.494 431.506 798.318 430.97 804.887 430.204Z"/><path fill="#149473" d="M614.043 734.452C616.047 735.797 618.94 747.417 619.994 750.424C616.593 751.176 613.164 751.75 609.743 752.411L607.243 752.915L604.743 753.427L601.256 754.112C598.694 754.629 595.891 755.232 593.312 755.597C590.846 756.097 588.517 756.589 586.033 757.045C593.786 750.178 605.611 741.033 614.043 734.452Z"/><path fill="#ADB1B1" d="M749.572 270.871C748.811 270.637 746.827 270.088 746.468 269.347C746.942 268.83 749.883 269.759 750.452 269.902L749.572 270.871Z"/><path fill="#E6E7E5" d="M679.241 337.989C678.639 337.737 677.308 337.276 676.912 336.748L676.96 336.664C677.399 336.439 677.923 336.465 678.404 336.452L679.281 336.404L679.241 337.989Z"/><path fill="#000101" d="M740.321 523.67C740.593 523.997 741.134 524.692 741.423 524.95C740.718 544.467 739.322 564.758 738.821 584.168C718.6 586.035 697.186 587.817 677.057 590.029L674.79 655.298C654.099 658.484 633.076 661.982 612.409 664.94C611.675 681.069 611.686 699.025 610.536 714.879C600.048 723.532 590.032 732.979 580.095 742.285C571.406 750.422 561.827 758.583 553.363 766.826C536.561 753.088 519.904 739.174 503.394 725.086L414.512 651.057C401.605 666.205 388.545 683.08 376.017 698.665L300.849 791.816C272.672 770.996 245.296 748.436 217.324 728.003C194.631 751.674 171.601 778.968 149.46 803.638L89.8317 870.336C80.7782 880.534 71.7142 890.199 62.8473 900.658C72.8402 882.965 91.8115 857.826 103.768 840.423C128.111 804.675 152.754 769.132 177.693 733.797L205.824 694.011C209.697 688.553 214.6 682.189 218.196 676.792C244.529 694.283 271.725 713.427 298.245 730.416C315.845 704.308 335.435 677.541 353.618 651.629L385.671 606.395C391.531 598.134 398.251 588.113 404.347 580.224L519.005 679.845C534.106 693.003 549.441 706.943 564.717 719.764L590.491 695.642C590.628 678.801 591.508 661.513 591.942 644.596C599.017 644.214 608.143 642.78 615.285 641.845L656.272 636.404C656.732 614.872 658.372 592.399 658.487 571.194L716.489 565.687C716.607 563.867 716.682 561.653 716.944 559.884C717.123 562.171 716.819 564.621 717.977 566.002C719.534 566.281 720.472 566.365 722.016 566.478C724.878 566.592 727.828 566.287 730.703 566.12C732.514 570.463 735.194 576.868 736.626 581.169L737.46 578.922C730.982 565.019 732.807 563.631 732.95 549.944L733.357 548.749C735.702 549.596 736.723 550.191 738.935 551.273C738.989 547.544 739.63 526.347 740.321 523.67Z"/><path fill="#149473" d="M722.016 566.478C724.878 566.592 727.828 566.287 730.703 566.12C732.514 570.463 735.194 576.868 736.626 581.169C736.957 582.685 736.738 582.881 735.271 582.973C729.196 583.355 723.127 584.175 717.061 584.646C717.126 579.018 717.202 572.84 717.689 567.27C717.72 566.91 721.685 566.53 722.016 566.478Z"/><path fill="#149473" d="M732.95 549.944C734.912 550.745 736.805 551.715 738.711 552.649C738.596 559.381 738.362 572.386 737.46 578.922C730.982 565.019 732.807 563.631 732.95 549.944Z"/><path fill="#149473" d="M404.473 582.743C406.246 583.055 550.399 709.202 563.653 720.746C561.703 722.618 557.036 726.676 556.32 729.049L556.885 729.348C559.475 727.257 562.113 724.516 564.512 722.164C573.614 713.241 583.45 704.833 592.367 695.747C598.002 701.565 604.109 707.657 609.372 713.751C596.55 724.977 584.397 736.778 571.661 748.093C565.462 753.6 559.366 759.136 553.402 764.899C540.282 754.545 526.12 742.343 513.303 731.544C496.703 717.796 480.196 703.935 463.784 689.963C448.82 677.34 427.78 661.393 414.228 648.47C411.124 653.236 404.388 661.098 400.584 665.839L375.808 696.793L337.034 744.397C324.816 759.611 313.083 774.934 300.515 789.916C289.797 780.793 275.108 770.91 263.523 761.601L217.184 725.984L131.738 821.209C121.786 832.511 111.706 843.719 101.506 854.797C94.4456 862.465 85.3248 874.575 77.6898 881.084C81.0127 875.054 87.8395 865.872 91.9552 860.003C99.6671 848.99 107.317 837.934 114.905 826.835L218.582 678.689C232.584 688.7 247.527 698.27 261.912 707.761L298.685 732.43C302.783 726.979 307.308 719.94 311.332 714.183L336.539 678.305C358.945 646.282 381.591 614.427 404.473 582.743Z"/><path fill="#149473" d="M658.832 604.696C663.863 605.072 669.955 604.966 675.072 605.004C674.808 613.607 674.591 622.21 674.421 630.815C674.484 632.321 674.793 634.618 674.149 635.894C673.949 641.981 673.599 648.188 673.314 654.283C657.249 656 638.403 659.415 622.206 661.942C621.91 655.922 622.035 648.806 622.005 642.702C633.086 641.069 646.984 638.713 657.902 637.901C657.818 627.377 658.394 615.282 658.832 604.696Z"/><path fill="#104D48" d="M674.149 635.894C673.906 633.84 674.091 632.83 674.421 630.815C674.484 632.321 674.793 634.618 674.149 635.894Z"/><path fill="#149473" d="M659.954 572.703C678.166 571.588 697.332 568.618 715.943 567.418L715.533 584.936C704.305 585.497 687.104 587.271 675.844 588.613C675.993 589.889 676.221 591.226 675.681 592.396L675.18 603.475C669.755 603.461 664.332 603.321 658.913 603.057C659.415 592.945 659.762 582.825 659.954 572.703Z"/><path fill="#104D48" d="M675.681 592.396C675.479 591.084 675.239 589.794 675.844 588.613C675.993 589.889 676.221 591.226 675.681 592.396Z"/><path fill="#149473" d="M593.595 646.729C599.721 653.246 604.527 658.204 611.025 664.413L610.921 672.801C610.978 674.255 611.373 676.759 610.602 677.814C610.322 687.94 609.849 701.292 608.907 711.273C603.66 705.255 598.149 699.47 592.392 693.938C591.997 679.054 593.15 661.796 593.595 646.729Z"/><path fill="#104D48" d="M610.602 677.814C610.307 675.777 610.532 674.822 610.921 672.801C610.978 674.255 611.373 676.759 610.602 677.814Z"/><path fill="#149473" d="M616.701 643.178C617.081 643.114 620.298 642.466 620.326 643.298C620.538 649.602 620.484 656.039 620.611 662.355C617.816 662.621 615.041 663.061 612.266 663.485L605.54 656.819C602.468 653.796 599.085 650.125 595.995 647.255L595.314 646.629L594.662 646.015C601.974 645.078 609.411 644.234 616.701 643.178Z"/><path fill="#000101" d="M715.627 184.77C752.445 175.394 790.304 162.826 827.26 153.102C850.471 160.244 874.338 166.324 897.67 173.15C910.891 177.018 924.221 181.181 937.516 184.674C932.783 186.102 912.354 192.472 909.692 195.102L908.56 194.418L908.517 195.331C907.975 195.942 907.795 196.096 907.169 196.646L902.791 196.37L904.717 197.54C896.557 199.636 884.409 204.841 875.957 207.63C859.402 213.093 842.807 218.827 826.282 224.401C819.264 222.631 803.968 216.797 796.703 214.199L747.508 196.342C737.272 192.565 725.934 188.082 715.627 184.77Z"/><path fill="#149473" d="M829.855 182.998C824.275 187.993 819.446 184.549 822.507 179.207C825.628 177.014 827.176 177.732 829.434 180.157C846.777 183.765 864.1 186.51 881.466 189.93C890.454 191.7 899.419 193.6 908.56 194.418L908.517 195.331C907.975 195.942 907.795 196.096 907.169 196.646L902.791 196.37C878.636 192.202 853.908 186.905 829.855 182.998Z"/><path fill="#000101" d="M774.959 208.527C788.514 214.605 811.243 222.076 825.715 226.958C830.262 225.968 837.922 223.191 842.56 221.637C854.251 217.688 865.896 213.607 877.494 209.395C877.441 222.65 878.188 236.446 877.76 249.543C876.664 251.039 875.15 252.659 873.687 253.784C850.148 271.877 794.533 274.631 774.96 249.912L774.959 208.527Z"/><path fill="#000101" d="M367.958 746.946L368.312 747.67C364.134 754.233 354.104 766.318 348.988 772.973C335.635 790.489 322.186 807.93 308.639 825.297C295.556 815.222 282.161 804.068 269.268 793.675C265.664 791.111 260.03 786.286 256.416 783.386C271.718 790.597 287.038 797.546 302.253 804.957C305.147 802.766 308.066 799.956 310.804 797.542C329.892 780.715 348.247 763.059 367.958 746.946Z"/><path fill="#149473" d="M357.887 757.482C358.109 757.669 358.146 758.002 358.253 758.271C356.424 761.499 347.072 772.999 344.107 776.882C332.238 792.451 320.289 807.959 308.26 823.404C300.119 815.97 287.694 806.573 278.812 799.266C276.311 797.573 270.584 792.656 267.964 790.547C279.541 795.426 291.232 801.412 302.491 807.054C315.083 796.353 327.497 784.402 339.915 773.417C345.868 768.151 351.679 762.428 357.887 757.482Z"/><path fill="#000101" d="M387.475 589.081L387.734 589.406C371.517 608.164 355.886 627.38 339.562 646.231L339.174 645.933C339.857 636.976 345.186 618.518 346.886 608.198C360.336 602.231 374.132 595.42 387.475 589.081Z"/><path fill="#149473" d="M381.338 593.538C381.414 593.608 381.847 593.941 381.706 594.114C374.933 602.447 347.793 635.001 342.343 640.3C340.983 638.825 342.536 635.442 342.954 633.487L343.433 631.239C344.772 624.937 346.633 618.846 347.677 612.5C348.043 611.178 348.167 609.346 349.643 608.712C360.437 604.08 370.777 598.643 381.338 593.538Z"/><path fill="#000101" d="M908.56 194.418L909.692 195.102C910.455 202.617 910.107 216.821 910.136 224.763C915.145 228.695 914.74 229.508 914.487 235.463L911.449 239.785C912.306 243.801 918.152 270.2 917.765 272.137L916.662 271.189L916.718 271.355L915.287 268.945L914.766 271.662C914.765 271.734 914.807 272.103 914.696 272.222C914.609 272.315 914.474 272.32 914.358 272.299C914.071 272.247 913.762 271.763 913.634 271.507C913.203 270.644 913.052 269.696 912.838 268.768C912.681 268.086 912.485 267.409 912.299 266.734C911.97 268.18 911.75 271.701 910.236 272.171C908.926 271.708 910.111 270.07 908.947 269.318C907.496 269.656 907.596 271.666 906.708 272.212C906.449 272.201 906.412 272.074 906.149 271.85L904.947 271.435L903.898 272.42C902.305 272.763 899.36 272.68 897.783 272.221L904.485 239.265C898.996 234.196 900.001 229.113 905.75 224.854C905.942 218.626 906.271 203.983 905.488 198.014L904.717 197.54L902.791 196.37L907.169 196.646C907.795 196.096 907.975 195.942 908.517 195.331L908.56 194.418Z"/><path fill="#149473" d="M905.05 264.183C902.052 264.405 904.345 269.846 901.665 270.9C898.349 272.205 901.228 264.108 901.587 262.007C902.719 255.382 904.282 248.153 905.562 241.488C906.033 239.222 907.774 239.875 909.629 240.218C910.181 240.331 910.633 242.988 910.787 243.677C911.432 246.522 912.024 249.378 912.563 252.245C913.096 255.185 914.332 263.328 915.389 265.634L915.464 266.543C915.545 267.383 915.475 268.127 915.287 268.945L914.766 271.662C914.765 271.734 914.807 272.103 914.696 272.222C914.609 272.315 914.474 272.32 914.358 272.299C914.071 272.247 913.762 271.763 913.634 271.507C913.203 270.644 913.052 269.696 912.838 268.768C912.681 268.086 912.485 267.409 912.299 266.734C911.97 268.18 911.75 271.701 910.236 272.171C908.926 271.708 910.111 270.07 908.947 269.318C907.496 269.656 907.596 271.666 906.708 272.212C906.449 272.201 906.412 272.074 906.149 271.85L906.169 270.234C905.713 267.725 905.86 267.423 905.914 264.847C905.59 264.625 905.312 264.465 905.05 264.183Z"/><path fill="#000101" d="M905.914 264.847C909.823 265.321 907.303 268.591 910.656 264.184C911.067 263.643 912.561 265.531 913.314 266.411L915.389 265.634L915.464 266.543C915.545 267.383 915.475 268.127 915.287 268.945L914.766 271.662C914.765 271.734 914.807 272.103 914.696 272.222C914.609 272.315 914.474 272.32 914.358 272.299C914.071 272.247 913.762 271.763 913.634 271.507C913.203 270.644 913.052 269.696 912.838 268.768C912.681 268.086 912.485 267.409 912.299 266.734C911.97 268.18 911.75 271.701 910.236 272.171C908.926 271.708 910.111 270.07 908.947 269.318C907.496 269.656 907.596 271.666 906.708 272.212C906.449 272.201 906.412 272.074 906.149 271.85L906.169 270.234C905.713 267.725 905.86 267.423 905.914 264.847Z"/><path fill="#408B89" d="M913.314 266.411L915.389 265.634L915.464 266.543C915.545 267.383 915.475 268.127 915.287 268.945L914.766 271.662C914.371 268.63 914.715 269.067 913.314 266.411Z"/><path fill="#408B89" d="M907.169 196.646C907.795 196.096 907.975 195.942 908.517 195.331C908.828 204.884 909.4 215.259 908.56 224.643C908.535 224.921 907.717 224.805 907.713 224.502C907.586 216.511 906.899 204.335 907.169 196.646Z"/><path fill="#408B89" d="M905.05 264.183C905.312 264.465 905.59 264.625 905.914 264.847C905.86 267.423 905.713 267.725 906.169 270.234L904.817 269.406C904.288 267.265 904.639 266.382 905.05 264.183Z"/><path fill="#ADB1B1" d="M904.817 269.406L906.169 270.234L906.149 271.85L904.947 271.435L904.817 269.406Z"/><path fill="#149473" d="M907.493 225.855C914.492 226.474 915.422 235.053 909.72 238.184L908.89 238.654C903.92 238.409 901.609 234.705 903.103 229.794C903.455 228.637 906.459 226.568 907.493 225.855Z"/><path fill="#000101" d="M456.09 702.726C459.163 704.324 477.316 720.281 480.985 723.48C492.703 733.699 505.589 743.724 517.146 753.994C513.32 752.798 495.967 743.89 490.742 741.459C484.97 738.775 469.959 732.353 465.327 729.54C463.456 722.205 458.782 710.215 456.09 702.726Z"/><path fill="#149473" d="M459.489 707.283C461.802 708.486 473.264 718.875 476.421 721.595C476.29 725.435 476.375 728.518 475.991 732.384C473.853 732.756 469 729.833 466.726 728.724L466.259 726.913C464.716 720.851 461.468 714.703 459.763 708.265L459.489 707.283Z"/><path fill="#149473" d="M477.936 722.988C486.208 729.374 494.92 736.69 502.708 743.726L501.422 744.678C494.294 741.828 485.124 737.025 477.54 733.769C477.701 730.177 477.834 726.583 477.936 722.988Z"/><path fill="#408B89" d="M502.708 743.726C504.397 745.156 506.114 746.553 507.858 747.916C505.121 746.734 504.004 746.055 501.422 744.678L502.708 743.726Z"/><path fill="#000101" d="M142.574 756.39C152.792 738.985 166.307 719.869 177.26 702.584C181.335 696.152 191.741 679.366 196.07 673.669C194.865 677.836 188.93 700.605 187.67 702.455C181.499 711.516 171.383 724.804 164.268 733.784C159.369 739.967 152.011 750.641 147.258 756.076C144.977 756.327 146.039 756.517 144.287 757.548L144.024 757.471C143.828 757.115 143.899 756.779 143.77 756.573L143.65 756.59C143.368 756.803 143.365 757.045 143.32 757.379L143.288 757.398L143.1 757.221C143.034 757.161 142.968 757.1 142.902 757.04L143.153 756.927L142.658 756.685L142.671 756.549L142.574 756.39Z"/><path fill="#149473" d="M190.321 685.392C190.603 687.642 187.491 699.832 186.228 701.752C176.832 716.038 165.464 729.121 155.5 743.042C152.648 747.028 149.401 751.399 146.221 755.086C146.199 754.987 146.165 754.889 146.155 754.788C145.898 752.225 185.335 693.208 190.321 685.392Z"/><path fill="#000101" d="M126.222 782.034C126.336 781.851 126.451 781.668 126.566 781.485C131.53 773.787 136.432 766.051 141.272 758.275C141.757 757.486 141.928 757.017 142.574 756.39L142.671 756.549L142.658 756.685L143.153 756.927L142.902 757.04C142.968 757.1 143.034 757.161 143.1 757.221L143.288 757.398L143.32 757.379C143.365 757.045 143.368 756.803 143.65 756.59L143.77 756.573C143.899 756.779 143.828 757.115 144.024 757.471L144.287 757.548C146.039 756.517 144.977 756.327 147.258 756.076C143.309 761.567 139.246 766.974 135.07 772.294C132.385 775.711 129.861 779.253 127.154 782.652L126.222 782.034Z"/><path fill="#1D1B1C" d="M127.154 782.652C126.786 783.167 124.234 786.935 123.722 786.771C123.409 786.067 125.354 783.433 125.736 782.824L126.222 782.034L127.154 782.652Z"/></svg>