<?xml version="1.0" encoding="utf-8" ?><svg xmlns="http://www.w3.org/2000/svg" xmlns:xlink="http://www.w3.org/1999/xlink" width="1024" height="1024" viewBox="0 0 1024 1024"><path fill="white" d="M0 0L1024 0L1024 1024L0 1024L0 0Z"/><path fill="#151515" d="M742.51 155.746C727.049 145.727 724.672 124.463 739.575 113.022C743.258 110.213 747.563 108.331 752.126 107.534C760.281 106.055 775.641 106.729 784.495 106.803C799.537 106.928 821.84 103.382 831.351 117.921C840.704 132.22 836.235 147.113 822.543 156.501L822.518 201.013L857.201 200.863C865.194 200.832 882.166 197.944 882.244 209.385C882.282 211.703 881.37 213.936 879.72 215.565C875.838 219.394 863.349 218.174 857.292 218.209L857.487 547.236C881.87 553.591 886.846 582.282 864.582 595.563C862.607 596.741 859.714 597.522 857.485 598.202L857.455 716.044L857.394 753.98C857.358 762.371 857.472 771.952 856.714 780.209C854.606 804.46 842.926 826.873 824.255 842.492C800.62 862.033 774.761 866.808 744.919 863.668C716.754 860.705 697.563 849.581 679.957 827.991C670.168 843.127 657.36 854.098 640.021 859.665C635.149 861.239 630.135 862.334 625.051 862.934C616.453 863.908 608.101 863.29 599.582 863.567C576.86 864.307 562.45 863.609 541.74 853.066C528.565 861.013 516.873 863.619 501.675 863.48C490.536 863.379 479.236 863.508 468.085 863.512L426.165 863.509C399.726 863.511 383.077 864.98 360.552 848.508C356.977 850.989 354.738 852.435 350.931 854.503C336.377 861.482 322.852 863.433 306.961 863.487L261.2 863.558C227.906 863.572 203.803 863.925 177.859 837.912C165.152 825.175 156.556 808.921 153.181 791.249C150.812 778.676 151.649 759.115 151.624 745.708L151.528 675.632L151.597 423.4C137.528 420.332 126.88 412.732 126.168 396.794C125.588 383.807 135.03 371.634 147.879 369.374C154.92 368.135 163.559 368.617 170.852 368.629L204.628 368.711L329.18 368.824L329.013 283.335C312.028 279.03 302.609 263.342 309.029 246.248C313.205 235.13 324.044 229.897 335.383 229.917C347.931 229.939 360.75 229.884 373.429 229.883L449.268 229.858L516.161 229.741C528.01 229.712 539.98 229.607 551.824 229.74C555.683 229.881 558.783 229.997 562.325 231.559C576.418 237.774 584.08 253.36 576.815 267.764C572.261 276.792 567.907 279.468 558.777 282.84C558.206 294.436 558.552 308.421 558.556 320.165L558.58 385.86C568.881 385.885 579.182 385.836 589.483 385.713L589.333 218.509C583.432 218.581 574.053 218.532 573.522 210.343C573.375 207.786 574.313 205.286 576.107 203.458C579.713 199.829 593.366 200.854 598.533 200.866C608.223 200.914 617.913 200.905 627.603 200.837L627.557 156.929C627.055 156.629 626.556 156.325 626.06 156.016C603.716 142.158 610.34 112.14 636.649 107.119C641.043 106.916 648.023 106.616 652.471 106.959C666.319 108.025 688.154 105.057 701.019 107.891C724.525 113.069 730.012 143.902 707.226 156.706C706.834 171.015 707.122 186.412 707.158 200.813L742.614 200.824L742.51 155.746Z"/><path fill="white" d="M167.063 423.444C176.35 423.128 187.159 423.388 196.531 423.391L252.198 423.396L396.264 423.46L396.383 485.23L355.749 485.079C349.602 485.061 338.219 484.703 332.498 485.642C329.193 486.159 326.03 487.345 323.2 489.129C317.747 492.523 313.322 498.387 311.901 504.673C310.304 511.459 311.499 518.601 315.219 524.497C319.696 531.735 324.978 534.902 333.012 536.819L333.055 547.506C315.764 547.373 299.855 552.712 286.771 564.255C273.787 575.717 265.965 591.924 265.07 609.221C264.276 623.475 265.028 644.674 265.018 659.438L264.98 690.814C264.968 701.929 264.384 712.693 266.885 723.605C274.155 755.315 301.343 776.132 333.125 777.664C333.035 795.677 332.69 809.031 341.505 825.607C343.404 829.18 345.711 833.282 348.355 836.339C347.956 836.639 347.553 836.934 347.146 837.224C325.168 852.793 280.765 845.335 254.691 847.197C247.468 847.712 234.117 847.055 227.05 845.865C189.186 838.27 167.451 807.77 167.45 769.914C187.661 769.425 208.028 770.555 228.226 769.486C238.804 768.926 237.242 754.733 228.823 753.8C222.949 753.149 215.241 753.46 209.182 753.456L167.473 753.442C167.252 741.973 167.442 729.853 167.463 718.343C187.367 717.178 210.486 718.769 230.883 718.028C238.592 713.021 237.866 707.191 230.83 702.005C223.5 701.455 213.772 701.658 206.279 701.648L167.457 701.623L167.405 665.469L208.63 665.528C215.257 665.535 222.291 665.804 228.834 665.177C233.391 664.74 236.32 661.281 235.968 656.763C235.227 647.241 228.173 647.956 220.776 647.946C216.614 647.94 212.404 647.952 208.291 647.958L167.345 648.052C167.173 635.726 167.384 622.954 167.445 610.594L208.653 610.57C215.287 610.568 222.336 610.769 228.787 610.311C234.683 609.893 237.83 603.59 234.806 598.598C233.147 595.859 231.349 594.734 228.208 594.502C221.323 593.995 214.341 594.257 207.449 594.281L167.5 594.423L167.063 423.444Z"/><path fill="#098D67" d="M349.85 618.697L489.342 618.752C485.148 634.245 489.683 647.394 505.464 653.374L505.496 743.802L505.444 773.42C505.397 803.193 506.302 818.906 528.008 841.912C514.594 848.544 502.98 847.029 488.426 847.033L452.06 847.027L419.178 846.991C414.45 846.976 409.734 846.893 405.009 846.837C378.263 846.515 357.343 828.484 351.313 802.439L393.684 802.498C401.033 802.511 408.505 802.693 415.799 802.232C420.567 801.924 423.693 796.705 422.515 792.244C420.701 785.377 413.129 786.083 407.577 786.057C403.055 786.035 398.635 786.046 394.166 786.044L350.113 786.058L350.277 753.129C371.567 752.776 392.982 753.402 414.278 753.207C425.074 753.108 425.171 737.91 415.161 737.091C407.627 736.474 399.823 736.663 392.235 736.636L349.952 736.509C349.88 725.873 349.869 715.236 349.919 704.599L394.692 704.589C399.287 704.604 403.844 704.627 408.484 704.623C413.567 704.618 418.997 705.248 421.906 700.007C424.686 695.001 420.807 690.786 416.503 688.489C394.341 688.525 372.18 688.433 350.02 688.211L350.14 655.32C371.903 654.92 394.3 656.046 416.086 655.375C424.484 655.116 425.576 639.44 415.206 638.885C407.722 638.484 400.282 638.59 392.746 638.586L349.943 638.528C350 631.917 349.969 625.307 349.85 618.697Z"/><path fill="white" d="M692.102 602.305C691.295 602.265 690.019 602.245 689.459 601.58C690.248 600.489 700.985 600.975 702.737 601.078C748.278 600.873 794.892 600.548 840.385 601.034L840.458 721.681L840.488 755.337C840.506 765.788 840.999 777.53 838.873 787.642C836.085 801.59 829.271 814.415 819.272 824.532C787.623 856.543 731.197 856.381 699.85 824.516C695.423 820.041 691.661 814.955 688.678 809.412C691.541 800.483 691.543 798.624 692.312 789.582L746.871 789.428C749.352 787.817 751.62 786.395 752.333 783.297C753.522 778.132 750.581 773.203 745.057 772.738C739.098 772.236 733.067 772.411 727.061 772.416L692.527 772.461L692.531 751.99L727.67 752.032C733.829 752.036 739.993 752.198 746.157 751.769C750.769 751.51 752.588 748.758 753.136 744.599C753.597 741.109 749.956 736.332 746.65 736.11C729.145 734.939 710.377 735.832 692.892 735.559L692.958 715.603L727.277 715.622C732.833 715.629 740.85 716.016 746.143 715.223C754.309 714 754.554 699.129 745.192 698.324C739.083 697.799 733.121 698.018 727.029 698.028L693.001 698.102L692.975 677.592L728.946 677.596C733.765 677.591 742.704 678.061 747.078 677.111C755.573 675.267 755.077 661.324 745.315 660.677C739.172 660.271 733.444 660.447 727.387 660.488L693.052 660.72L693.122 653.459C702.011 650.07 705.82 647.85 710.564 639.001C718.394 639.016 736.323 640.059 743.046 638.932C745.304 638.554 747.505 637.699 749.107 636.009C750.714 634.314 751.305 631.996 751.135 629.706C750.972 627.518 750.01 625.611 748.249 624.281C742.922 620.261 720.02 622.197 712.525 622.089C710.14 614.362 706.708 608.936 699.285 604.926C697.023 603.724 694.606 602.842 692.102 602.305Z"/><path fill="#A5A9A6" d="M692.102 602.305C691.295 602.265 690.019 602.245 689.459 601.58C690.248 600.489 700.985 600.975 702.737 601.078C700.868 601.266 692.526 600.926 692.102 602.305Z"/><path fill="white" d="M822.608 218.196C828.417 218.063 834.228 218.094 840.036 218.29L840.475 546.504L780.189 546.404C779.609 517.408 780.33 488.156 780.089 459.147C780.032 452.167 779.981 444.797 780.404 437.844C785.033 436.12 788.369 434.574 792.057 431.136C797.064 426.453 799.959 419.942 800.083 413.088C800.302 401.601 790.958 388.708 779.168 386.598C772.686 385.438 763.781 385.887 757.037 385.891L723.874 385.916L606.495 386.002L606.485 319.25L606.57 218.489C613.509 218.418 620.567 218.491 627.517 218.494L627.452 282.314C627.428 290.631 626.852 311.675 628.34 318.753C629.932 326.48 633.632 333.615 639.03 339.369C659.942 361.386 700.567 349.955 705.966 319.656C707.961 308.454 707.136 294.156 707.135 282.579L707.058 218.472C718.808 218.339 730.785 218.448 742.554 218.438L742.594 281.96C742.598 301.114 739.536 323.699 753.8 338.574C761.209 346.282 771.404 350.691 782.095 350.813C792.981 350.992 802.446 347.232 810.292 339.723C825.884 324.801 822.512 300.55 822.51 280.736L822.608 218.196Z"/><path fill="white" d="M346.047 283.181C356.52 282.738 368.982 283.044 379.546 283.048L439.443 283.047L503.975 283.016C516.276 283.014 529.876 282.76 542.051 283.241L542.08 332.992L457.765 333.025L434.237 333.067C428.928 333.054 420.053 332.036 415.58 335.048C409.781 339.159 413.107 350.02 420.065 350.189C460.512 351.171 501.499 349.283 541.922 350.453C542.11 357.037 541.993 364.2 542.013 370.828C527.162 371.103 512.179 370.767 497.345 370.907C492.747 370.951 480.289 370.609 476.264 371.316C474.811 371.572 473.451 372.207 472.323 373.157C467.023 377.643 469.236 386.567 475.977 388.046C479.371 388.79 484.414 388.346 487.943 388.382C491.842 388.421 495.908 388.272 499.832 388.222L542.545 387.978C533.804 395.039 529.609 398.352 527.732 410.007L496.75 410C490.235 410.058 477.5 408.48 472.114 412.343C467.522 415.636 469.969 425.645 476.326 426.254C482.517 426.847 488.917 426.58 495.244 426.546L531.251 426.456C534.942 432.121 538.584 434.831 544.699 437.425L544.681 448.603L499.103 448.571C493.177 448.571 477.371 447.46 472.684 450.518C467.074 454.179 469.681 464.106 477.319 464.705C484.721 465.285 492.377 465.033 499.95 465.026L544.987 465.042C545.235 471.612 545.166 478.758 545.222 485.375L412.996 485.434L413.041 422.895C425.147 419.098 434.808 410.746 435.169 397.249C435.347 389.694 432.452 382.391 427.145 377.011C416.608 366.28 402.313 368.605 388.492 368.631L345.938 368.65C345.914 340.327 345.637 311.454 346.047 283.181Z"/><path fill="white" d="M522.104 654.661C539.67 654.4 558.208 654.912 575.932 654.89C609.069 654.586 642.208 654.49 675.346 654.601L675.279 746.284C675.248 761.616 675.673 777.954 674.822 793.194C673.563 815.714 656.675 835.23 635.962 843.255C631.819 844.886 627.499 846.03 623.091 846.662C614.739 847.836 581.316 847.779 573.025 846.502C567.87 845.688 562.845 844.195 558.082 842.063C541.772 834.737 530.592 821.13 524.254 804.66C543.226 804.015 563.796 805.749 582.82 804.245C585.258 804.052 587.147 801.041 588.274 799.083C589.073 793.344 587.384 788.407 580.966 787.988C574.302 787.552 567.473 787.71 560.788 787.702L521.979 787.662L521.947 767.629C539.123 767.478 556.327 767.929 573.543 767.751C579.537 767.69 587.31 768.921 588.52 760.643C589.155 756.302 586.517 751.496 581.737 751.188C574.983 750.752 568.02 750.936 561.192 750.945L522.017 751.011L521.993 730.668C542.159 730.273 562.433 731.1 582.572 730.393C591.254 730.089 591.432 714.419 581.906 713.787C575.14 713.338 568.489 713.534 561.716 713.536L522.062 713.495C522.017 706.316 522.019 699.138 522.069 691.96L560.367 691.861C567.336 691.842 574.158 691.896 581.126 691.519C591.564 690.954 590.761 675.998 581.106 675.279C574.667 674.799 568.387 674.842 561.922 674.787C548.619 674.67 535.315 674.641 522.012 674.701C521.971 668.021 522.002 661.341 522.104 654.661Z"/><path fill="white" d="M561.663 438.626C584.293 438.042 609.302 438.559 632.126 438.577L762.912 438.555C762.957 453.8 762.917 469.046 762.791 484.291C724.255 484.597 685.58 483.738 647.039 484.196C642.447 484.251 638.837 487.75 638.773 492.383C638.624 502.99 652.546 500.957 659.574 500.968L684.195 500.997L762.916 501.025L762.901 518.627L686.246 518.548C674.164 518.546 655.031 518.016 643.48 519.125C635.812 523.948 636.913 534.549 646.213 535.724C650.76 536.299 656.475 535.898 661.125 535.818C667.89 535.716 674.656 535.688 681.421 535.735L762.572 536.029L762.635 546.513L697.751 546.495C689.26 546.494 662.206 545.454 655.739 548.332C632.21 558.802 632.398 589.944 657.447 599.812C658.112 599.935 659.12 600.031 659.51 600.668C659.499 600.711 659.492 600.758 659.447 600.763C655.739 601.162 644.369 600.958 640.873 600.576C621.101 600.81 600.89 600.577 581.083 600.561C580.871 579.003 581.001 557.444 581.473 535.891C584.251 534.646 586.839 533.014 589.16 531.044C594.555 526.452 597.827 519.846 598.212 512.772C598.524 505.69 595.977 498.778 591.143 493.593C582.473 484.469 573.061 485.429 561.589 485.164C561.375 469.832 561.607 453.98 561.663 438.626Z"/><path fill="#A5A9A6" d="M657.447 599.812C658.112 599.935 659.12 600.031 659.51 600.668C659.499 600.711 659.492 600.758 659.447 600.763C655.739 601.162 644.369 600.958 640.873 600.576C645.015 600.208 655.171 601.05 657.447 599.812Z"/><path fill="white" d="M349.551 537.462L491.099 537.53C515.036 537.542 540.952 537.075 564.668 537.657L564.59 601.437C554.047 601.491 543.504 601.49 532.961 601.432C526.542 601.411 513.474 600.915 507.966 602.312C503.055 603.576 498.579 606.147 495.013 609.752C492.516 612.324 490.585 615.39 489.342 618.752L349.85 618.697C349.047 592.784 349.629 563.611 349.551 537.462Z"/><path fill="white" d="M151.003 385.617C204.13 384.893 258.447 385.461 311.675 385.509L374.181 385.469C385.001 385.454 395.515 385.495 406.666 385.502C415.349 385.507 420.565 391.767 417.413 400.519C416.462 403.161 413.477 404.93 410.839 405.897C406.116 406.676 391.99 406.199 386.375 406.172L338.036 406.156L219.276 406.127C199.025 406.13 178.756 406.254 158.507 406.235C155.771 406.099 151.745 406.305 149.17 405.319C143.997 403.339 141.965 395.752 144.148 390.994C145.566 387.902 148.028 386.718 151.003 385.617Z"/><path fill="white" d="M548.773 246.735C552.606 246.702 556.058 246.386 559.036 249.103C565.95 255.412 563.267 265.926 553.251 266.253C544.983 266.523 537.04 266.381 528.897 266.348L485.084 266.312L338.066 266.387C331.183 266.536 322.61 264.723 323.597 254.963C323.924 251.727 327.468 248.762 330.119 247.047C336.168 246.569 346.161 246.883 352.552 246.881L394.424 246.869C445.259 246.859 498.106 247.67 548.773 246.735Z"/><path fill="white" d="M335.607 502.175C347.438 501.568 363.025 502.005 375.123 502.01L459.056 502.316L533.757 502.101C547.077 502.067 563.008 501.469 576.088 503.166C582.956 504.057 585.225 516.699 575.04 520.459C559.277 520.729 542.554 520.426 526.694 520.431L425.193 520.39L368.024 520.204C357.536 520.195 343.644 520.607 333.585 519.93C325.389 514.632 325.104 504.367 335.607 502.175Z"/><path fill="white" d="M721.684 402.75L757.174 402.607C763.326 402.583 772.026 402.272 777.932 402.876C778.637 403.444 779.394 404.047 780.066 404.655C782.433 406.759 783.813 409.756 783.874 412.922C784.023 424.932 764.346 422.088 756.344 422.082L722.542 422.065L606.75 422.002L571.163 422.047C565.037 422.056 559.231 422.076 553.063 421.742C540.501 421.062 541.331 403.956 552.475 403.128C558.697 402.666 565.403 402.874 571.738 402.874L606.367 402.855L721.684 402.75Z"/><path fill="white" d="M663.691 563.647C674.416 563.16 687.974 563.484 698.869 563.476L766.569 563.512L826.658 563.54C834.738 563.538 843.688 563.126 851.657 563.307C864.703 563.605 866.239 578.064 853.535 582.944C849.402 583.697 837.2 583.44 832.362 583.445L793.709 583.476L711.972 583.518C697.399 583.528 682.777 583.581 668.207 583.465C665.918 583.3 662.617 583.548 660.583 582.425C656.331 580.077 653.264 573.202 656.065 568.771C658.217 565.365 659.827 564.527 663.691 563.647Z"/><path fill="white" d="M327.872 565.204C328.875 565.07 331.746 565.066 332.897 565.032L332.902 581.891C313.422 583.181 297.676 593.384 297.539 614.71C297.575 640.751 297.638 667.175 297.545 693.174C297.492 707.792 296.535 720.34 307.687 731.29C315.29 738.755 322.491 741.398 332.907 741.522C332.925 747.875 332.897 754.229 332.824 760.582C330.419 760.491 327.59 760.144 325.161 759.909C317.462 758.572 308.132 753.942 301.991 749.192C291.058 740.678 283.998 728.133 282.393 714.369C281.677 708.175 281.918 700.21 281.927 693.807L281.976 662.741L281.915 628.668C281.903 621.192 281.537 611.204 282.814 604.104C284.217 596.171 287.565 588.709 292.559 582.387C301.828 570.832 313.643 566.707 327.872 565.204Z"/><path fill="white" d="M530.04 617.75L635.04 617.611L667.547 617.651C673.66 617.661 688.528 616.443 692.855 620.557C694.856 622.476 695.999 625.121 696.023 627.894C696.115 640.175 678.921 637.565 670.75 637.494L563.569 637.575L530.677 637.611C524.628 637.612 518.799 637.669 512.694 637.384C504.131 637.348 501.897 626.287 507.267 621.037C512.01 616.399 523.648 617.689 530.04 617.75Z"/><path fill="white" d="M644.521 218.479C659.232 218.056 675.713 218.43 690.562 218.437L690.519 281.003C690.516 289.625 691.369 306.97 689.747 314.96C684.187 342.344 646.479 341.005 644.251 310.508C651.285 310.285 659.038 310.436 666.125 310.435C676.803 309.051 676.899 295.529 668.736 293.952C663.348 292.911 650.348 293.479 644.515 293.5L644.534 276.149C649.468 275.934 669.884 277.529 672.418 273.641C684.314 255.39 653.754 258.939 644.52 259.012L644.501 242.486C650.893 242.388 669.156 243.745 671.796 240.26C686.225 221.212 648.584 225.294 644.532 225.284L644.521 218.479Z"/><path fill="white" d="M759.095 218.373C772.83 217.741 791.441 218.37 805.557 218.466L805.556 282.388C805.55 293.481 807.377 314.735 801.677 323.754C798.471 328.844 793.307 332.386 787.404 333.546C770.46 336.978 761.973 325.57 759.295 310.537L781.755 310.393C793.493 308.673 792.625 294.713 781.733 293.815C774.592 293.226 766.7 293.524 759.481 293.549L759.501 276.237C764.968 275.96 784.648 277.762 787.348 274.105C801.071 255.518 768.814 259.08 759.536 259.108L759.53 242.408C766.055 242.227 784.732 243.807 787.587 239.792C800.985 220.95 763.11 225.344 759.134 225.306L759.095 218.373Z"/><path fill="white" d="M326.541 600.049C328.642 599.902 330.278 599.589 332.25 600.259C333.01 602.182 333.359 718.172 332.536 723.868L331.586 724.563C328.544 725.003 326.192 723.99 323.538 722.622C321.084 720.491 319.088 718.354 317.565 715.427C316.504 713.389 315.671 711.121 315.444 708.823C314.637 700.637 314.607 613.23 315.827 609.848C317.566 605.031 322.069 601.997 326.541 600.049Z"/><path fill="white" d="M644.502 158.512C659.727 158.338 675.406 158.424 690.638 158.498C690.689 172.341 691.121 187.272 690.784 201.014C675.6 201.104 659.677 201.226 644.527 200.968C644.336 187.003 644.448 172.504 644.502 158.512Z"/><path fill="white" d="M759.489 158.532C774.471 158.333 790.551 158.318 805.557 158.471C805.549 171.944 805.996 187.589 805.517 200.838C790.69 201.063 774.372 201.136 759.564 200.904C759.363 187.913 759.112 171.392 759.489 158.532Z"/><path fill="white" d="M636.42 124.065C645.061 123.734 693.559 122.96 698.661 124.629C701.044 125.409 703.19 127.256 704.206 129.558C705.145 131.685 705.162 134.306 704.318 136.468C703.245 139.215 701.107 140.432 698.516 141.518C692.939 142.542 640.887 142.703 636.069 141.455C633.916 140.897 632.1 139.039 631.049 137.146C629.887 135.056 629.342 132.201 630.129 129.889C631.143 126.909 633.724 125.327 636.42 124.065Z"/><path fill="white" d="M752.859 124.093C768.902 123.347 785.761 124.376 801.876 123.909C807.662 123.742 815.666 123.015 818.756 128.863C821.732 134.498 818.669 138.806 813.691 141.679C807.942 142.585 758.746 142.618 753.401 141.602C751.26 141.195 749.425 139.63 748.285 137.814C746.916 135.63 746.604 133.046 747.227 130.558C748.008 127.441 750.268 125.722 752.859 124.093Z"/></svg>