<?xml version="1.0" encoding="utf-8" ?><svg xmlns="http://www.w3.org/2000/svg" xmlns:xlink="http://www.w3.org/1999/xlink" width="1024" height="1024" viewBox="0 0 1024 1024"><path fill="#FEFFFF" d="M0 0L1024 0L1024 1024L0 1024L0 0Z"/><path d="M217.407 190.34C219.679 184.64 223.577 180.051 230.258 179.807C236.13 179.591 239.732 182.934 243.716 186.709C248.975 183.59 253.83 181.1 260.203 184.079C264.266 185.977 266.38 188.997 267.772 193.204C278.048 194.126 285.208 197.732 284.755 209.421C292.357 213.574 296.226 219.137 290.186 226.958C292.983 230.21 295.013 232.552 294.829 237.224C294.742 239.889 293.546 242.396 291.529 244.141C288.176 247.06 285.579 247.008 281.558 246.854C281.73 270.223 285.955 297.181 253.75 300.246L253.971 321.479C267.044 320.916 279.923 323.709 290.567 331.539C314.279 348.981 314.316 369.293 318.677 395.039C321.271 410.9 323.951 426.746 326.717 442.578L429.46 442.515C403.804 426.95 415.054 407.93 423.897 386.736L443.508 339.84C445.793 340.632 449.282 342.289 451.606 343.318C454.064 338.096 460.269 325.109 460.994 319.958C462.124 311.922 462.576 303.702 463.903 295.247C463.395 294.125 462.841 292.268 462.595 291.022C458.295 269.222 483.583 264.708 490.078 251.793C497.003 236.68 484.032 217.133 495.07 202.931C521.125 169.405 591.551 184.982 591.567 231.583C591.569 236.558 588.515 245.83 591.262 249.792C598.603 260.373 614.479 264.215 616.882 278.77C618.158 285.899 615.177 291.143 611.279 296.836C615.983 298.826 620.398 301.439 624.407 304.604C638.296 315.435 645.049 328.688 647.195 345.897C652.37 345.736 657.85 345.503 662.963 346.348C671.746 347.852 679.561 352.808 684.666 360.112C688.069 365.055 689.985 370.87 690.189 376.868C690.387 384.34 687.282 394.249 685.668 401.662C682.748 415.073 678.623 429.123 676.174 442.539L692.513 442.502C695.012 434.645 697.069 426.368 699.35 418.4L710.118 381.84C712.628 373.224 715.472 361.589 719.021 353.685C725.651 338.921 739.62 328.074 754.839 323.241C759.4 321.792 764.328 321.298 768.628 319.754L768.881 319.111C767.199 318.193 765.697 318.44 763.737 318.457C763.783 315.696 764.358 311.266 762.276 309.311L761.581 309.981C760.469 312.783 760.779 315.42 760.811 318.485C755.508 318.489 750.205 318.448 744.903 318.364C746.33 315.293 748.089 310.146 748.38 306.768L747.738 306.006C745.45 306.866 741.675 315.385 740.21 318.085C735.792 318.47 730.437 318.346 725.935 318.356C735.104 306.269 740.408 297.538 741.708 281.863C741.121 275.459 741.426 255.689 741.497 248.563C738.956 248.487 736.502 248.403 733.956 248.437C734.806 231.479 737.818 218.162 750.845 206.299C774.555 184.652 809.993 186.479 831.482 210.275C848.099 228.676 844.738 249.696 844.797 272.644C844.849 292.979 848.293 302.224 860.675 318.375C856.093 318.429 851.311 318.56 846.746 318.503C844.947 314.702 842.267 308.125 839.106 305.698L838.532 306.07C838.203 310.575 840.152 314.069 841.361 318.341L825.537 318.108C825.674 315.567 826.199 310.682 825.426 308.556L824.487 308.093L823.719 308.533C822.744 312.128 824.06 315.526 822.915 317.888C821.098 318.12 820.13 317.989 818.705 318.902C820.931 322.285 870.302 312.609 884.389 367.235C897.746 367.319 921.687 365.057 932.748 371.516C961.679 388.409 946.021 417.64 942.023 442.554L966.594 442.543L966.768 470.696C956.446 470.821 946.123 470.795 935.802 470.618C932.046 488.065 931.45 494.154 931.528 511.823L931.634 543.17L931.774 619.432L931.535 851.986C927.93 852.013 911.01 852.401 908.288 851.561L907.794 850.272C907.146 846.964 907.525 841.817 907.378 838.362C906.982 829.004 908.028 816.492 907.202 807.454L906.634 807.552C905.543 821.047 900.698 832.565 890.212 841.485C883.621 847.079 875.718 850.91 867.243 852.618C860.206 853.988 850.729 853.615 843.323 853.603L812.605 853.55L769.838 853.593C763.298 853.604 754.584 853.888 748.184 853.591C743.197 854.142 730.649 853.922 725.168 853.93L682.567 853.953L543.73 853.912L374.179 853.865L321.215 853.893C312.455 853.897 299.631 854.261 291.259 853.589C276.56 854.298 253.5 853.565 238.341 853.401C230.106 853.992 212.55 853.525 203.563 853.534C191.622 853.546 173.096 854.305 161.941 853.474C158.951 853.224 155.997 852.649 153.131 851.759C116.244 840.407 105.47 793.905 134.021 768.782C144.981 759.138 164.977 748.105 177.833 740.106L242.489 699.533C256.796 690.637 274.805 683.21 279.904 666.17C285.355 647.957 275.443 628.654 257.652 622.242C250.318 619.599 238.162 620.565 230.252 620.586L179.266 620.622C169.529 620.626 159.715 620.775 149.982 620.607C132.921 620.312 124.32 613.189 116.593 598.861L115.476 599.534C115.528 683.397 113.931 768.163 114.759 851.943L91.013 851.874L92.1242 609.818L92.6733 540.254L92.9072 508.866C93.0306 492.426 92.6103 486.989 89.203 470.7L58.405 470.689L58.4126 442.508L82.8259 442.797C78.8977 417.687 63.684 385.956 94.2821 370.649C102.438 366.569 112.021 367.386 120.899 367.346L143.946 367.273C144.836 365.206 146.003 361.002 146.819 358.655C149.453 350.972 153.794 343.986 159.513 338.219C176.115 321.344 191.623 321.286 213.145 321.151C212.932 313.306 212.993 305.126 212.942 297.254C210.81 296.124 208.908 295.117 206.898 293.774C203.335 291.396 205.717 289.453 203.463 286.879C201.075 286.201 199.113 286.577 196.662 286.611C186.144 286.758 184.576 277.877 184.359 269.461C174.887 264.623 169.953 256.036 178.742 247.455C170.346 239.408 170.872 230.227 181.814 225.096C176.931 214.514 181.44 204.54 193.547 203.93C196.585 190.683 203.963 184.346 217.407 190.34Z"/><path fill="#179373" d="M143.946 367.273C143.96 367.723 144.044 368.596 143.93 368.969L126.195 431.114C123.36 441.315 118.172 455.667 119.233 466.006C121.345 486.601 140.633 490.848 156.929 494.885C155.386 503.873 153.585 512.815 151.53 521.699C149.453 531.019 147.262 539.38 147.367 549.061C147.614 571.646 166.357 592.636 188.431 596.398C197.398 597.926 208.843 597.372 218.114 597.351L263.707 597.224C270.799 597.201 281.382 596.851 288.243 597.251C294.367 601.255 299.674 606.557 303.224 613.001L285.098 683.342C283.022 691.474 279.771 707.339 277.086 714.608L276.595 714.932C272.6 717.534 268.357 719.612 264.254 722.216L197.958 764.067C188.337 770.109 176.46 776.612 167.711 783.735C159.911 790.085 159.414 804.569 165.023 813.026C168.035 817.574 172.747 820.723 178.102 821.767C183.215 822.748 198.233 822.397 204.142 822.404L264.558 822.418C268.003 822.415 285.638 822.032 287.155 822.927C287.374 824.335 287.128 824.611 286.645 825.959L286.803 826.731C286.998 827.588 286.922 828.043 286.68 828.867C284.076 832.149 284.609 832.856 283.229 836.432C282.613 837.479 282.707 837.911 282.623 839.129C283.434 844.652 284.337 847.659 289.528 850.704C290.384 851.077 291.243 851.443 292.104 851.804L292.424 852.4C290.799 853.166 233.042 852.954 225.764 852.717C227.939 852.717 236.63 852.487 238.09 853.121L238.341 853.401C230.106 853.992 212.55 853.525 203.563 853.534C191.622 853.546 173.096 854.305 161.941 853.474C158.951 853.224 155.997 852.649 153.131 851.759C116.244 840.407 105.47 793.905 134.021 768.782C144.981 759.138 164.977 748.105 177.833 740.106L242.489 699.533C256.796 690.637 274.805 683.21 279.904 666.17C285.355 647.957 275.443 628.654 257.652 622.242C250.318 619.599 238.162 620.565 230.252 620.586L179.266 620.622C169.529 620.626 159.715 620.775 149.982 620.607C132.921 620.312 124.32 613.189 116.593 598.861L115.476 599.534C115.528 683.397 113.931 768.163 114.759 851.943L91.013 851.874L92.1242 609.818L92.6733 540.254L92.9072 508.866C93.0306 492.426 92.6103 486.989 89.203 470.7L58.405 470.689L58.4126 442.508L82.8259 442.797C78.8977 417.687 63.684 385.956 94.2821 370.649C102.438 366.569 112.021 367.386 120.899 367.346L143.946 367.273Z"/><path fill="#040908" d="M143.946 367.273C143.96 367.723 144.044 368.596 143.93 368.969C141.888 368.298 134.123 368.566 131.564 368.585C128.191 368.941 109.982 369.265 106.672 368.787C87.0125 370.708 74.8861 386.136 77.1229 405.724C77.9775 413.208 79.9576 420.495 81.3431 427.886C84.5967 445.279 89.2511 462.741 92.7356 479.978L108.62 557.639C110.156 564.927 111.521 572.251 113.064 579.535C115.672 591.846 118.084 603.874 128.38 612.099C132.45 615.369 137.269 617.575 142.404 618.518C149.234 619.771 166.405 619.174 174.306 619.134L230.54 619.023C238.59 619.014 250.475 618.217 257.96 620.792C281.598 628.928 290.755 659.631 274.583 679.023C268.038 686.871 255.995 692.619 247.249 698.071L181.484 739.585C166.875 748.747 142.111 761.938 130.932 773.682C106.531 799.315 122.659 846.119 157.913 851.436C171.636 853.482 184.837 851.845 198.613 852.252C228.005 852.664 258.613 851.426 287.904 852.202L289.528 850.704C290.384 851.077 291.243 851.443 292.104 851.804L292.424 852.4C290.799 853.166 233.042 852.954 225.764 852.717C227.939 852.717 236.63 852.487 238.09 853.121L238.341 853.401C230.106 853.992 212.55 853.525 203.563 853.534C191.622 853.546 173.096 854.305 161.941 853.474C158.951 853.224 155.997 852.649 153.131 851.759C116.244 840.407 105.47 793.905 134.021 768.782C144.981 759.138 164.977 748.105 177.833 740.106L242.489 699.533C256.796 690.637 274.805 683.21 279.904 666.17C285.355 647.957 275.443 628.654 257.652 622.242C250.318 619.599 238.162 620.565 230.252 620.586L179.266 620.622C169.529 620.626 159.715 620.775 149.982 620.607C132.921 620.312 124.32 613.189 116.593 598.861L115.476 599.534C115.528 683.397 113.931 768.163 114.759 851.943L91.013 851.874L92.1242 609.818L92.6733 540.254L92.9072 508.866C93.0306 492.426 92.6103 486.989 89.203 470.7L58.405 470.689L58.4126 442.508L82.8259 442.797C78.8977 417.687 63.684 385.956 94.2821 370.649C102.438 366.569 112.021 367.386 120.899 367.346L143.946 367.273Z"/><path fill="#10634E" d="M106.672 368.787C108.618 368.324 128.922 368.417 131.564 368.585C128.191 368.941 109.982 369.265 106.672 368.787Z"/><path fill="#148A71" d="M289.528 850.704C290.384 851.077 291.243 851.443 292.104 851.804C290.413 852.082 289.63 852.134 287.904 852.202L289.528 850.704Z"/><path fill="#666768" d="M115.262 597.337C115.036 596.389 114.95 596.179 115.111 595.23L115.273 595.271L115.289 595.259C115.884 595.734 116.408 597.432 116.769 598.208L115.262 597.337Z"/><path fill="#D4D3D3" d="M115.262 597.337L116.769 598.208L116.593 598.861L115.476 599.534C115.462 598.843 115.342 598.032 115.262 597.337Z"/><path fill="#FEFFFF" d="M94.4689 504.362L96.0242 504.694L106.906 556.45C109.079 566.684 112.179 580.289 113.625 590.481C114.514 596.75 113.993 613.185 113.96 620.251L113.594 675.295L113.459 850.532L92.4847 850.497L93.8585 605C94.1688 572.31 93.3624 536.821 94.4689 504.362Z"/><path fill="#FEFFFF" d="M59.7874 443.99L83.2343 444.057C83.7467 446.629 84.2914 449.196 84.8684 451.755C86.0956 457.389 87.8547 463.783 88.7536 469.395L59.7191 469.436C59.7601 461.135 59.5239 452.216 59.7874 443.99Z"/><path fill="#D4D3D3" d="M94.4726 501.327L95.4814 501.024C95.603 502.551 95.7458 503.205 96.0242 504.694L94.4689 504.362C94.4467 503.329 94.4594 502.357 94.4726 501.327Z"/><path fill="#AB9699" d="M94.4726 501.327L94.4959 499.524C94.5009 499.203 94.5027 498.555 94.7329 498.322C95.1514 498.909 95.3568 500.281 95.4814 501.024L94.4726 501.327Z"/><path fill="#040908" d="M282.623 839.129C282.053 832.529 282.981 831.601 286.645 825.959L286.803 826.731C286.998 827.588 286.922 828.043 286.68 828.867C284.076 832.149 284.609 832.856 283.229 836.432C282.613 837.479 282.707 837.911 282.623 839.129Z"/><path fill="#FEFFFF" d="M906.897 597.98L908.135 599.052C907.618 619.402 908.17 641.648 908.184 662.133L907.945 794.453C907.697 796.038 907.55 798.229 906.66 799.432C905.747 789.113 901.49 779.374 894.536 771.695C887.795 764.287 870.807 754.368 861.634 748.516L797.216 707.183C789.181 702.087 781.181 696.937 773.215 691.733C755.797 680.345 742.808 670.556 748.498 646.558C751.649 633.27 765.931 622.277 779.254 621.226C787.444 620.579 796.85 620.947 805.279 620.982L852.253 621.077C858.517 621.083 871.104 621.447 876.996 620.785C881.107 620.363 885.123 619.277 888.886 617.569C897.16 613.886 903.591 607.011 906.713 598.51C906.774 598.333 906.835 598.156 906.897 597.98Z"/><path fill="#FEFFFF" d="M757.509 248.426L760.218 248.34C761.238 247.241 760.859 244.138 760.877 242.453C760.95 235.762 761.339 226.275 764.163 220.122L765.049 220.986L764.739 219.36L764.962 219.475C765.42 223.658 763.081 229.271 762.67 233.273C762.209 237.752 762.436 243.804 762.513 248.406L775.185 248.472C776.654 248.49 777.401 248.511 778.861 248.701L779.724 248.372C780.567 246.656 779.932 236.845 780.252 233.783C780.849 228.06 780.896 226.194 782.779 220.709L783.911 221.778C781.265 229.104 781.798 240.621 782.112 248.348L795.706 248.459C796.155 240.226 796.007 230.547 795.916 222.211C798.531 228.762 802.031 242.25 804.078 249.476L811.458 250.092C815.007 247.601 819.125 245.542 823.591 246.257C827.096 246.844 830.221 248.806 832.273 251.708C837.295 258.88 832.561 268.527 825.967 272.719C820.912 275.932 812.78 275.183 806.908 275.105C806.695 282.544 807.279 315.422 806.15 320.328C805.467 323.243 803.973 325.905 801.841 328.006C798.414 331.339 793.795 333.162 789.016 333.068C784.106 333.008 779.552 331.078 776.143 327.506C770.852 321.963 771.452 314.475 771.426 307.283C782.181 304.762 789.322 299.962 795.589 290.685C785.046 297.565 778.512 301.11 765.092 298.827C757.74 297.575 750.197 292.724 746.189 286.417C741.09 278.395 743.432 264.293 742.869 254.119C742.891 252.345 742.939 249.959 742.24 248.338C741.083 239.312 740.963 227.472 745.975 219.476L746.735 219.094C747.107 220.601 744.428 227.874 744.061 230.615C743.24 236.737 743.337 242.063 744.135 248.179C744.982 248.368 745.765 248.543 746.605 248.772C748.689 249.05 749.168 249.151 751.249 248.959C752.08 248.342 756.124 248.535 757.509 248.426Z"/><path d="M775.185 248.472C776.654 248.49 777.401 248.511 778.861 248.701L779.247 249.416C784.439 253.937 772.346 255.878 775.075 249.354L775.185 248.472Z"/><path fill="#8C8F8E" d="M775.185 248.472C776.654 248.49 777.401 248.511 778.861 248.701L779.247 249.416C777.856 249.439 776.465 249.419 775.075 249.354L775.185 248.472Z"/><path d="M746.605 248.772C748.689 249.05 749.168 249.151 751.249 248.959C751.722 250.275 752.777 252.027 751.336 252.983C746.831 255.971 746.344 251.875 746.605 248.772Z"/><path d="M763.202 250.295C766.28 252.893 762.759 259.181 762.771 262.689C762.776 264.107 760.667 267.817 762.765 267.887C764.035 267.93 764.163 268.148 764.85 269.102C758.829 270.356 759.735 269.533 760.86 264.224C761.826 259.662 762.743 254.933 763.202 250.295Z"/><path d="M824.055 253.869C824.399 254.038 824.707 254.114 824.817 254.494C824.828 254.463 815.116 263.452 814.426 264.028C811.703 262.773 822.732 254.74 824.055 253.869Z"/><path fill="#FEFFFF" d="M286.68 828.867L383.345 828.953C397.69 828.942 413.541 828.59 427.79 828.951C429.465 831.724 430.625 834.098 430.745 837.38L430.262 838.412C424.848 839.33 400.672 838.81 393.85 838.775L322.625 838.687C314.741 838.692 293.925 838.666 284.956 838.714C284.616 838.477 284.276 838.239 283.936 838.001L283.229 836.432C284.609 832.856 284.076 832.149 286.68 828.867Z"/><path fill="#10634E" d="M499.853 828.63C507.932 828.887 515.914 828.76 523.921 828.965C517.063 839.136 519.473 844.869 527.781 852.731C525.838 852.722 522.659 852.553 520.905 853.055C526.77 853.689 536.225 853.454 542.353 853.454L577.63 853.437L689.262 853.465L726.206 853.406C733.061 853.393 741.499 853.169 748.184 853.591C743.197 854.142 730.649 853.922 725.168 853.93L682.567 853.953L543.73 853.912L374.179 853.865L321.215 853.893C312.455 853.897 299.631 854.261 291.259 853.589C306.894 852.712 329.929 853.414 346.154 853.414L438.362 853.42C454.622 853.428 471.863 853.742 488.056 853.39C489.181 852.711 489.687 852.295 490.959 852.141C498.058 848.069 499.124 845.561 501.365 838.055C501.584 834.411 500.754 832.172 499.853 828.63Z"/><path fill="#06211B" d="M488.056 853.39C489.181 852.711 489.687 852.295 490.959 852.141C494.857 852.746 510.021 852.079 512.092 853.243L512.08 853.253C511.691 853.067 511.613 853.111 511.232 853.335C503.976 852.925 495.536 853.551 488.056 853.39Z"/><path fill="#C6C3CA" d="M907.945 794.453L907.934 827.061C907.952 834.357 908.203 843.077 907.794 850.272C907.146 846.964 907.525 841.817 907.378 838.362C906.982 829.004 908.028 816.492 907.202 807.454L906.634 807.552L906.66 799.432C907.55 798.229 907.697 796.038 907.945 794.453Z"/><path fill="#040908" d="M742.24 248.338C742.939 249.959 742.891 252.345 742.869 254.119C740.893 257.649 743.336 279.867 741.708 281.863C741.121 275.459 741.426 255.689 741.497 248.563L742.24 248.338Z"/><path fill="#8C8F8E" d="M744.135 248.179C747.197 248.004 754.422 248.106 757.509 248.426C756.124 248.535 752.08 248.342 751.249 248.959C749.168 249.151 748.689 249.05 746.605 248.772C745.765 248.543 744.982 248.368 744.135 248.179Z"/><path fill="#D4D3D3" d="M782.779 220.709C782.95 220.296 783.238 219.06 783.902 219.12C784.407 219.678 783.983 221.157 783.911 221.778L782.779 220.709Z"/><path fill="#D4D3D3" d="M906.897 597.98C907.068 597.499 907.308 596.567 907.745 596.263C908.054 596.627 908.086 598.456 908.135 599.052L906.897 597.98Z"/><path fill="#FE6D4F" d="M158.558 495.39L223.3 516.914C232.368 519.917 249.078 525.911 257.794 527.766C259.299 525.98 258.193 525.597 260.33 524.349C263.151 524.383 265.607 525.573 268.441 526.321C276.78 528.521 285.906 532.643 294.616 532.449C299.493 532.251 304.565 528.348 309.111 531.71C313.768 535.582 315.226 540.861 317.065 546.833C318.876 552.712 320.455 558.79 328.639 556.583C330.269 556.143 330.876 552.863 332.709 551.009C341.568 551.717 341.607 551.471 343.772 543.027C345.698 540.689 348.817 540.682 349.623 539.139C351.168 536.181 348.496 530.062 347.337 527.095C362.445 531.807 374.08 538.35 383.717 551.478C390.526 560.883 394.596 571.99 395.475 583.568C396.249 593.773 391.937 617.779 390.248 629.211L378.936 704.929C378.632 708.691 377.371 715.669 376.776 719.623C363.38 718.682 349.542 718.982 336.086 718.991L277.723 719.084C279.213 712.104 281.487 703.919 283.247 696.789C291.565 663.09 300.564 629.662 308.861 595.924L231.559 595.942C220.447 595.953 197.435 596.635 187.946 594.686C175.117 592.049 163.858 584.43 156.642 573.5C144.938 555.684 148.61 540.76 152.924 521.727C154.894 512.968 156.772 504.189 158.558 495.39Z"/><path fill="#FE6D4F" d="M869.564 498.064L870.075 498.557C872.639 510.352 876.517 531.38 877.597 542.94C878.024 557.422 871.728 571.317 861.746 581.07C842.135 600.23 815.299 596.022 789.457 595.959C765.36 595.963 741.262 595.819 717.166 595.527C722.225 609.766 727.768 633.786 731.52 648.656L749.564 719.207C739.762 718.859 728.66 719.09 718.755 719.058L660.375 718.925C655.766 718.866 654.139 719.013 649.736 720.081C643.329 677.086 638.324 632.944 632.815 589.759C631.19 577.022 639.658 557.532 648.643 548.292C663.092 533.431 677.644 529.27 697.869 528.676C699.729 539.163 705.443 537.039 714.503 536.787C721.023 536.329 730.45 537.801 736.725 536.471C752.679 533.092 770.764 523.327 786.561 520.039C788.77 521.389 786.782 521.542 788.768 523.314C801.255 520.159 817.12 514.78 829.494 510.77L869.564 498.064Z"/><path fill="#179373" d="M884.786 368.833C891.672 368.726 898.559 368.657 905.446 368.627C919.178 368.581 928.511 367.806 939.222 378.092C944.71 383.361 949.307 392.707 948.932 400.232C948.423 410.432 944.695 424.41 942.308 434.585C939.835 445.165 937.483 455.773 935.252 466.407L917.012 550.707C913.806 565.268 910.683 580.425 906.718 594.743C903.495 606.384 893.757 616.049 881.868 618.535C874.216 620.135 865.351 619.626 857.37 619.604L808.002 619.449C799.344 619.427 782.259 618.763 774.662 620.629C758.31 624.646 746.362 638.211 745.842 655.385C745.513 664.609 748.892 673.58 755.223 680.295C760.898 686.286 791.122 705.048 799.913 710.626L863.376 751.292C872.584 757.168 885.373 764.153 892.739 771.853C917.796 798.048 904.474 842.1 869.581 850.756C859.201 853.276 845.083 852.374 834.1 852.365L766.694 852.228C759.429 852.217 741.259 851.725 734.738 852.389C734.709 851.681 734.686 850.994 734.635 850.287C745.869 841.664 740.978 834.112 738.464 822.533L811.991 822.414C819.404 822.418 840.531 823.02 846.469 821.935C850.636 821.198 854.487 819.23 857.525 816.284C866.045 808.01 866.348 791.876 857.55 783.63C852.145 778.564 843.799 773.83 837.454 769.768C825.51 762.108 813.514 754.53 801.467 747.035L767.819 725.887C762.352 722.445 755.461 717.842 749.918 714.751C741.441 680.943 731.994 646.846 723.751 613.121C736.255 594.254 739.594 597.183 760.13 597.283L800.672 597.344C827.733 597.411 849.46 599.778 868.127 576.11C887.583 551.442 875.057 524.584 871.573 497.366C878.673 495.247 890.19 492.86 896.13 489.142C919.208 474.696 907.419 448.922 901.688 428.506C896.189 408.577 890.555 388.685 884.786 368.833Z"/><path fill="#D4D3D3" d="M512.308 503.105C516.109 502.648 527.138 502.954 531.542 502.97L568.73 502.981L617.539 502.953C622.253 502.947 636.783 502.59 640.517 503.261C640.649 504.697 640.558 506.366 640.529 507.744C640.526 507.841 643.4 512.265 643.41 512.244C642.113 514.766 640.482 516.621 640.859 519.702C640.867 519.854 640.876 520.005 640.884 520.157C632.196 522.086 624.466 524.807 617.188 529.897C594.243 545.942 594.951 564.221 590.336 588.689C580.896 588.603 564.807 588.193 555.804 588.917C554.232 583.659 550.418 567.435 548.381 563.205L547.523 563.228C547.32 565.493 568.459 640.884 569.953 646.384C572.493 655.294 577.352 668.464 576.021 677.274C574.226 689.157 572.223 701.253 570.306 713.129C545.684 712.702 519.438 712.924 494.77 713.202C488.86 681.75 479.388 649.937 472.695 618.525C469.47 601.851 462.081 583.489 461.46 566.583C460.231 533.137 481.911 511.055 512.308 503.105Z"/><path fill="#FE6D4F" d="M610.485 297.842C617.84 300.446 628.615 309.481 633.54 315.574C642.946 327.359 647.269 342.406 645.553 357.386C645.167 361.121 644.209 364.773 642.713 368.216C637.91 379.216 628.976 391.468 623.486 402.472C618.834 411.792 613.724 421.564 608.651 430.546C600.766 444.507 581.555 447.092 567.883 441.053C559.768 437.628 555.317 430.155 550.516 423.315C536.887 403.897 523.929 383.606 509.916 364.485C513.814 362.477 519.645 358.376 523.471 355.842C531.995 350.141 540.574 344.523 549.207 338.99L552.206 337.421C563.553 355.607 576.677 373.098 588.709 390.838C592.244 396.05 595.088 400.907 599.703 405.281L600.092 405.222C593.687 395.291 586.387 384.945 579.682 375.138C582.179 370.836 598.307 343.719 598.156 341.017C596.593 341.82 580.952 370.149 578.804 373.863C570.016 362.071 560.364 347.341 552.31 334.972L548.235 337.744C545.343 334.243 543.995 331.734 541.998 327.734C556.831 326.175 566.357 318.937 576.17 308.44C578.755 308.592 581.344 308.672 583.934 308.68C594.609 308.638 602.94 305.424 610.485 297.842Z"/><path fill="#FE6D4F" d="M640.406 521.583C643.034 521.597 643.779 524.468 646.221 524.797C652.377 525.626 660.216 524.403 666.297 525.016C670.056 525.394 676.479 527.558 680.588 528.541C665.05 532.71 653.879 539.194 643.751 551.873C623.72 576.951 633.532 609.81 637.481 639.171L648.148 719.241C641.901 718.957 634.662 719.098 628.337 719.087L571.009 719.077C573.004 709.647 574.42 696.417 576.022 686.543L587.458 616.528C589.298 604.249 591.273 591.99 593.381 579.755C594.296 574.347 595.359 566.335 596.766 561.175C597.972 556.72 599.729 552.433 601.997 548.413C610.734 533.101 624.075 526.041 640.406 521.583Z"/><path fill="#FE6D4F" d="M347.899 509.477C353.016 511.889 361.586 519.361 367.022 522.603C372.712 526.379 379.54 525.402 385.225 529.128C395.37 535.777 391.193 552.254 397.69 559.931C404.774 568.302 407.466 557.369 410.134 554.591C413.189 555.358 419.045 557.347 421.515 554.499C423.343 552.392 422.206 549.904 422.75 547.406C423.636 547.509 423.795 547.373 424.359 548.094C433.454 559.739 434.592 577.311 436.089 590.961L440.243 629.752L446.51 688.266C447.566 698.339 448.948 709.474 449.597 719.508L444.79 719.078C422.597 718.965 400.403 719.025 378.21 719.258C382.854 690.91 386.611 662.256 391.077 633.883C393.249 620.082 396.752 601.146 397.172 587.621C397.852 565.768 384.555 544.062 365.823 533.367C358.73 529.317 353.524 527.5 345.773 524.527C347.981 521.647 349.248 519.959 351.07 516.84C349.981 514.4 348.924 511.945 347.899 509.477Z"/><path fill="#FEFFFF" d="M272.134 719.09L273.015 719.616C271.827 729.975 267.425 744.909 265.125 755.685C275.974 755.197 291.089 755.825 302.37 755.831C302.381 757.957 302.992 786.246 301.811 786.979C295.562 790.279 295.75 792.457 294.189 798.841C292.389 806.194 290.226 813.673 288.106 821.016L213.003 821.033C206.509 821.04 199.955 821.016 193.464 821.049C182.171 821.107 171.554 822.237 165.192 810.577C162.366 805.334 161.747 799.18 163.47 793.479C166.802 782.646 181.073 776.164 190.3 770.392L224.382 749.068C233.45 743.445 242.479 737.758 251.468 732.007C258.157 727.696 265.191 722.87 272.134 719.09Z"/><path fill="#FEFFFF" d="M754.634 719.252L825.751 763.979C831.974 767.938 851.419 779.856 855.664 783.796C859.011 786.881 861.329 790.919 862.306 795.364C864.829 807.121 857.323 819.512 844.945 820.92C835.5 821.994 825.247 820.748 815.695 821.089C790.43 821.738 763.051 820.289 737.986 821.436C736.71 816.389 732.435 790.368 729.487 788.54C728.327 787.821 726.761 787.709 725.429 787.548C723.909 785.507 724.565 760.738 724.575 755.977L762.661 756.029C760.071 745.865 755.524 729.635 754.107 719.654L754.634 719.252Z"/><path fill="#FEFFFF" d="M451.644 443.64C464.914 444.269 480.545 443.901 493.989 443.888L561.31 443.856C564.053 443.846 567.051 443.743 569.754 444.045C573.733 444.491 579.059 445.879 583.053 445.719C587.989 445.478 592.886 444.153 597.84 444.101C624.429 443.826 651.023 444.172 677.614 444.085C683.121 444.067 688.964 443.888 694.411 444.601C684.561 447.245 679.557 445.873 667.823 450.428C668.098 456.621 667.961 462.857 667.901 469.058C657.017 469.371 644.53 469.051 633.539 469.041L569.292 469.127L358.835 469.026C347.986 460.76 338.289 452.2 326.864 444.021L417.512 443.97C429.077 443.949 441.183 445.725 451.644 443.64Z"/><path fill="#D4D3D3" d="M420.184 514.213C438.505 502.514 450.147 502.885 471.043 502.906C480.455 502.892 489.867 502.942 499.278 503.054C500.076 503.029 505.061 502.657 505.16 503.446C504.768 503.937 504.076 503.991 503.476 504.113C497.081 506.684 492.052 508.712 486.373 512.725C467.929 525.718 457.913 547.638 460.164 570.087C460.975 578.99 464.879 593.758 467.104 602.696L476.237 640.759C477.261 645.073 480.703 657.536 480.829 661.416C480.999 666.611 478.272 678.964 477.221 684.785C475.564 694.19 473.955 703.604 472.393 713.025L450.588 713.09C449.716 702.236 448.171 690.259 447.002 679.326L440.461 618.194L437.272 587.892C435.337 569.507 434.879 565.235 426.845 548.447C427.695 548.158 430.136 547.314 430.737 546.875C439.276 540.626 424.467 520.947 420.184 514.213Z"/><path fill="#C6C3CA" d="M499.278 503.054C500.076 503.029 505.061 502.657 505.16 503.446C504.768 503.937 504.076 503.991 503.476 504.113C501.816 503.042 501.257 503.371 499.278 503.054Z"/><path fill="#FEFFFF" d="M928.434 504.789L930.052 504.379C930.318 554.402 930.314 604.426 930.039 654.449L930.109 850.573L909.411 850.603C908.776 793.172 909.634 734.479 909.673 676.897C909.731 658.954 909.694 641.011 909.562 623.068C909.491 615.042 909.64 606.938 909.436 598.825C909.079 588.267 912.088 577.755 914.571 567.5C919.598 546.732 923.428 525.546 928.434 504.789Z"/><path fill="#FEFFFF" d="M250.588 229.288L251.8 230.831C259.186 240.243 266.211 239.669 275.384 233.169C275.327 238.889 275.552 241.79 280.139 245.485C280.183 256.729 281.99 275.752 276.864 285.057C273.499 291.209 267.756 295.71 260.978 297.507C249.547 300.608 238.212 297.057 228.33 291.353C235.534 299.046 241.129 305.524 252.534 306.597C252.75 318.115 254.547 325.865 243.866 333.272C240.618 335.061 237.335 335.999 233.596 336.037C228.42 336.134 223.437 334.076 219.839 330.355C217.387 327.805 215.7 324.619 214.967 321.159C213.869 316.024 214.459 282.539 214.503 275.659C208.153 276.136 202.731 276.013 197.465 271.923C191.255 267.101 188.202 257.68 193.783 251.24C195.846 248.869 198.777 247.431 201.915 247.249C208.039 246.882 211.727 250.124 215.956 253.77C224.904 251.963 228.98 248.34 230.093 239.265C240.577 240.893 246.229 239.239 250.588 229.288Z"/><path d="M200.908 254.493C202.95 255.68 211.11 262.636 211.519 264.82L211.701 265.634C209.693 264.056 200.635 256.791 200.908 254.493Z"/><path fill="#FE6D4F" d="M444.116 341.384C454.649 346.929 478.715 355.222 490.433 359.408L475.253 396.519C472.685 402.735 467.951 412.278 466.918 418.395L467.261 418.403C472.219 409.171 478.374 392.934 482.484 382.866C485.292 389.975 488.171 397.056 491.123 404.106L486.686 408.849C478.478 417.533 465.033 434.409 455.384 440.225C442.745 447.844 423.68 442.504 417.489 428.104C411.018 413.053 418.981 403.809 424.153 389.846C430.508 373.538 438.184 357.705 444.116 341.384Z"/><path fill="#FEFFFF" d="M490.931 274.56C498.495 272.037 499.795 273.451 507.279 274.542C545.618 286.685 530.55 316.937 547.035 338.493C536.632 345.87 525.179 352.888 514.459 359.948C508.762 348.831 500.931 338.084 496.129 326.864C493.306 320.268 493.388 307.935 490.318 301.115C489.841 300.054 488.58 298.848 487.392 298.672C481.988 297.709 483.236 305.963 479.313 307.83C473.232 310.723 471.614 302.88 472.931 298.785C476.025 289.168 485.55 284.793 494.65 289.208C496.78 290.241 497.765 291.664 500.189 292.396L500.426 291.819C496.642 286.666 487.78 284.726 481 287.396C473.125 290.731 465.127 306.489 476.687 310.452C481.812 312.208 483.431 299.464 487.984 300.583C489.846 302.381 490.421 305.975 490.819 308.512C492.085 316.574 493.297 323.499 496.227 331.205C492.79 339.545 489.412 347.909 486.094 356.297C476.034 353.141 463.032 347.72 452.972 343.856C455.438 338.103 460.945 327.595 462.227 321.983C464.455 312.229 462.785 301.28 467.827 291.7C472.87 282.117 481.068 277.647 490.931 274.56Z"/><path d="M490.931 274.56C498.495 272.037 499.795 273.451 507.279 274.542L505.398 275.709C512.704 278.914 514.748 280.512 519.708 286.39C509.964 280.93 507.095 274.894 492.837 275.583C491.526 275.78 491.717 275.675 490.931 274.56Z"/><path fill="#D4D3D3" d="M490.931 274.56C498.495 272.037 499.795 273.451 507.279 274.542L505.398 275.709C501.454 274.743 499.145 274.194 494.973 273.989C494.046 274.746 493.914 274.693 492.739 275.089L492.837 275.583C491.526 275.78 491.717 275.675 490.931 274.56Z"/><path fill="#666768" d="M492.739 275.089C493.695 274.246 493.74 274.095 494.973 273.989C494.046 274.746 493.914 274.693 492.739 275.089Z"/><path d="M488.438 279.257C495.754 278.048 506.007 282.7 509.637 288.951C506.229 288.847 499.744 279.592 491.744 280.07C490.394 280.151 489.614 279.839 488.438 279.257Z"/><path fill="#FEFFFF" d="M513.937 203.495C514.392 204.114 515.612 207.863 516.109 208.981C519.154 215.824 522.45 221.943 527.598 227.434C525.61 227.433 523.274 226.965 522.368 228.952C524.385 231.007 527.327 230.208 529.922 229.882C537.557 234.785 542.3 236.976 551.141 239.555C556.843 235.935 564.226 232.72 570.163 238.008C572.356 239.989 573.638 242.784 573.71 245.738C573.937 252.882 568.324 259.336 561.614 261.134C559.088 261.811 556.148 261.706 553.535 261.74C552.18 284.64 550.52 297.215 574.264 308.19C569.797 313.374 567.449 315.21 561.812 319.079C553.605 323.867 551.187 324.746 541.828 326.334C538.946 310.591 538.919 301.393 530.003 287.973C536.569 283.682 538.096 281.719 541.825 274.864C535.414 279.567 533.069 281.027 525.338 282.975C515.834 275.208 508.597 272.377 496.495 271.453C496.455 266.185 496.428 260.864 496.379 255.597C496.191 235.642 493.585 214.818 513.937 203.495Z"/><path d="M514.198 234.901C516.547 237.254 512.786 247.886 512.425 251.247C512.095 254.313 516.884 250.972 516.302 253.843C510.663 253.961 509.638 255.09 511.494 249.207C512.897 244.761 513.001 239.311 514.198 234.901Z"/><path d="M499.217 227.672C499.434 227.666 513.033 227.178 507.983 230.62C505.993 230.425 495.176 230.995 499.217 227.672Z"/><path d="M525.401 233.148C526.676 232.547 528.197 233.051 528.861 234.294C529.524 235.538 529.096 237.083 527.887 237.807C527.05 238.308 526.005 238.308 525.168 237.806C524.331 237.304 523.839 236.382 523.888 235.407C523.937 234.432 524.519 233.564 525.401 233.148Z"/><path d="M500.812 233.385C504.685 233.753 506.547 234.344 504.218 238.177C500.49 237.836 498.318 237.374 500.812 233.385Z"/><path d="M564.54 241.983C565.47 243.029 557.192 250.25 555.744 251.62C553.692 249.627 562.927 242.94 564.54 241.983Z"/><path fill="#D4D3D3" d="M510.971 470.665C560.092 471.496 609.775 470.135 658.951 470.575C661.345 470.597 666.161 470.127 668.143 471.271L668.362 472.277C665.591 477.575 648.873 472.377 643.362 475.512C637.027 479.115 642.748 484.137 643.179 487.913L641.525 489.78C639.402 494.068 641.033 496.188 642.877 500.275L642.597 500.976C638.917 501.733 630.329 501.507 626.197 501.509L599.527 501.511L494.992 501.421C499.927 491.124 505.601 480.773 510.971 470.665Z"/><path fill="#FEFFFF" d="M828.363 379.32C830.178 380.56 845.542 437.03 847.404 444.298C832.222 449.441 817.084 454.715 801.992 460.118C792.903 463.314 783.419 466.277 774.555 469.917C777.454 484.935 782.652 503.257 786.609 518.237L756.597 528.431C753.634 529.466 740.342 534.453 737.389 534.906C728.781 536.225 713.846 535.082 704.6 535.443C703.689 535.346 701.715 534.845 701.164 534.16C697.823 530.009 699.642 528.016 702.497 525.176C710.552 525.129 732.096 525.698 738.38 524.313C736.624 521.668 702.516 525.99 698.554 522.489C697.374 521.445 696.449 519.786 696.361 518.194C696.277 516.688 696.871 515.68 697.967 514.658C701.249 511.596 726.453 512.928 732.455 512.922C734.869 512.93 736.92 513.058 739.111 512.025C732.825 509.817 703.021 514.047 696.944 509.601C695.535 506.966 696.098 501.791 699.524 500.93C705.19 499.504 735.761 501.997 738.764 499.868C737.373 497.841 705.906 499.965 700.135 498.641C698.935 498.366 697.742 498.032 697.111 496.892C696.278 495.386 696.037 493.349 696.604 491.715C699.284 483.989 731.458 491.017 739.03 488.079L739.276 487.273C736.176 485.057 724.485 489.44 720.335 484.322C719.803 482.605 719.878 480.901 720.817 479.302C725.107 471.996 752.275 478.45 760.021 478.491C764.977 478.518 769.407 477.183 774.093 475.71C773.538 473.461 772.875 471.167 772.259 468.928C779.843 465.67 789.73 462.498 797.716 459.71L845.811 442.89C843.428 436.169 827.835 382.551 828.363 379.32Z"/><path fill="#179373" d="M647.496 347.491C652.681 347.239 658.715 346.917 663.783 347.962C672.042 349.676 679.283 354.596 683.917 361.643C687.06 366.438 688.776 372.027 688.866 377.76C688.981 384.333 685.69 395.674 684.106 402.493C680.987 415.912 677.347 429.187 674.425 442.683L632.514 442.54L641.959 388.759C644.061 376.645 647.638 359.387 647.496 347.491Z"/><path fill="#FEFFFF" d="M360.925 470.5C376.973 471.071 395.568 470.669 411.776 470.69L509.198 470.777C504.195 480.29 499.283 489.849 494.461 499.455C492.946 502.482 491.868 501.284 487.315 501.417C459.61 502.226 444.066 497.273 419.445 513.023C411.011 501.291 395.59 496.642 384.1 488.078C376.31 482.272 368.623 476.423 360.925 470.5Z"/><path fill="#FEFFFF" d="M202.539 380.282L203.185 380.967C203.713 384.839 186.993 434.279 184.904 443.057C187.689 444.026 190.618 444.752 193.39 445.722C221.036 455.393 249.696 464.205 277.17 474.196L274.729 482.511C286.107 485.411 297.796 487.63 309.114 490.353C322.184 493.496 339.552 494.987 345.88 508.675C348.452 514.239 351.198 516.874 345.857 521.87C344.197 520.607 342.786 517.274 341.314 515.284C335.643 507.615 328.464 502.154 318.987 500.544L318.565 501.001C319.561 502.098 320.693 502.184 322.322 502.651C331.586 505.217 339.169 513.325 343.403 521.72C345.302 526.145 352.573 537.521 345.484 540.573C340.831 542.576 338.084 533.244 336.898 530.117C334.104 522.749 329.785 515.217 322.5 511.517C320.8 510.654 316.533 509.167 314.636 509.853C316.157 511.269 319.556 511.77 321.654 512.861C325.169 514.69 327.174 516.657 329.743 519.501C334.697 526.241 337.787 536.42 341.67 544.006C343.083 546.766 338.623 550.108 335.221 550.178C330.509 548.108 328.64 538.307 326.424 533.523C323.635 527.501 316.053 517.638 308.642 517.791L308.185 518.475C308.817 519.068 308.777 519.194 309.595 519.414C321.175 522.53 326.016 534.869 329.324 545.15C330.063 547.446 330.509 549.982 330.234 552.352C330.058 553.865 329.518 554.466 328.386 555.373C315.91 559.462 319.626 531.812 307.315 529.339C300.938 528.058 296.101 531.943 291.418 531.048C281.156 529.086 270.198 525.335 260.045 522.612C263 514.379 274.224 483.102 274.78 475.672C267.672 472.208 255.645 468.821 247.814 465.95C226.566 458.161 204.065 451.52 182.917 443.656C188.254 424.662 194.807 405.85 200.33 386.895C200.98 384.66 201.689 382.45 202.539 380.282Z"/><path fill="#FE6D4F" d="M657.284 720.234C688.547 719.724 721.298 720.51 752.747 720.577C754.231 729.859 758.266 745.393 760.921 754.526L744.625 754.503L684.741 754.476C675.35 754.505 665.298 754.697 655.926 754.365C653.109 754.006 650.435 752.743 648.146 751.115C634.513 741.419 640.837 721.401 657.284 720.234Z"/><path fill="#FE6D4F" d="M274.456 720.345C282.022 720.749 291.929 720.487 299.675 720.479L344.436 720.415C351.433 720.402 358.461 720.346 365.445 720.423C372.985 720.507 378.674 721.263 383.327 727.931C389.731 737.108 385.778 746.845 377.117 752.627C369.889 755.515 343.723 754.465 334.699 754.45L266.694 754.354C269.168 746.644 273.143 728.343 274.456 720.345Z"/><path fill="#FE6D4F" d="M497.034 332.79C499.027 335.209 511.704 357.556 513.555 361.004L507.901 364.059C522.304 383.962 535.748 404.658 549.746 424.855C555.58 433.272 557.898 436.972 566.895 442.426L552.885 442.372L508.883 442.405C507.028 437.259 504.173 431.431 502.08 426.229C495.932 410.954 488.985 395.917 483.198 380.513C486.041 373.25 489.287 365.795 492.258 358.528L487.313 356.931C489.893 349.524 494.021 340.133 497.034 332.79Z"/><path fill="#FEFFFF" d="M674.939 778.221C677.415 777.986 679.927 778.184 680.104 781.171C681.129 798.932 705.628 799.571 718.063 795.13C721.165 794.022 724.573 788.052 728.711 790.015C730.63 793.049 736.609 821.175 738.09 827.383C692.287 826.465 644.643 827.6 598.565 827.344C600.41 823.127 602.022 820.331 604.667 816.624C609.926 810.057 616.09 805.763 623.542 802.019C626.7 804.706 627.459 805.799 630.023 809.087C632.383 808.317 634.169 807.175 636.33 805.959C640.038 808.643 647.906 811.883 652.354 813.909C658.424 816.627 664.409 819.53 670.302 822.614C672.016 819.239 672.419 817.946 673.525 814.309C664.845 809.857 656.107 805.519 647.312 801.298L651.962 799.045C661.577 801.706 672.974 808.163 682.46 812.158C683.71 810.13 685.442 806.366 686.542 804.121C682.831 802.47 667.346 796.149 665.679 793.04L667.333 791.453C667.244 788.813 659.548 784.884 661.272 779.881C663.553 777.48 670.258 778.547 674.939 778.221Z"/><path fill="#FEFFFF" d="M350.523 778.531C353.569 778.436 361.781 778.293 364.382 779.304C369.193 781.174 362.441 789.08 361.243 790.866C361.646 791.754 361.759 792.049 362.029 792.985C358.067 796.132 345.109 801.445 340.074 803.307C341.083 806.163 342.046 809.082 343.021 811.954C353.182 807.567 364.725 802.333 375.041 798.606L379.886 801.623C370.895 805.487 360.504 811.228 351.769 814.453L354.49 823.252C365.583 817.77 382.038 812.205 391.513 807.18L397.443 810.528C399.34 807.189 400.199 805.933 402.584 802.919C409.992 807.117 414.074 810.178 419.96 816.22C423.283 820.043 425.129 823.07 427.527 827.455L287.509 827.482C290.216 818.229 292.988 809.027 295.416 799.692C296.233 796.547 297.231 790.59 300.628 789.654C303.213 790.517 304.901 792.507 307.086 793.763C314.155 797.828 325.958 798.603 333.759 796.734C340.344 795.157 344.143 792.237 347.439 786.797C347.475 782.474 346.615 780.922 350.523 778.531Z"/><path fill="#FEFFFF" d="M482.181 667.817C483.667 669.16 493.394 711.36 492.466 712.899L489.573 713.014L489.115 713.714C490.839 723.801 494.223 738.084 496.73 748.113C508.555 747.94 520.629 748.029 532.473 748L532.475 765.39C527.644 764.775 525.769 764.334 520.857 764.515C514.587 770.008 512.665 770.775 505.161 774.176C501.82 775.775 498.262 777.211 494.836 778.649C483.868 771.027 474.118 770.4 461.705 774.204C461.715 765.464 461.801 756.724 461.963 747.986C465.219 747.95 468.598 748.014 471.865 748.03C473.274 740.611 478.217 719.646 478.611 713.625L478.07 713.098C476.702 713.106 475.864 713.259 474.685 712.582C474.226 706.333 480.584 674.694 482.181 667.817Z"/><path fill="#FEFFFF" d="M521.777 765.742C527.457 766.177 532.146 766.657 537.844 766.362C538.764 772.012 539.419 774.955 544.569 778.698C551.781 783.749 561.608 784.914 570.079 783.454C576.29 782.383 580.79 780.208 584.575 775.155C587.624 771.084 588.874 770.651 593.582 773.725L593.93 774.583C591.793 776.438 590.415 776.368 588.63 778.765C588.301 780.54 588.312 780.926 588.283 782.674C586.363 784.27 581.728 785.303 579.065 786.614C563.181 794.432 543.166 799.287 532.077 814.058C529.854 816.879 524.976 823.487 524.404 826.973C519.965 827.983 503.875 827.282 498.315 827.505C495.881 826.914 493.4 820.039 491.353 817.117C484.06 806.708 474.153 803.59 465.391 797.473L464.713 796.992C467.848 793.085 475.864 788.99 480.384 786.913C482.306 788.988 485.392 793.076 487.302 794.354C489.763 794.188 489.67 792.236 490.723 792.568C500.298 795.583 514.108 803.237 523.019 806.574C523.898 804.01 524.752 801.612 525.448 798.985L533 801.334C533.923 799.197 535.13 796.158 536.217 794.185C528.157 790.479 520.047 786.491 511.925 783.004C515.624 781.207 521.28 778.661 524.652 776.597C522.27 773.578 520.79 771.899 518.095 769.157C519.156 768.124 520.647 766.583 521.777 765.742Z"/><path fill="#FEFFFF" d="M733.004 453.085L733.411 453.249C734.373 455.01 733.894 471.802 733.852 474.73C726.405 474.76 715.149 474.733 719.513 486.135L719.745 486.729C712.984 487.592 703.221 484.99 698.013 487.7C690.87 490.537 697.784 498.924 697.333 499.951C694.717 505.901 692.669 503.969 697.203 512.281C696.93 514.516 696.354 514.857 695.306 516.875C692.9 521.51 698.885 523.389 699.722 525.685C699.171 526.604 698.947 527.37 697.715 527.519C692.487 528.15 676.358 527.582 672.429 525.142L672.567 524.273L674.543 522.884C679.996 518.828 675.149 516.022 674.74 511.839C674.735 511.791 677.827 508.304 677.85 505.865C677.888 501.607 675.788 502.57 674.66 499.562C679.995 494.068 678.866 493.625 675.34 488.198C674.266 486.546 677.948 483.731 678.03 482.26C678.382 475.997 673.983 474.898 669.583 474.325C669.363 467.53 669.466 460.365 669.467 453.537C684.749 457.643 717.635 457.548 733.004 453.085Z"/><path fill="#FE6D4F" d="M569.708 720.535C595.969 720.95 623.146 720.538 649.536 720.646C635.736 729.539 635.695 744.873 649.698 753.571L650.838 754.136C650.052 754.586 572.105 754.326 563.844 754.389C565.909 745.054 567.89 730.565 569.708 720.535Z"/><path fill="#FE6D4F" d="M392.127 720.75C403.071 720.411 414.453 720.679 425.455 720.548C432.893 720.579 439.891 720.235 447.323 721.055C461.05 722.569 466.496 739.694 457.05 749.283C451.412 755.005 444.025 754.518 436.625 754.417C416.458 754.295 396.29 754.325 376.123 754.506C386.764 749.33 391.904 737.618 384.573 727.35C382.352 724.239 380.445 722.967 377.432 720.755L392.127 720.75Z"/><path fill="#FEFFFF" d="M380.768 487.893C391.249 494.717 403.861 500.971 413.335 508.054C417.221 510.96 444.761 550.094 424.938 546.685C420.808 545.975 410.579 508.95 401.676 513.13C402.227 514.051 405.998 516.525 407.508 518.233C411.91 523.211 432.762 560.709 411.64 553.825C405.584 547.863 407.626 528.197 393.891 519.35C394.955 522.067 398.326 525.225 400.004 528.029C404.04 534.859 405.288 542.406 407.554 549.993C409.33 552.859 407.444 561.269 402.71 560.586C393.394 559.241 395.546 538.43 389.501 531.516C382.801 523.855 378.878 526.279 370.594 522.65C365.95 520.615 363.208 518.312 359.894 515.665C364.547 508.011 374.873 495.386 380.768 487.893Z"/><path fill="#D4D3D3" d="M490.716 714.543L541.834 714.498C549.764 714.493 562.425 714.094 569.873 715.018C567.694 724.235 566.256 730.721 564.539 740.114L563.37 746.486L497.704 746.603C496.905 740.042 492.336 721.84 490.716 714.543Z"/><path fill="#FEFFFF" d="M593.063 777.005C611.522 776.759 606.621 775.359 611.996 788.461C616.446 799.306 640.759 794.277 647.191 786.813C651.1 783.569 652.971 777.447 657.396 777.483C660.127 779.218 659.606 780.659 659.835 783.702C658.525 785.243 654.027 786.472 651.69 787.657C630.298 798.508 606.127 802.259 597.304 827.399L525.444 827.398C527.116 822.827 530.092 818.887 532.932 814.981C538.919 808.017 544.878 803.464 553.184 799.664C555.246 802.025 557.167 804.466 559.124 806.914L564.282 804.973C575.154 810.347 586.124 815.522 597.184 820.495L600.006 812.946C595.324 809.787 576.192 801.078 575.027 799.231L579.552 797.147C587.848 798.69 600.125 806.366 608.387 809.537C609.887 806.362 610.728 804.314 611.903 801.004C604.835 798.306 598.873 795.37 592.022 792.303C594.142 790.878 594.154 791.33 595.135 789.355C594.768 783.987 585.115 781.848 593.063 777.005Z"/><path fill="#FEFFFF" d="M303.808 755.896L357.84 755.928L357.883 777.265C351.042 776.872 346.339 776.462 345.844 784.61C345.287 792.912 334.78 795.46 327.968 795.935C319.25 796.543 310.341 795.355 303.495 789.506C303.98 778.737 303.578 766.87 303.808 755.896Z"/><path fill="#FEFFFF" d="M389.554 795.152C397.588 794.554 406.871 794.52 409.746 785.862C410.193 784.637 411.404 781.838 412.722 781.399C416.485 780.147 431.515 778.742 433.26 783.111C432.368 784.957 428.825 788.628 427.256 790.364L432.827 792.61C427.519 794.58 422.267 796.698 417.078 798.962C418.12 801.767 419.442 804.355 420.75 807.043C426.456 805.123 439.558 798.202 444.351 798.443L448.648 801.211C445.175 803.901 430.77 809.372 425.827 811.353C426.719 815.176 427.263 816.778 429.139 820.372C436.64 815.712 451.133 811.959 459.535 806.723C461.225 807.385 463.086 808.065 464.726 808.806C466.571 806.64 468.543 804.169 470.609 802.254C480.626 806.596 491.26 816.784 495.154 827.089L449.053 826.998C445.785 827.005 432.313 826.84 429.674 827.501C427.878 825.507 425.192 820.309 422.865 817.526C412.682 805.342 403.379 801.418 389.554 795.152Z"/><path fill="#FEFFFF" d="M670.464 755.932L723.115 755.955L723.241 789.761C722.254 790.722 721.009 791.751 719.952 792.668C710.737 797.346 693.739 797.328 685.659 790.667C677.21 783.702 689.165 775.112 670.461 776.887L670.464 755.932Z"/><path fill="#FEFFFF" d="M362.927 756.001C379.441 756.23 396.391 755.904 412.957 755.882C412.99 762.173 413.109 772.305 412.808 778.889C412.777 779.559 410.916 779.986 410.628 780.593C409.28 783.432 408.938 785.19 407.211 787.964C401.792 793.573 391.353 795.452 384.253 792.503C378.699 790.196 373.078 787.448 368.034 784.179C366.804 778.788 367.608 779.031 362.864 776.734C362.839 769.977 362.788 762.733 362.927 756.001Z"/><path fill="#FEFFFF" d="M603.242 755.913L652.292 756.011L652.488 777.367C649.988 781.757 649.434 782.835 645.494 786.208C640.508 789.662 634.996 792.471 628.999 793.429C621.087 794.634 611.275 790.225 611.14 781.247C611.062 776.041 607.208 775.872 603.232 775.375L603.242 755.913Z"/><path fill="#FEFFFF" d="M533.89 747.992L563.408 747.949L562.057 756.211C568.702 755.695 578.258 755.915 585.123 755.882C585.175 761.445 585.375 767.459 584.874 772.962C583.947 774.388 583.026 775.38 581.919 776.652C571.224 785.149 552.461 784.635 542.431 775.084C540.232 772.991 540.25 768.645 538.841 765.616C537.645 764.664 535.546 764.901 533.886 764.882L533.89 747.992Z"/><path fill="#FEFFFF" d="M459.843 748.432C460.852 749.942 460.457 772.62 460.046 775.753C459.049 783.353 450.134 786.399 443.696 787.327C439.269 785.414 435.502 784.059 433.34 780.131C432.471 778.551 425.743 778.875 423.787 778.858C420.638 778.881 417.488 778.938 414.339 779.032L414.476 755.822C423.332 755.726 432.336 755.896 441.188 755.797C450.733 755.689 453.161 755.268 459.843 748.432Z"/><path fill="#FE6D4F" d="M642.818 370.891L643.21 371.328C643.294 374.698 641.136 384.564 640.613 388.409C638.316 405.306 632.828 425.731 631.305 442.465L599.08 442.5L598.761 441.89C601.022 440.413 605.843 437.186 607.294 435.145C612.733 427.5 616.913 417.939 621.46 409.656C628.57 396.704 635.687 383.806 642.818 370.891Z"/><path fill="#FEFFFF" d="M491.489 405.918C493.62 408.422 505.185 437.209 507.585 442.455L471.75 442.504L454.875 442.453C464.019 437.113 482.992 414.931 491.489 405.918Z"/><path fill="#179373" d="M563.69 590.241C572.322 590.191 581.78 589.985 590.329 590.16C588.943 597.926 587.872 605.728 586.574 613.51C586.202 615.74 586.635 616.227 584.125 616.07C577.151 616.01 570.176 615.997 563.202 616.03C560.856 607.571 558.916 598.86 556.272 590.507C558.857 590.358 561.101 590.275 563.69 590.241Z"/><path fill="#FEFFFF" d="M429.714 828.674C449.584 827.677 477.653 828.465 497.901 828.558C499.447 832.402 500.103 834.021 500.142 838.315C479.447 839.021 453.206 838.325 432.313 838.261C431.588 834.031 431.227 832.657 429.714 828.674Z"/><path fill="#FEFFFF" d="M941.563 443.987L965.149 444.005C965.215 448.369 965.597 463.988 965.097 469.041C965.041 469.607 962.372 469.42 961.625 469.409C953.229 469.372 944.511 469.436 936.147 469.282C936.657 466.472 937.285 463.776 937.879 460.994L938.869 456.493L939.369 454.244L939.912 451.744L940.898 446.995C941.122 445.893 941.293 445.081 941.563 443.987Z"/><path fill="#FEFFFF" d="M563.584 617.494C570.982 617.385 578.381 617.38 585.779 617.479C583.685 631.96 580.715 646.432 578.71 660.877C578.289 663.128 577.992 665.839 577.637 668.146C572.561 651.781 567.916 634.092 563.584 617.494Z"/><path fill="#FEFFFF" d="M470.162 773.629C478.732 772.34 486.373 774.776 493.367 779.542C482.836 785.041 477.839 784.948 467.676 792.448C465.881 793.782 464.391 794.791 462.54 796.018C456.889 793.82 451.606 791.221 446.204 788.513C455.057 786.579 458.418 784.138 461.827 775.64C464.865 774.674 467.066 774.166 470.162 773.629Z"/><path fill="#D4D3D3" d="M450.725 714.577L477.291 714.476C477.072 715.384 476.789 716.36 476.601 717.255L473.597 731.506C472.831 735.31 472.154 739.131 471.378 742.933C471.306 743.53 471.017 746.13 470.599 746.253C468.968 746.735 463.27 746.487 461.585 746.483C464.754 734.33 463.576 726.564 451.231 720.065C450.585 719.725 450.738 715.274 450.725 714.577Z"/><path fill="#FEFFFF" d="M645.393 488.232C654.228 488.232 663.667 488.132 672.512 488.475C673.635 488.573 675.034 489.607 675.577 490.488C677.182 493.091 677.126 496.564 674.002 497.979C673.483 498.214 673.239 498.412 672.755 498.687C664.163 499.087 654.395 498.799 645.756 498.787C642.139 498.782 639.931 491.704 645.393 488.232Z"/><path fill="#FEFFFF" d="M645.245 476.079C650.263 475.867 671.751 474.742 674.566 477.222C675.792 478.302 676.423 479.628 676.499 481.256C676.599 483.405 674.703 485.218 673.304 486.578C664.367 486.573 655.422 486.498 646.485 486.505C643.479 486.508 641.89 483.454 642.108 480.748C642.299 478.385 643.486 477.433 645.245 476.079Z"/><path fill="#FEFFFF" d="M645.855 500.576C654.386 500.453 663.924 500.391 672.381 500.673C675.305 500.771 678.729 508.256 672.414 510.976C663.807 511.26 655.096 511.058 646.486 511.082C643.821 511.09 641.703 507.482 642.185 505.036C642.666 502.603 643.969 501.976 645.855 500.576Z"/><path fill="#FEFFFF" d="M646.621 512.638C654.531 512.592 663.754 512.507 671.722 512.714C674.067 512.774 676.076 517.103 675.251 519.385C674.444 521.616 673.284 522.088 671.185 523.234C665.79 523.642 652.75 523.775 647.383 523.216C641.861 522.642 639.979 516.377 646.621 512.638Z"/><path fill="#FEFFFF" d="M653.737 755.963C658.814 756.017 663.893 756.023 668.971 755.98C668.992 758.884 669.612 775.92 668.399 776.987C657.853 777.099 663.501 778.423 653.932 775.079C653.718 774.53 653.687 757.598 653.737 755.963Z"/><path fill="#FEFFFF" d="M692.009 447.233C705.321 446.901 721.63 446.5 734.019 451.247C725.497 454.123 721.215 453.017 712.379 452.491C698.41 452.173 681.259 454.693 668.887 451.663C676.302 447.933 683.918 447.586 692.009 447.233Z"/><path fill="#FEFFFF" d="M586.563 755.818L601.788 755.78L601.84 775.457C597.22 775.61 597.083 776.437 595.256 773.394C593.786 770.945 589.323 770.518 586.597 770.222L586.563 755.818Z"/><path fill="#FEFFFF" d="M296.5 367.207L297.477 367.765C298.376 369.676 314.625 483.933 314.586 490.716C312.13 488.415 306.094 438.867 305.146 432.136L299.42 390.664C298.457 383.554 296.954 374.24 296.5 367.207Z"/><path fill="#FEFFFF" d="M501.583 788.329C502.407 788.324 521.266 797.438 524.161 798.558C523.46 800.892 523.012 802.593 522.18 804.939C520.702 804.281 519.121 803.445 517.627 802.738C515.096 801.627 511.74 800.264 509.432 799.022C507.63 798.052 492.713 792.572 493.74 791.068C495.052 789.146 498.721 789.301 500.681 788.639L501.583 788.329Z"/><path fill="#FEFFFF" d="M509.614 783.624C510.307 784.005 510.546 784.19 511.258 784.432C518.671 786.951 525.511 790.852 532.505 793.964L534.286 794.765C532.413 798.53 533.152 799.959 529.41 798.845C519.575 795.549 511.597 791.29 502.403 786.625C504.988 785.672 507.102 784.762 509.614 783.624Z"/><path fill="#FEFFFF" d="M731.133 367.839L731.85 368.766C731.955 372.314 727.844 395.243 726.983 399.761C724.083 414.974 722.084 431.777 718.951 446.767C715.992 444.408 728.964 383.505 729.448 375.122C729.549 373.362 730.408 369.506 731.133 367.839Z"/><path fill="#FEFFFF" d="M719.966 597.255C725.444 597.194 730.849 597.244 736.336 597.136C733.698 599.528 731.575 601.218 729.032 603.8C726.896 606.473 725.446 608.411 723.478 611.219C723.136 609.979 722.745 608.753 722.42 607.508L722.194 606.699C721.518 604.218 720.143 599.642 719.966 597.255Z"/><path fill="#148A71" d="M291.295 597.425C295.477 597.112 302.64 597.234 306.962 597.288C306.534 599.186 306.02 601.143 305.612 603.006C305.262 604.644 304.874 606.274 304.449 607.895C304.281 608.424 304.114 609.753 303.49 609.969C302.918 609.773 302.018 608.325 301.675 607.815C298.85 603.608 295.2 600.578 291.295 597.425Z"/><path fill="#FEFFFF" d="M487.539 784.035C488.998 785.006 492.194 788.022 493.828 789.387C491.821 790.358 489.84 791.385 487.89 792.466C486.519 792.376 483.288 787.828 481.84 786.245C483.721 785.473 485.637 784.806 487.539 784.035Z"/><path fill="#FEFFFF" d="M509.398 773.939L509.887 774.244C512.75 776.003 513.688 777.047 516.129 779.389C514.152 780.331 512.252 781.145 510.287 782.061C508.187 781.597 505.421 777.986 504.178 776.304L509.398 773.939Z"/><path fill="#FEFFFF" d="M359.442 755.611C359.605 755.659 361.373 756.093 361.368 756.333C361.264 761.145 362.387 773.495 360.964 777.709C360.58 777.576 359.32 777.166 359.296 776.851C358.972 772.598 359.031 758.812 359.442 755.611Z"/><path fill="#FEFFFF" d="M458.502 804.258C460.109 802.092 461.886 798.804 463.997 798.266C466.037 799.775 467.447 800.145 469.458 801.699C467.377 803.44 465.919 805.137 464.014 807.048C462.133 806.109 460.367 805.238 458.502 804.258Z"/><path fill="#FEFFFF" d="M502.53 776.991C502.494 776.968 507.604 782.2 508.171 782.738C505.723 783.728 504.199 784.368 501.638 785.102C499.543 783.446 498.129 781.889 496.271 780.034C498.269 779.137 500.623 778.013 502.53 776.991Z"/><path fill="#FEFFFF" d="M567.359 793.463C569.319 794.011 571.226 797.249 572.554 799.03C570.421 800.166 568.871 800.889 566.665 801.827C564.96 800.037 563.171 797.91 561.51 796.025C563.574 795.177 565.346 794.383 567.359 793.463Z"/><path fill="#FEFFFF" d="M652.264 788.98C654.452 789.235 656.378 791.163 657.247 793.041C658.308 795.332 653.358 796.325 652.165 796.612C651.138 796.992 648.056 792.888 646.872 791.746C648.764 790.803 650.397 790.031 652.264 788.98Z"/><path fill="#FEFFFF" d="M448.718 791.672C450.804 792.662 452.931 793.471 455.046 794.408C453.747 795.867 450.963 799.097 449.436 800.131C447.605 799.084 446.819 798.629 444.855 797.881C444.283 795.778 447.295 793.284 448.718 791.672Z"/><path fill="#FEFFFF" d="M582.092 786.959C583.55 787.183 583.659 787.847 584.496 788.992C587.906 793.655 587.72 792.734 581.935 795.021C579.88 793.176 578.168 791.395 576.234 789.434C578.195 788.614 580.145 787.815 582.092 786.959Z"/><path fill="#FEFFFF" d="M516.321 770.433C518.516 770.805 520.859 774.445 522.388 776.316C520.842 777.12 519.334 777.885 517.739 778.589C515.528 776.702 513.435 775.004 511.196 773.172C513.173 772.237 514.44 771.615 516.321 770.433Z"/><path fill="#FEFFFF" d="M374.205 789.844C375.556 790.094 378.842 791.731 380.165 792.372C378.762 794.296 377.473 795.863 376.048 797.724C373.632 797.011 371.755 795.864 369.517 794.78C371.303 793.028 372.556 791.725 374.205 789.844Z"/><path fill="#FEFFFF" d="M644.419 792.987C646.953 793.048 648.775 795.82 650.327 797.655C647.952 799.033 647.722 799.224 645.136 800.28C643.426 799.623 640.792 796.529 639.261 795.04C641.044 794.364 642.659 793.695 644.419 792.987Z"/><path fill="#FEFFFF" d="M559.276 796.928C561.199 797.06 564.758 801.902 564.887 802.695C564.969 803.199 561.452 804.228 560.714 804.49C557.816 804.624 557.192 801.494 555.355 799.573C554.329 798.501 558.546 797.253 559.276 796.928Z"/><path fill="#FEFFFF" d="M441.342 788.313C443.828 789.035 445.063 789.602 447.343 790.537C445.525 792.6 444.402 794.091 442.724 796.247C440.829 795.725 438.679 794.634 436.88 793.757C438.421 791.813 439.678 790.187 441.342 788.313Z"/><path fill="#FEFFFF" d="M569.545 792.503C571.385 791.565 573.012 790.831 574.913 790.03C576.366 791.59 578.402 793.639 579.224 795.609C577.824 796.744 575.7 797.619 574.035 798.458C572.494 796.539 571.185 794.511 569.545 792.503Z"/><path fill="#FEFFFF" d="M434.933 784.512C436.626 785.498 438.336 786.455 440.062 787.382C438.22 789.479 436.689 791.102 434.703 793.046C432.737 791.648 431.763 791.195 429.749 789.98C431.507 788.156 433.223 786.383 434.933 784.512Z"/><path fill="#FEFFFF" d="M494.808 780.582C495.615 781.221 496.057 781.743 496.736 782.541C500.001 786.379 500.809 786.633 494.984 788.356C492.168 786.376 491.608 785.854 489.166 783.443C491.07 782.472 492.929 781.643 494.808 780.582Z"/><path fill="#FEFFFF" d="M630.334 798.96C632.56 800.726 633.846 802.433 635.735 804.505C634.021 805.546 632.504 806.384 630.75 807.338C628.517 804.434 627.759 803.604 625.24 801.074C626.99 800.377 628.605 799.701 630.334 798.96Z"/><path fill="#FEFFFF" d="M381.787 793.332C382.976 793.698 386.261 795.181 387.824 795.773C386.252 797.493 384.927 798.979 383.441 800.769C381.483 801.187 379.35 799.521 377.484 798.458C379.051 796.543 380.084 795.187 381.787 793.332Z"/><path fill="#FEFFFF" d="M637.258 796.002C638.812 796.28 641.544 799.4 642.723 800.594C641.025 801.621 639.324 802.515 637.654 803.532C636.267 802.822 633.288 799.474 631.991 798.153C633.805 797.387 635.396 796.842 637.258 796.002Z"/><path fill="#FEFFFF" d="M456.474 795.304C458.248 796.016 459.991 796.81 461.766 797.525C460.035 799.923 459.101 801.088 457.081 803.199C455.406 802.571 453.24 801.469 451.62 800.65C453.263 798.825 454.767 797.083 456.474 795.304Z"/><path fill="#FEFFFF" d="M660.536 785.51C662.193 787.159 663.401 788.989 664.845 790.816C663.582 791.443 662.37 792.19 661.013 792.599L659.337 793.096C657.511 791.258 656.594 789.754 654.505 787.674C656.525 786.94 658.487 786.179 660.536 785.51Z"/><path fill="#FEFFFF" d="M586.413 784.445C590.897 784.145 589.577 784.467 593.062 788.009C594.526 789.498 591.898 790.429 590.825 791.116C587.483 791.92 584.657 787.869 584.522 785.999C584.81 785.525 585.382 785.248 585.828 784.944L586.413 784.445Z"/><path fill="#FEFFFF" d="M389.11 796.772C390.981 797.528 392.806 798.343 394.583 799.301C393.076 801.133 392.136 802.321 390.745 804.239C389.209 804.762 386.583 802.636 385.05 801.778C386.435 799.959 387.643 798.527 389.11 796.772Z"/><path fill="#FEFFFF" d="M396.161 800.372C397.891 800.763 399.517 801.583 401.114 802.36C399.635 804.317 398.313 806.218 396.898 808.209C395.153 807.823 393.513 806.322 392.067 805.207C393.531 803.308 394.566 802.131 396.161 800.372Z"/><path fill="#FEFFFF" d="M367.355 785.794C369.047 786.958 370.878 787.945 372.648 788.994C371.183 790.52 369.74 792.066 368.32 793.634C366.851 793.417 365.917 792.664 364.658 791.817L363.974 791.348L363.287 790.892C364.872 789.111 366.001 787.769 367.355 785.794Z"/><path fill="#D4D3D3" d="M272.134 719.09C273.308 718.311 277.534 715.399 276.231 718.577C276.123 718.839 274.047 719.062 273.015 719.616L272.134 719.09Z"/><path fill="#C7CFB7" d="M754.107 719.654C748.941 719.009 748.496 716.037 754.634 719.252L754.107 719.654Z"/><path fill="#D4D3D3" d="M930.295 500.974C930.086 502.387 930.046 502.929 930.052 504.379L928.434 504.789C928.66 503.634 928.807 502.7 928.944 501.53L930.295 500.974Z"/><path fill="#148A71" d="M734.635 850.287C734.686 850.994 734.709 851.681 734.738 852.389C734.199 852.284 732.957 852.247 732.637 851.73C732.823 851.162 734.117 850.583 734.635 850.287Z"/><path fill="#8C8F8E" d="M928.944 501.53C929.08 500.826 929.232 500.126 929.4 499.429C929.462 499.178 929.535 498.837 929.758 498.699C930.06 499.383 930.018 498.963 930.146 499.983L930.295 500.974L928.944 501.53Z"/></svg>