<?xml version="1.0" encoding="utf-8" ?><svg xmlns="http://www.w3.org/2000/svg" xmlns:xlink="http://www.w3.org/1999/xlink" width="1024" height="1024" viewBox="0 0 1024 1024"><path fill="#060606" d="M229.551 229.845C219.049 225.79 211.026 219.888 205.24 210.042C198.911 199.042 197.187 185.987 200.442 173.721C203.562 161.845 212.26 151.064 222.815 144.93C234.292 138.399 247.902 136.722 260.621 140.272C274.583 144.109 284.058 152.605 291.097 165.019C296.094 164.115 302.265 162.785 307.243 162.768C412.574 162.414 435.685 305.328 329.734 333.592C335.438 335.486 342.244 336.283 348.111 338.123C383.338 349.166 412.689 377.05 425.523 411.68C432.789 431.288 433.234 449.522 433.55 470.022L594.422 470.518C595.611 439.093 595.861 418.088 613.533 389.775C618.8 381.423 625.074 373.75 632.215 366.929C652.642 347.154 670.828 340.482 697.657 334.26L697.677 333.843C669.41 326.355 648.448 313.434 633.369 287.549C620.261 265.379 616.671 238.852 623.414 213.996C630.225 188.461 646.997 166.727 669.97 153.666C692.999 140.653 720.277 137.398 745.721 144.625C770.386 151.722 791.232 168.307 803.692 190.746C816.345 213.581 819.258 240.553 811.772 265.563C801.189 301.829 771.761 325.429 735.676 333.541C770.737 341.306 794.631 355.434 814.38 386.466C821.933 398.422 827.266 411.643 830.124 425.494C833.394 441.14 834.237 461.791 836.172 478.093C839.942 509.853 842.694 541.868 845.4 573.743L860.394 736.789C863.119 770.775 866.083 804.74 869.287 838.684C870.63 853.3 871.758 870.343 873.543 884.652L727.544 884.728C731.587 854.571 748.033 835.281 775.014 822.144L769.021 755.726C768.121 745.462 767.206 724.576 764.249 715.457C761.676 707.43 756.867 700.303 750.387 694.913C740.912 687.014 729.482 683.734 717.23 684.867C705.211 686.005 694.148 691.909 686.511 701.259C676.647 713.209 676.689 725.136 675.342 739.741C674.4 750.164 673.368 760.579 672.247 770.984C669.619 795.463 667.265 819.97 665.185 844.502C664.025 856.752 661.922 872.68 661.425 884.753L520.391 884.632C525.109 852.227 542.341 834.817 570.937 821.146C573.122 803.999 574.497 783.625 576.023 766.241L583.356 685.294L589.624 615.945C590.526 605.604 591.523 595.147 592.241 584.796C592.873 575.68 592.62 565.819 592.623 556.638C589.047 560.346 587.771 560.345 582.84 561.56C582.837 571.542 580.37 574.26 570.46 576.683C570.496 589.571 562.875 592.492 551.142 590.674C549.89 594.909 548.228 597.404 544.249 599.704C541.518 601.303 538.24 601.681 535.216 600.745C530.809 599.416 528.067 596.611 525.062 593.314C520.162 600.836 512.907 616.315 502.124 610.956C497.806 608.81 496.037 605.434 495.388 600.83C495.308 600.253 495.241 599.674 495.187 599.094C492.912 600.408 490.656 602.089 488.002 602.214C479.433 602.619 473.274 596.229 476.168 587.565L475.582 587.128C467.555 594.978 453.156 588.972 456.101 577.742L455.898 576.296C449.922 583.55 442.01 580.941 436.818 574.396C437.76 582.193 438.029 592.096 438.469 600.09L441.138 645.556L451.663 820.999C481.727 830.943 501.732 851.961 502.572 884.568C486.856 885.353 467.116 884.751 450.997 884.735L360.666 884.548L354.722 772.233L353.072 741.217C352.752 735.028 352.607 728.72 351.692 722.589C348.826 703.382 332.744 687.494 313.378 684.978C301.474 683.346 289.413 686.552 279.892 693.881C261.053 708.491 261.918 730.017 258.875 751.731C255.553 774.825 252.48 797.954 249.656 821.113C264.183 827.51 274.628 833.863 283.726 847.326C292.007 859.58 295.248 870.135 295.692 884.739C288.636 885.039 280.703 884.945 273.63 884.809C232.91 884.021 191.536 885.82 150.886 884.632L184.147 555.033L193.302 467.331C196.768 435.752 197.317 409.659 216.526 382.195C236.755 353.273 260.637 339.743 294.596 333.087C293.724 332.944 292.856 332.772 291.996 332.572C272.35 328.012 250.58 312.539 240.182 295.246C227.455 274.08 223.892 253.723 229.551 229.845Z"/><path fill="white" d="M433.791 474.121L517.336 473.504C508.377 478.612 488.793 487.076 482.168 492.747C480.479 494.193 479.169 496.161 478.638 498.331C477.862 501.507 478.378 505.627 480.153 508.402C481.671 510.775 484.093 512.149 486.813 512.718C495.805 514.6 521.726 500.664 531.445 496.942C540.654 503.392 549.205 511.382 558.031 518.405C568.045 526.373 579.65 534.439 588.967 543.064C590.123 544.134 591.002 545.325 591.276 546.906C591.697 549.341 590.63 552.516 589.094 554.41C587.844 555.953 586.207 556.721 584.232 556.804C574.655 557.21 553.264 530.354 548.487 531.93C545.438 541.973 591.383 559.135 575.195 570.846C565.19 578.084 541.816 544.057 534.648 547.466C534.536 547.963 534.124 548.936 534.523 549.339C542.069 556.976 548.348 560.747 556.702 568.165C561.023 572.002 572.375 578.644 562.516 586.24C561.174 587.274 558.117 587.589 556.549 587.209C548.855 585.435 527.474 562.688 521.842 561.91L521.076 562.381C521.19 568.052 543.407 581.891 546.801 587.026C551.774 594.553 534.044 601.272 529.784 592.334C526.696 585.855 529.975 576.67 521.806 573.804C516.737 572.212 513.552 573.651 509.622 576.461C511.75 573.019 513.333 571.095 513.137 566.749C512.873 560.874 508.368 556.066 502.274 556.481C498.099 556.765 495.694 558.438 493.035 561.593L491.797 561.532C494.193 552.327 488.274 545.563 478.753 547.113C473.734 547.93 472.054 551.695 469.534 555.537L468.94 555.327C471.023 545.505 460.212 537.993 452.737 543.44C447.03 547.597 440.491 559.227 436.701 565.436C435.882 556.984 435.917 543.206 435.653 534.297L433.791 474.121Z"/><path fill="#060606" d="M469.534 555.537C472.054 551.695 473.734 547.93 478.753 547.113C488.274 545.563 494.193 552.327 491.797 561.532C489.69 564.052 476.971 584.206 475.582 587.128C467.555 594.978 453.156 588.972 456.101 577.742L455.898 576.296C458.546 570.652 465.168 560.418 468.94 555.327L469.534 555.537Z"/><path fill="#343537" d="M455.898 576.296C458.546 570.652 465.168 560.418 468.94 555.327L469.534 555.537C469.003 556.937 468.352 557.997 467.497 559.222C463.311 565.216 459.833 571.497 456.101 577.742L455.898 576.296Z"/><path fill="#75787A" d="M491.797 561.532L493.035 561.593C488.408 568.437 481.258 581.787 476.168 587.565L475.582 587.128C476.971 584.206 489.69 564.052 491.797 561.532Z"/><path fill="#343537" d="M505.414 582.494C505.109 581.127 508.227 576.936 509.622 576.461C509.662 577.487 506.464 582.135 505.414 582.494Z"/><path fill="#A29FA3" d="M697.677 333.843C698.162 333.799 698.463 333.675 698.838 333.928C698.936 334.464 697.743 334.261 697.657 334.26L697.677 333.843Z"/><path fill="#059966" d="M187.569 564.551C212.439 564.177 238.333 564.587 263.325 564.58L432.315 564.55C434.094 591.56 435.666 618.582 437.031 645.615C439.851 689.338 442.39 733.079 444.648 776.834C416.713 776.124 387.163 776.595 359.118 776.598C358.855 766.799 357.788 756.457 357.435 746.447C356.374 729.258 357.625 715.452 346.841 700.542C339.345 690.025 327.905 682.997 315.136 681.064C301.964 679.006 288.518 682.331 277.822 690.289C259.67 703.841 258.983 721.469 256.094 742.053L251.276 776.563C223.325 777.064 194.524 776.431 166.344 776.743C166.751 768.711 168.246 757.478 169.014 749.151C171.09 726.625 173.289 704.111 175.609 681.609C179.604 642.994 182.937 603.01 187.569 564.551Z"/><path fill="white" d="M596.557 563.956L742.137 563.914C742.43 570.182 742.78 574.828 744.204 580.988C749.287 603.22 762.975 622.531 782.27 634.689C803.674 647.992 823.952 649.684 847.835 644.143C848.394 657.299 850.498 674.159 851.722 687.633C854.564 717.55 857.18 747.488 859.569 777.444C831.647 777.786 803.085 777.469 775.113 777.458C774.474 769.228 773.487 761.106 772.894 752.739C769.865 733.518 773.924 716.301 759.983 698.991C751.664 688.546 739.447 681.943 726.152 680.704C713.269 679.357 700.392 683.294 690.465 691.614C672.76 706.346 672.77 723.518 670.68 744.602C669.603 755.465 668.376 766.437 667.395 777.333L579.42 777.407C580.186 763.032 582.237 746.916 583.528 732.41L591.952 638.486C594.303 613.1 596.987 589.476 596.557 563.956Z"/><path fill="#059966" d="M597.853 470.535L831.319 470.612C831.967 482.654 841.305 557.391 839.533 560.111C810.969 560.814 779.635 560.104 750.834 560.046L596.617 559.994C596.253 530.451 598.049 500.315 597.853 470.535Z"/><path fill="#059966" d="M299.568 392.441C306.832 398.508 317.394 409.771 324.563 416.708L383.711 474.026C397.959 473.351 415.2 473.784 429.593 473.874C431.214 501.971 431.494 532.765 432.413 561.121L392.157 560.79C375.147 560.641 366.717 561.311 350.135 555.614C328.156 547.399 312.253 529.089 295.75 513.148L234.759 453.967C228.554 448.007 218.601 437.978 212.096 433.124C251.215 435.12 277.255 425.646 299.568 392.441Z"/><path fill="white" d="M312.405 336.414C342.585 336.764 371.473 348.713 393.081 369.785C412.536 388.389 424.956 413.149 428.235 439.867C429.383 449.223 429.445 460.632 429.56 470.081L417.75 470.039C408.609 469.979 394.057 469.523 385.427 470.37C367.149 450.691 345.369 432.175 326.502 412.881C318.889 405.096 309.737 396.011 301.589 388.958C312.419 369.443 313.214 358.06 312.405 336.414Z"/><path fill="white" d="M201.795 429.654C207.426 432.476 223.047 448.145 228.295 453.197L291.648 514.549C310.66 532.968 323.337 549.259 348.957 559.38L347.65 560.61C343.867 560.273 335.57 560.524 331.559 560.529L299.164 560.544C262.183 560.546 224.79 560.879 187.846 560.491C188.509 550.33 190.049 539.363 191.205 529.174C192.645 515.988 194.02 502.796 195.328 489.597L198.684 456.15C199.494 447.653 200.173 437.952 201.795 429.654Z"/><path fill="white" d="M625.609 223.525C657.795 223.003 690.586 223.967 722.952 223.624C722.864 234.433 722.872 245.243 722.974 256.052C733.98 251.335 748.41 249.267 753.576 263.621C757.886 275.594 747.488 289.427 737.377 294.945C732.851 297.415 728.909 298.471 723.762 299.352L722.875 300.127C722.298 304.119 722.543 326.186 722.528 331.442C715.11 331.464 709.684 331.472 702.245 330.339C677.908 326.486 656.113 313.085 641.691 293.105C627.242 272.996 621.45 247.936 625.609 223.525Z"/><path fill="#059966" d="M691.749 264.277C702.771 262.56 713.112 270.064 714.897 281.075C716.682 292.086 709.242 302.472 698.242 304.325C687.146 306.194 676.649 298.675 674.849 287.568C673.048 276.461 680.631 266.01 691.749 264.277Z"/><path fill="#059966" d="M662.022 234.128C670.192 233.585 678.489 236.655 682.558 244.222C683.115 245.258 686.36 251.3 681.15 250.294C680.703 250.207 679.336 246.059 678.739 245.056C675.934 240.338 671.761 238.872 666.64 237.667C662.779 237.296 660.826 237.567 657.502 239.081C652.768 241.152 649.201 244.599 648.291 249.834C648.124 250.797 644.533 250.269 644.678 249.521C646.546 239.886 652.934 235.686 662.022 234.128Z"/><path fill="white" d="M301.018 224.222C312.928 223.778 326.357 224.165 338.345 224.225C355.919 224.207 373.492 224.308 391.064 224.529C394.867 241.704 396.563 256.328 391.187 273.63C384.351 295.633 368.872 312.045 348.708 322.618C331.681 331.062 319.125 331.203 300.818 331.74C300.672 321.295 300.708 310.849 300.924 300.406C298.793 299.867 296.713 299.281 294.607 298.641C281.467 294.65 264.529 278.229 270.327 263.119C271.876 258.973 275.095 255.669 279.199 254.012C287.094 250.735 293.82 252.887 301.052 256.051C300.977 245.546 300.764 234.698 301.018 224.222Z"/><path fill="#059966" d="M329.742 264.356C340.725 262.096 351.473 269.125 353.805 280.093C356.136 291.061 349.177 301.855 338.224 304.258C327.17 306.683 316.255 299.645 313.902 288.576C311.549 277.506 318.657 266.637 329.742 264.356Z"/><path fill="#060606" d="M361.038 234.65C371.138 234.641 380.002 240.054 381.845 250.727C381.95 251.335 379.092 251.644 378.988 251.389C376.018 244.078 372.413 240.218 364.455 238.403L364.036 238.312C356.945 238.416 351.048 240.086 347.235 247.205C346.595 248.399 346.423 250.773 345.242 251.562C344.941 251.764 344.567 251.823 344.219 251.724C340.393 250.648 344.555 244.197 345.742 242.47C349.328 237.252 355.072 235.5 361.038 234.65Z"/><path fill="#059966" d="M745.977 563.807C777.245 563.647 808.514 563.684 839.783 563.92C840.696 570.189 847.669 637.893 847.045 639.566L845.874 640.077C840.933 641.512 835.86 642.441 830.731 642.849C802.109 644.911 773.251 629.511 758.423 605.105C750.285 591.71 746.963 579.268 745.977 563.807Z"/><path fill="#059966" d="M719.084 335.373C728.704 335.592 745.313 339.105 754.392 342.38C782.009 352.343 805.779 374.446 817.961 401.135C819.827 405.223 827.024 422.685 825.638 426.501L824.32 427.09C816.893 429.052 809.24 430.03 801.559 429.999C779.706 429.918 758.79 421.117 743.453 405.551C721.819 383.596 718.928 364.353 719.084 335.373Z"/><path fill="#059966" d="M298.875 336.702C300.611 336.437 306.329 336.312 308.364 336.214C308.78 343.891 309.125 350.499 307.994 358.209C304.766 380.278 292.878 400.152 274.96 413.435C257.489 426.426 235.519 431.824 214.017 428.408C209.412 428.038 206.69 427.147 202.404 425.635C207.56 406.039 213.151 391.97 226.139 375.876C244.283 353.753 270.418 339.678 298.875 336.702Z"/><path fill="#059966" d="M585.372 781.246C611.718 781.14 640.87 780.759 667.125 781.376C665.727 793.844 664.636 806.344 663.853 818.865L659.125 818.851L604.507 818.876C595.979 818.908 583.448 818.615 575.309 819.38C576.674 806.741 577.877 794.085 578.918 781.415C580.864 781.282 583.376 781.296 585.372 781.246Z"/><path fill="white" d="M359.505 780.612L444.944 780.778L447.179 819.247C437.772 817.52 423.157 818.409 413.298 818.455L361.56 818.404C361.369 806.783 360.285 792.347 359.505 780.612Z"/><path fill="white" d="M167.082 780.724C194.433 781.365 223.132 780.71 250.707 780.912C248.906 793.795 247.694 806.865 245.846 819.616C238.144 818.066 223.199 818.388 214.759 818.375L162.097 818.481C163.248 809.789 164.113 788.539 165.928 781.203L167.082 780.724Z"/><path fill="#059966" d="M775.503 781.604L859.95 781.488L862.158 804.781C862.555 808.77 863.379 815.245 863.348 818.98C841.572 819.279 819.701 818.728 797.917 818.903C791.804 818.952 785.102 818.671 779.078 819.639C777.69 810.738 775.963 790.362 775.503 781.604Z"/><path fill="#E8E9EC" d="M348.957 559.38C349.638 559.527 350.187 559.576 350.637 560.091L350.64 560.191C350.157 560.616 348.316 560.571 347.65 560.61L348.957 559.38Z"/><path fill="#059966" d="M488.832 289.238C485.845 252.119 442.517 252.575 446.086 200.562C447.048 186.533 452.578 174.121 461.639 163.449C472.697 150.428 488.476 142.335 505.503 140.949C569.682 135.845 604.84 211.256 555.786 253.664C544.188 263.692 536.105 272.394 536.087 288.799C536.251 288.822 536.416 288.842 536.58 288.867C538.776 289.195 540.95 289.857 542.153 291.897C542.874 293.12 542.876 294.67 542.576 296.021C542.192 297.754 541.32 299.166 539.705 300.013C537.542 301.147 487.64 300.94 485.097 299.694C483.906 299.11 483.011 297.997 482.595 296.747C482.075 295.184 482.117 292.915 483.132 291.545C484.395 289.841 486.917 289.602 488.832 289.238Z"/><path fill="#060606" d="M537.051 206.325C539.844 209.953 548.369 220.588 550.281 224.167C549.332 225.781 549.985 225.29 548.441 225.902C544.977 224.925 539.599 216.466 536.669 213.182C532.807 218.48 530.056 221.832 525.652 226.83C525.718 247.652 525.663 268.473 525.487 289.294C528.437 289.242 533.369 289.301 536.087 288.799C536.251 288.822 536.416 288.842 536.58 288.867C538.776 289.195 540.95 289.857 542.153 291.897C542.874 293.12 542.876 294.67 542.576 296.021C542.192 297.754 541.32 299.166 539.705 300.013C537.542 301.147 487.64 300.94 485.097 299.694C483.906 299.11 483.011 297.997 482.595 296.747C482.075 295.184 482.117 292.915 483.132 291.545C484.395 289.841 486.917 289.602 488.832 289.238C493.067 289.028 496.71 289.039 500.958 289.1C501.175 268.558 501.186 248.014 500.993 227.472C497.399 222.596 493.437 217.374 489.316 212.931C487.21 215.678 480.995 224.441 478.644 225.608C476.799 225.727 477.567 225.991 476.204 224.982C476.124 221.826 486.702 208.494 489.729 207.509C492.984 209.145 499.07 218.557 502.111 222.076C504.241 218.704 509.396 209.421 512.529 207.896C515.894 208.371 521.519 218.565 524.473 221.941C527.854 217.524 533.227 209.81 537.051 206.325Z"/><path fill="#059966" d="M513.139 213.31C513.595 213.749 520.253 222.965 521.255 224.291L521.454 289.297L514.444 289.224L505.322 289.242C505.231 267.996 504.91 246.079 505.462 224.889C507.896 220.948 510.456 217.086 513.139 213.31Z"/><path fill="#060606" d="M485.858 317.587C501.092 316.589 517.748 318.031 533.113 317.472C535.308 317.392 540.221 317.524 541.476 319.496C543.976 323.424 542.782 326.058 539.274 328.503C536.435 328.638 533.43 328.608 530.58 328.613C517.078 328.638 503.562 328.785 490.063 328.602C487.649 328.569 485.004 328.08 483.411 326.1C482.418 324.867 482.031 323.254 482.357 321.705C482.863 319.307 483.885 318.825 485.858 317.587Z"/><path fill="#060606" d="M487.154 303.675C503.339 303.331 519.674 303.67 535.866 303.66C543.046 303.656 545.541 310.95 538.456 314.523L503.947 314.526C499.121 314.525 490.827 314.939 486.452 314.079C481.846 313.174 480.009 305.534 487.154 303.675Z"/><path fill="#060606" d="M496.888 330.611C507.064 330.545 518.504 330.454 528.636 330.64C527.09 336.051 526.731 337.282 523.407 341.867C512.503 350.882 497.988 345.363 496.888 330.611Z"/></svg>