<?xml version="1.0" encoding="utf-8" ?><svg xmlns="http://www.w3.org/2000/svg" xmlns:xlink="http://www.w3.org/1999/xlink" width="1024" height="1024" viewBox="0 0 1024 1024"><path fill="white" d="M0 0L1024 0L1024 1024L0 1024L0 0Z"/><path fill="#1E201F" d="M476.852 141.778C516.853 139.343 564.996 147.116 602.305 161.89C614.872 166.866 627.056 174.835 639.989 179.696C652.751 184.492 665.581 189.215 678.263 194.207C730.643 215.03 773.11 239.46 809.225 283.946C822.655 300.489 831.114 311.878 841.821 330.904C872.37 385.876 885.481 448.838 879.413 511.434C876.062 543.919 868.375 569.272 854.186 598.767C847.583 612.494 838.907 627.398 833.244 641.309C825.042 661.461 818.755 684.15 812.418 705.053C797.867 753.057 768.333 788.995 729.673 820.362C686.879 855.111 633.917 874.951 578.825 876.873C566.567 877.195 552.281 875.903 540.12 874.626C528.957 873.496 514.492 871.587 503.594 872.894C486.886 874.897 471.119 881.104 453.922 881.348C392.783 882.214 332.17 849.917 288.229 809.436C260.759 784.129 239.686 754.662 219.181 723.847C209.259 708.937 198.462 694.51 189.275 679.452C160.345 632.038 145.951 584.903 143.845 529.461C141.614 468.646 158.802 408.7 192.918 358.307C205.573 339.868 220.298 323.636 231.872 304.868C237.697 295.421 242.124 281.273 246.213 270.601C252.46 254.299 262.047 240.385 273.993 227.717C325.151 173.462 403.414 144.412 476.852 141.778Z"/><path fill="#0D8F6A" d="M422.484 655.829C371.33 623.491 337.028 581.348 334.565 518.055C332.442 463.52 360.89 401.119 406.125 370.178C484.387 316.648 609.319 332.44 663.817 412.831C703.295 469.508 699.961 543.782 656.198 597.07C648.41 602.122 636.35 606.819 628.557 611.346C598.053 629.061 572.794 646.801 548.081 672.152C526.815 678.83 493.755 679.87 472.833 673.24C338.446 630.652 310.16 456.018 437.547 384.55C473.185 364.988 515.076 360.192 554.213 371.193C629.886 392.485 673.855 462.953 652.481 540.192C631.66 612.973 545.134 666.787 470.971 644.707C407.925 625.937 369.624 557.646 388.621 494.355C398.468 460.941 421.365 432.904 452.138 416.579C481.584 400.776 516.087 397.266 548.113 406.815C581.557 417.098 611.025 443.524 618.151 478.572C633.727 554.558 550.426 643.886 472.638 618.446C421.951 601.87 393.96 541.308 411.409 491.271C428.88 441.17 483.442 407.235 535.628 425.494C556.126 432.72 572.895 447.824 582.216 467.458C591.487 486.978 592.417 511.651 585.076 531.932C577.531 553.313 561.579 570.684 540.915 580.018C524.588 587.621 505.875 588.276 489.057 581.831C471.159 575.34 456.656 561.871 448.861 544.501C440.246 525.703 439.587 504.223 447.034 484.932C460.798 449.554 504.254 430.702 539.102 445.298C552.678 450.985 562.185 460.262 567.778 473.86C573.869 488.917 573.767 505.771 567.496 520.754C561.173 535.654 548.271 548.352 533.272 554.637C508.309 565.095 480.023 553.344 470.066 527.763C465.261 515.223 465.616 501.29 471.053 489.011C476.571 476.942 486.604 467.518 498.996 462.767C528.065 451.783 566.615 470.574 549.294 505.262C545.9 487.174 537.251 474.033 517.245 472.931C507.976 472.378 498.878 475.598 492.021 481.858C485.277 488.005 481.274 496.595 480.904 505.713C480.197 524.181 495.65 542.207 514.699 542.39C527.615 542.514 539.564 535.148 545.304 523.435C547.079 519.813 547.795 514.996 549.783 511.459C551.767 507.927 554.81 504.776 556.281 500.913C564.893 472.962 542.802 455.177 516.33 455.143C501.887 455.209 488.05 460.956 477.81 471.143C457.015 491.971 456.919 527.835 478.156 548.39C488.221 558.023 501.724 563.223 515.65 562.832C537.459 562.25 556.26 548.693 567.637 530.606C574.256 520.084 577.135 505.584 576.668 493.273C576.193 477.433 569.289 462.469 557.546 451.828C544.783 440.204 526.244 435.098 509.246 436.053C488.756 437.186 469.578 446.497 456.014 461.898C442.612 477.024 435.829 496.89 437.183 517.055C438.5 537.82 447.843 558.279 463.606 572.034C478.682 585.128 498.326 591.726 518.249 590.386C539.81 588.907 559.117 577.549 573.089 561.404C588.427 543.635 596.038 520.48 594.233 497.077C592.342 473.43 582.052 451.489 563.609 436.433C519.947 400.792 460.523 414.304 426.474 455.574C408.162 477.324 399.441 505.564 402.299 533.852C405.004 562.31 419.049 588.482 441.269 606.467C461.709 622.999 486.989 629.658 512.817 626.384C603.472 614.892 670.154 484.797 585.93 421.152C530.41 379.196 448.616 393.979 407.367 448.481C385.908 476.835 375.556 509.241 380.338 544.844C385.141 578.259 402.933 608.43 429.85 628.804C495.663 678.284 586.662 649.831 633.382 588.485C679.859 527.46 669.921 437.243 606.944 391.363C572.017 366.239 528.524 356.054 486.073 363.059C441.802 370.165 404.986 394.874 379.019 430.971C355.642 463.867 346.238 504.678 352.86 544.487C360.654 591.195 386.961 628.377 425.057 655.403L422.484 655.829Z"/><path fill="white" d="M668.828 209.705C687.952 207.011 716.64 216.899 733.188 226.527C839.246 288.242 895.22 422.214 868.709 541.419C860.553 578.091 843.838 603.992 806.433 614.294C797.427 616.517 791.367 617.153 782.203 616.957C768.58 606.339 749.18 595.373 733.022 589.62C706.025 554.427 702.73 520.643 700.322 478.204C698.833 451.966 690.167 425.538 677.279 402.653C666.218 383.212 651.785 365.894 634.655 351.512C629.558 347.168 620.241 342.091 616.682 337.198C605.955 322.452 599.131 297.376 602.753 279.312C603.388 276.149 607.625 267.765 609.036 264.388C612.949 255.022 613.951 248.085 615.179 238.3L615.661 237.709C629.855 220.466 646.865 211.923 668.828 209.705Z"/><path fill="#1E201F" d="M681.98 231.201C699.738 229.025 720.067 234.533 735.956 242.148C789.035 267.588 827.596 327.673 846.622 381.556C860.753 421.574 868.601 461.939 863.992 504.385C862.314 519.839 859.109 535.145 852.306 549.225C842.436 569.649 827.741 585.162 806.124 592.704C751.88 608.288 719.981 546.098 714.463 501.476C709.965 465.109 711.714 427.656 692.828 394.765C680.695 373.634 662.543 360.829 645.668 344.185C623.135 320.253 617.59 278.666 639.04 252.266C650.102 238.649 664.961 232.875 681.98 231.201Z"/><path fill="white" d="M679.913 235.691C695.236 233.911 711.782 237.134 726.079 242.617C777.599 262.376 813.664 316.241 835.172 364.647C854 407.021 864.393 454.847 859.88 501.227C858.596 514.427 856.216 527.681 851.392 540.078C843.338 560.774 829.26 578.092 808.674 587.164C805.169 588.458 801.674 589.526 797.977 590.128C784.39 592.341 770.66 588.592 759.6 580.484C750.547 573.848 743.284 564.745 737.4 555.265C704.86 502.832 726.903 445.28 696.608 392.993C690.795 382.947 683.62 373.753 675.286 365.675C655.075 345.967 635.454 334.898 630.943 303.995C628.535 287.499 631.293 269.86 641.537 256.352C651.071 243.782 664.577 237.728 679.913 235.691Z"/><path fill="#1E201F" d="M697.296 252.673C714.898 249.55 737.894 258.048 752.806 266.784C762.779 272.627 771.472 279.877 779.264 288.401C808.22 320.078 835.085 378.986 845.939 420.239C854.866 454.17 858.957 495.256 840.423 526.643C832.147 540.659 821.153 549.621 805.374 553.726C804.59 553.905 803.822 554.066 803.028 554.198C787.756 556.741 774.349 552.322 762.022 543.284C713.549 507.742 728.87 439.411 702.435 391.383C699.273 385.637 695.677 380.189 691.219 375.36C685.833 369.526 679.505 364.65 673.564 359.409C660.701 348.064 651.653 334.552 649.101 317.356C646.832 302.062 649.202 286.038 658.709 273.516C668.435 260.703 681.678 254.798 697.296 252.673Z"/><path fill="white" d="M700.686 256.708C717.42 255.117 737.547 262.415 751.619 270.978C761.336 276.89 770.167 284.574 777.701 293.075C806.262 325.306 832.872 384.716 842.869 426.607C850.406 458.189 853.903 496.824 836.004 525.514C827.815 538.639 816.755 546.648 801.747 550.127C801.332 550.191 800.916 550.247 800.499 550.291C785.498 551.883 773.466 546.996 761.899 537.608C741.72 521.232 732.578 496.038 727.995 471.194C726.453 462.835 725.543 454.368 724.009 446.005C720.722 428.082 716.04 408.788 707.861 392.391C703.988 384.627 699.26 377.454 693.277 371.154C674.87 351.772 656.131 344.517 653.067 313.744C651.693 299.94 654.293 285.744 663.274 274.81C672.844 263.159 686.019 258.067 700.686 256.708Z"/><path fill="#1E201F" d="M709.44 270.198C728.251 267.839 750.12 275.649 765.091 286.72C774.677 293.808 782.644 303.456 788.643 313.71C798.499 330.558 803.929 349.655 810.852 367.794C821.924 396.803 836.085 425.745 840.636 456.745C843.639 477.2 840.504 499.414 827.798 516.304C820.669 525.781 811.403 530.775 799.783 532.425C786.714 532.772 773.917 528.65 763.506 520.741C737.866 501.242 742.142 466.611 737.456 438.201C735.121 424.047 730.28 409.293 722.795 397.003C705.292 368.262 672.369 357.158 667.516 318.752C666.115 307.663 668.666 295.502 675.7 286.628C683.983 276.179 696.571 271.6 709.44 270.198Z"/><path fill="#0D8F6A" d="M714.952 274.211C736.453 274.776 755.247 282.086 770.672 297.323C777.751 304.315 783.382 312.456 787.99 321.253C795.271 335.154 799.661 350.209 805.279 364.798C817.296 396.007 837.615 438.812 837.529 471.674C837.487 487.994 831.97 506.652 820.067 518.329C812.628 525.626 804.504 528.218 794.196 528.082C783.071 526.731 772.072 522.32 763.583 514.903C759.04 510.935 754.719 505.867 752.015 500.451C743.841 484.078 745.101 457.194 742.091 438.629C739.545 422.927 733.81 406.238 725.398 392.721C707.648 364.196 674.007 354.002 671.639 314.24C671.077 304.807 674.067 294.855 680.48 287.792C689.481 277.878 702.073 274.834 714.952 274.211Z"/><path fill="#1E201F" d="M754.511 325.676C763.639 324.556 772.246 327.628 779.539 332.989C791.543 341.813 801.178 357.237 803.292 372.044C804.902 383.326 802.265 395.795 795.27 404.917C788.82 413.329 780.431 417.122 770.125 418.446C760.077 418.143 751.049 415.004 742.858 409.145C730.953 400.537 722.923 387.583 720.508 373.093C718.69 361.694 720.696 349.469 727.66 340.063C734.315 331.075 743.776 327.332 754.511 325.676Z"/><path fill="#0D8F6A" d="M752.842 330.13C761.205 329.178 768.725 330.861 775.771 335.452C787.263 342.939 796.028 356.295 798.691 369.709C800.79 380.288 799.243 392.264 793.039 401.278C787.709 409.023 780.14 412.802 771.119 414.417C762.165 414.907 753.365 411.378 746.052 406.432C734.898 398.828 727.253 387.074 724.824 373.794C722.861 363.386 724.306 351.981 730.447 343.15C735.976 335.201 743.58 331.76 752.842 330.13Z"/><path fill="#1E201F" d="M756.463 343.177C764.615 342.41 772.523 343.524 779.481 348.099C786.36 352.671 791.151 359.779 792.809 367.871C794.373 375.62 792.509 383.849 788.123 390.384C783.214 397.698 776.141 401.779 767.626 403.494C759.176 403.812 752.09 402.379 745.159 397.307C737.528 391.723 732.345 382.842 730.999 373.5C730.014 366.656 731.508 359.689 735.78 354.18C740.822 347.679 748.49 344.296 756.463 343.177Z"/><path fill="#0D8F6A" d="M756.315 347.099C762.81 346.603 768.631 346.752 774.62 349.813C781.282 353.295 786.266 359.308 788.451 366.5C790.441 372.951 789.665 379.939 786.309 385.797C782.27 392.934 775.728 397.358 767.938 399.458C761.464 399.971 755.618 399.406 749.872 395.986C742.7 391.717 737.208 384.092 735.213 376.007C733.719 369.947 734.208 363.594 737.64 358.263C741.982 351.518 748.834 348.676 756.315 347.099Z"/><path fill="#1E201F" d="M755.963 353.148C766.401 350.576 776.945 356.962 779.501 367.404C782.057 377.846 775.654 388.381 765.208 390.92C754.785 393.455 744.279 387.069 741.728 376.65C739.178 366.231 745.547 355.714 755.963 353.148Z"/><path fill="#0D8F6A" d="M757.241 356.79C765.634 354.886 773.988 360.123 775.933 368.506C777.878 376.89 772.683 385.269 764.308 387.255C755.876 389.255 747.426 384.016 745.467 375.574C743.509 367.132 748.79 358.707 757.241 356.79Z"/><path fill="#1E201F" d="M759.846 362.937C765.032 362.306 769.753 365.986 770.407 371.17C771.06 376.353 767.4 381.09 762.219 381.765C757.007 382.445 752.236 378.758 751.578 373.543C750.921 368.328 754.628 363.572 759.846 362.937Z"/><path fill="#0D8F6A" d="M759.614 366.756C761.625 366.231 763.762 366.837 765.198 368.339C766.635 369.842 767.144 372.004 766.53 373.989C765.915 375.975 764.274 377.471 762.24 377.9C759.197 378.541 756.199 376.636 755.486 373.61C754.773 370.583 756.605 367.541 759.614 366.756Z"/><path fill="#1E201F" d="M794.118 419.197C801.011 418.539 808.932 420.3 814.826 423.956C820.862 427.7 824.954 433.482 826.455 440.422C828.45 449.642 826.154 459.436 821.053 467.266C814.714 476.997 805.182 482.586 793.997 484.964C793.429 485.063 792.858 485.145 792.286 485.211C784.376 486.107 775.134 483.96 768.961 478.805C763.532 474.272 760.812 467.73 760.119 460.827C759.105 450.717 761.853 439.923 768.386 432.04C774.958 424.11 784.033 420.186 794.118 419.197Z"/><path fill="#0D8F6A" d="M794.263 423.194C800.856 422.8 807.95 424.206 813.478 427.935C818.343 431.217 821.642 436.088 822.73 441.865C824.287 450.137 821.797 458.822 817.083 465.66C811.031 474.439 802.443 479.127 792.111 480.965C785.214 481.785 777.673 480.646 772.055 476.31C766.942 472.365 764.52 466.372 763.774 460.12C762.68 451.272 765.194 442.356 770.749 435.382C776.793 427.824 784.789 424.187 794.263 423.194Z"/><path fill="#1E201F" d="M786.643 433.333C797.002 431.319 807.023 438.117 808.98 448.487C810.937 458.857 804.084 468.84 793.704 470.741C783.403 472.627 773.513 465.838 771.571 455.548C769.628 445.257 776.363 435.331 786.643 433.333Z"/><path fill="#0D8F6A" d="M786.983 437.236C795.123 435.467 803.149 440.656 804.876 448.805C806.604 456.953 801.375 464.953 793.218 466.639C785.118 468.314 777.188 463.13 775.473 455.039C773.757 446.949 778.901 438.993 786.983 437.236Z"/><path fill="#1E201F" d="M790.285 442.763C795.224 442.648 799.325 446.551 799.453 451.49C799.581 456.429 795.687 460.539 790.749 460.679C785.793 460.819 781.665 456.909 781.537 451.953C781.409 446.998 785.329 442.879 790.285 442.763Z"/><path fill="#0D8F6A" d="M788.993 446.732C791.739 445.913 794.628 447.483 795.434 450.233C796.241 452.982 794.658 455.864 791.905 456.658C789.169 457.447 786.31 455.876 785.509 453.144C784.707 450.412 786.265 447.546 788.993 446.732Z"/><path fill="#1E201F" d="M712.691 299.593C722.346 298.395 731.134 305.276 732.288 314.935C733.442 324.595 726.521 333.352 716.856 334.462C707.253 335.565 698.565 328.699 697.418 319.101C696.272 309.502 703.098 300.783 712.691 299.593Z"/><path fill="#0D8F6A" d="M713.525 303.588C716.408 303.655 719.393 304.135 721.903 305.646C725.028 307.526 727.689 310.879 728.421 314.503C729.199 318.352 728.024 322.718 725.707 325.829C723.202 329.193 719.771 329.89 715.866 330.425C712.786 330.165 709.951 329.582 707.235 328.016C704.211 326.274 701.742 323.16 700.92 319.755C700.084 316.295 700.88 313.16 702.797 310.186C705.393 306.159 708.986 304.522 713.525 303.588Z"/><path fill="#1E201F" d="M714.243 309.374C718.252 308.479 722.237 310.97 723.189 314.966C724.141 318.963 721.707 322.983 717.724 323.991C715.097 324.657 712.315 323.856 710.444 321.896C708.573 319.936 707.902 317.12 708.689 314.526C709.475 311.933 711.598 309.964 714.243 309.374Z"/><path fill="#0D8F6A" d="M714.223 313.382C716.04 312.48 718.244 313.192 719.19 314.987C720.135 316.781 719.476 319.002 717.705 319.99C716.521 320.651 715.071 320.618 713.919 319.904C712.766 319.19 712.09 317.908 712.153 316.554C712.216 315.199 713.009 313.985 714.223 313.382Z"/><path fill="#1E201F" d="M809.702 401.948C813.755 401.329 817.555 404.075 818.241 408.118C818.926 412.16 816.242 416.005 812.212 416.757C809.545 417.254 806.817 416.275 805.075 414.194C803.334 412.114 802.85 409.256 803.808 406.718C804.767 404.18 807.02 402.357 809.702 401.948Z"/><path fill="#0D8F6A" d="M809.486 406.323C811.389 405.567 813.545 406.498 814.3 408.401C815.056 410.305 814.126 412.46 812.223 413.216C810.319 413.972 808.163 413.042 807.407 411.138C806.651 409.234 807.582 407.078 809.486 406.323Z"/><path fill="white" d="M686.827 613.709C690.288 613.149 694.299 613.347 697.811 613.391C717.493 613.635 737.016 618.611 753.417 629.747C769.808 640.876 780.981 657.064 784.601 676.641C789.656 703.976 779.445 731.287 764.012 753.63C734.345 796.579 675.879 839.952 623.899 849.36C622.031 849.675 620.153 849.926 618.268 850.111C595.09 852.397 571.469 846.337 553.429 831.287C537.539 818.189 527.534 799.292 525.631 778.789C522.906 747.014 538.925 718.69 558.673 695.079C567.854 684.103 582.709 667.329 594.215 659.228C597.745 656.742 601.734 654.763 605.435 652.533C610.492 649.5 615.359 646.16 620.007 642.533C626.738 637.366 633.136 629.86 640.623 626.043C654.014 619.216 672.046 615.041 686.827 613.709Z"/><path fill="#1E201F" d="M691.985 626.22C712.6 626.401 731.831 632.103 747.636 645.786C760.84 657.176 768.924 673.387 770.077 690.787C771.977 719.921 757.157 746.004 738.395 767.149C710.026 799.12 663.293 830.872 619.624 833.496C619.141 833.537 618.657 833.574 618.173 833.607C598.116 834.94 578.238 829.295 563.044 815.87C549.878 804.237 541.744 788.881 540.724 771.245C539.033 742.027 557.595 717.368 576.161 696.77C598.215 672.303 628.396 644.188 659.781 632.544C670.382 628.612 680.742 626.791 691.985 626.22Z"/><path fill="white" d="M688.661 630.708C705.167 628.24 726.691 635.649 739.892 645.348C753.082 655.038 762.868 669.601 765.258 685.941C769.003 711.542 757.577 735.535 742.517 755.477C714.529 792.536 668.353 822.52 622.116 828.949C602.52 830.775 582.775 826.681 567.358 813.888C554.786 803.456 546.741 789.451 545.244 773.098C543.022 748.811 556.009 727.612 570.968 709.646C593.245 682.89 627.55 649.618 660.586 636.883C669.729 633.359 678.933 631.601 688.661 630.708Z"/><path fill="#1E201F" d="M689.45 647.699C689.613 647.68 689.774 647.656 689.937 647.642C704.118 646.366 719.228 650.916 729.967 660.322C740.785 669.798 747.573 682.914 748.375 697.333C749.708 721.313 736.304 741.481 720.884 758.53C695.619 786.463 658.692 813.312 620.046 815.205C607.178 816.145 593.408 811.61 583.373 803.617C571.55 794.199 563.387 780.669 561.696 765.539C559.943 750.558 564.376 735.509 573.972 723.871C581.772 714.259 591.546 705.833 600.826 697.698C625.35 676.2 655.791 651.15 689.45 647.699Z"/><path fill="#0D8F6A" d="M691.516 652.21C691.977 652.187 692.438 652.17 692.899 652.159C706.677 651.739 720.046 656.88 729.992 666.424C739.033 675.12 743.69 687.167 743.897 699.602C744.311 724.468 728.637 744.519 712.188 761.571C688.292 786.343 654.445 809.976 618.976 810.637C606.187 810.656 595.057 807.576 585.077 799.305C574.054 790.323 567.19 777.218 566.083 763.042C564.934 749.073 569.199 736.272 578.235 725.637C585.93 716.581 595.131 708.688 604.026 700.847C628.428 679.333 657.736 654.84 691.516 652.21Z"/><path fill="#1E201F" d="M669.261 669.682C680.108 668.793 689.731 670.611 699.516 675.452C708.381 679.838 714.708 688.198 717.735 697.481C722.497 712.087 719.812 727.257 712.845 740.657C699.583 766.165 674.017 788.528 646.546 797.12C644.641 797.543 642.72 797.892 640.788 798.166C630.723 799.575 620.148 797.198 612.049 790.962C602.989 783.988 597.857 773.051 596.48 761.867C593.908 740.97 600.13 717.609 613.185 701.046C627.658 682.684 646.178 672.466 669.261 669.682Z"/><path fill="#0D8F6A" d="M673.043 673.716C681.314 673.035 691.049 675.427 698.183 679.65C706.519 684.542 712.502 692.619 714.752 702.019C718.341 716.641 713.872 731.349 706.292 743.912C692.778 766.309 669.705 786.967 643.945 793.387C641.946 793.764 639.897 794.139 637.869 794.313C629.329 795.044 620.435 792.406 613.855 786.89C605.407 779.81 601.341 769.235 600.49 758.457C598.793 737.143 605.663 716.032 619.579 699.798C633.836 683.241 651.399 675.232 673.043 673.716Z"/><path fill="#1E201F" d="M665.774 690.681C674.072 690.107 682.325 691.433 689.515 695.813C696.107 699.828 700.634 705.999 702.453 713.526C705.499 726.13 701.172 740.232 694.43 750.915C684.713 766.311 667.523 777.898 649.902 781.971C649.536 782.045 649.168 782.114 648.798 782.168C639.821 783.472 630.313 782.485 622.931 776.742C616.439 771.693 612.928 762.881 611.903 754.893C610.112 740.942 615.588 726.012 624.1 715.096C634.392 701.898 649.101 692.735 665.774 690.681Z"/><path fill="#0D8F6A" d="M669.511 694.709C676.572 694.47 683.677 696.224 689.414 700.461C694.77 704.418 697.922 710.076 698.931 716.614C700.787 728.643 696.303 741.945 689.235 751.616C678.602 766.164 663.43 775.788 645.691 778.468C638.163 778.63 630.779 777.816 624.769 772.716C619.059 767.869 616.428 759.901 615.898 752.616C614.899 738.864 620.786 724.999 629.698 714.755C640.241 702.636 653.513 695.797 669.511 694.709Z"/><path fill="#1E201F" d="M657.869 705.598C663.712 705.221 668.872 705.495 674.229 708.096C680.346 711.065 684.554 716.348 686.709 722.736C689.355 730.748 688.641 739.49 684.731 746.967C680.444 755.286 673.39 759.621 664.713 762.356C658.867 762.982 653.908 762.909 648.491 760.14C642.394 757.025 638.125 751.61 636.039 745.135C633.535 737.357 633.796 728.393 637.699 721.123C642.059 713.004 649.278 708.271 657.869 705.598Z"/><path fill="#0D8F6A" d="M658.935 709.581C661.232 709.425 663.445 709.31 665.751 709.511C670.716 709.943 676.334 713.21 679.324 717.165C683.329 722.462 684.981 729.461 684.116 736.001C683.655 739.488 682.585 742.814 680.834 745.876C677.238 752.066 671.31 756.556 664.378 758.342L663.579 758.493C658.895 759.425 654.233 758.86 650.003 756.555C644.549 753.583 641.035 748.399 639.351 742.507C637.493 736.005 637.926 728.672 641.228 722.723C645.025 715.881 651.538 711.636 658.935 709.581Z"/><path fill="#1E201F" d="M660.849 716.615C663.455 716.552 665.884 716.79 668.279 717.929C672.194 719.791 674.977 723.202 676.28 727.314C677.878 732.357 677.009 738.143 674.429 742.704C672.426 746.245 668.761 749.492 664.752 750.503L662.431 751.085C659.236 750.923 656.867 750.654 654 749.065C650.06 746.882 647.349 743.183 646.218 738.847C645.006 734.198 645.795 729.473 648.351 725.387C651.274 720.715 655.557 717.899 660.849 716.615Z"/><path fill="#0D8F6A" d="M659.063 720.56C661.278 720.348 663.647 720.088 665.775 720.904C668.736 722.039 671.03 724.764 672.23 727.633C673.733 731.226 673.349 736.064 671.755 739.562C670.085 743.227 667.151 745.596 663.459 747.013C661.909 747.102 660.29 747.263 658.755 746.945C655.913 746.356 653.227 744.068 651.713 741.664C649.852 738.708 648.867 734.832 649.79 731.393C650.916 727.183 653.696 723.608 657.5 721.48C658.032 721.181 658.545 720.883 659.063 720.56Z"/><path fill="white" d="M471.531 163.733C509.853 163.571 558.406 171.575 576.673 210.381C597.572 254.778 553.19 290.368 513.003 296.316C499.495 298.316 485.608 297.982 472.179 300.669C455.372 304.083 425.62 315.137 414.249 328.251C399.234 345.568 391.462 355.584 370.127 365.259C356.405 371.278 342.437 372.253 327.782 369.264C317.622 357.647 309.972 349.309 295.822 341.828C291.505 339.545 282.938 337.154 280.019 334.249C270.882 324.788 266.279 309.366 265.869 296.518C264.634 257.775 291.157 232.135 320.663 211.921C366.186 180.734 416.696 165.571 471.531 163.733Z"/><path fill="#1E201F" d="M446.823 170.708C465.698 168.411 489.808 171.76 508.227 176.418C540.404 184.554 561.333 211.314 551.005 244.755C546.93 257.948 540.016 267.803 527.526 274.404C519.277 278.763 510.897 282.823 501.502 284.442C478.556 288.225 459.325 282.991 437.953 295.967C424.229 304.301 419.793 313.396 409.892 325.22C402.99 333.463 392.43 340.955 382.897 345.983C374.43 350.374 365.5 352.424 356.171 353.305C316.913 357.009 285.282 333.497 282.429 293.243C280.759 269.681 289.357 250.382 304.315 232.32C315.001 219.416 329.12 211.412 343.461 203.34C376.011 185.194 409.564 173.725 446.823 170.708Z"/><path fill="#0D8F6A" d="M478.961 182.222C492.649 181.558 519.637 185.462 530.851 192.44C552.672 206.019 553.482 236.515 540.701 256.756C532.406 271.268 510.277 276.749 494.675 276.913C478.551 277.081 464.552 271.995 447.768 276.242C436.449 279.106 428.745 282.28 421.242 292.139C405.338 313.039 401.965 326.291 374.772 332.264C342.439 336.852 304.785 324.743 303.082 287.01C302.435 271.057 308.032 255.48 318.684 243.587C330.367 230.793 353.798 215.455 370.58 210.084C394.153 202.538 418.849 193.187 442.734 186.66C453.304 183.772 468.024 182.755 478.961 182.222Z"/><path fill="#1E201F" d="M383.933 213.204C430.923 209.899 450.782 243.288 419.975 279.954C404.794 298.022 387.865 314.659 363.122 317.246C352.205 318.729 338.564 314.917 329.9 308.113C320.623 300.963 314.665 290.337 313.405 278.692C311.839 264.301 317.564 251.012 326.447 239.937C339.45 223.727 363.816 215.139 383.933 213.204Z"/><path fill="#0D8F6A" d="M384.837 217.205C395.457 215.288 413.182 219.375 421.464 226.203C438.777 240.475 428.541 262.162 417.5 276.095C402.903 294.517 387.128 310.286 362.912 313.33C352.611 314.484 340.763 311.287 332.593 304.826C324.131 298.1 318.694 288.283 317.483 277.542C316.067 264.468 321.535 252.628 329.473 242.512C342.218 226.271 364.98 219.253 384.837 217.205Z"/><path fill="#1E201F" d="M378.778 225.701C411.9 223.427 425.95 252.031 407.561 278.249C397.003 293.302 380.499 303.055 362.536 306.431C309.647 312.223 312.503 232.376 378.778 225.701Z"/><path fill="#0D8F6A" d="M377.84 229.703C385.581 228.725 394.399 230.971 401.098 235.046C416.14 244.197 412.656 263.228 404.024 275.659C394.812 288.925 380.536 298.707 364.475 301.93C315.105 310.575 317.677 236.189 377.84 229.703Z"/><path fill="#1E201F" d="M372.567 238.154C378.103 237.978 383.223 239.044 387.719 242.475C393.096 246.579 396.129 253 397.058 259.592C398.063 266.719 396.309 273.839 391.88 279.559C387.211 285.589 380.881 288.618 373.451 289.564C367.264 289.657 361.616 288.596 356.479 284.915C351.539 281.375 348.274 276.215 347.311 270.204C346.162 263.032 348.291 255.256 352.669 249.505C357.498 243.16 364.761 239.287 372.567 238.154Z"/><path fill="#0D8F6A" d="M372.027 242.122C376.438 241.756 380.69 242.561 384.373 245.147C389.584 248.806 391.953 254.103 392.879 260.253C393.743 265.991 392.151 272.698 388.49 277.238C384.191 282.568 379.294 284.984 372.626 285.846C368.562 285.73 364.786 285.135 361.24 283.016C356.338 280.089 352.892 275.605 351.639 269.995C350.401 264.456 352.1 257.773 355.144 253.101C358.52 247.92 364.153 243.64 370.287 242.446L372.027 242.122Z"/><path fill="#1E201F" d="M368.892 247.957C377.683 246.058 386.347 251.654 388.231 260.448C390.114 269.243 384.502 277.897 375.704 279.765C366.929 281.628 358.302 276.033 356.423 267.261C354.544 258.488 360.123 249.851 368.892 247.957Z"/><path fill="#0D8F6A" d="M371.389 251.082C373.102 251.076 374.554 251.146 376.197 251.675C379.233 252.632 381.714 254.841 383.015 257.746C384.598 261.325 384.641 265.397 383.135 269.008C381.752 272.323 379.345 274.7 375.998 276.004C375.795 276.083 375.587 276.149 375.385 276.227C375.077 276.346 374.774 276.474 374.468 276.597C371.422 276.608 368.913 276.717 366.207 275.064C363.206 273.23 361.481 270.321 360.692 266.96C359.885 263.525 360.842 259.336 362.725 256.406C364.794 253.184 367.798 251.905 371.389 251.082Z"/><path fill="#1E201F" d="M473.729 184.187C493.314 181.16 518.886 191.023 526.111 210.237C536.128 236.876 525.181 265.219 496.045 270.381C495.511 270.455 494.975 270.523 494.439 270.584C469.922 273.461 441.459 253.432 439.418 227.935C437.542 204.491 449.99 186.96 473.729 184.187Z"/><path fill="#0D8F6A" d="M475.852 188.212C488.552 187.71 501.097 189.737 511.409 197.822C528.077 210.891 530.194 238.371 516.815 254.485C510.539 262.044 502.412 265.848 492.708 266.734C457.732 268.853 427.994 230.208 451.108 199.334C456.778 191.761 466.862 189.059 475.852 188.212Z"/><path fill="#1E201F" d="M474.532 206.928C486.566 205.165 497.76 213.463 499.572 225.489C501.385 237.515 493.134 248.743 481.116 250.605C469.027 252.478 457.718 244.168 455.895 232.072C454.072 219.975 462.429 208.701 474.532 206.928Z"/><path fill="#0D8F6A" d="M474.652 210.859C484.476 209.137 493.849 215.661 495.647 225.471C497.444 235.28 490.993 244.704 481.197 246.577C471.294 248.47 461.745 241.932 459.928 232.015C458.111 222.099 464.722 212.6 474.652 210.859Z"/><path fill="#1E201F" d="M473.783 217.329C480 215.219 486.747 218.576 488.813 224.808C490.88 231.04 487.475 237.763 481.228 239.785C475.044 241.787 468.403 238.424 466.357 232.254C464.311 226.084 467.628 219.419 473.783 217.329Z"/><path fill="#0D8F6A" d="M475.365 220.708C479.641 219.476 484.105 221.953 485.323 226.234C486.54 230.514 484.049 234.97 479.764 236.174C475.499 237.372 471.069 234.894 469.857 230.633C468.645 226.372 471.108 221.934 475.365 220.708Z"/><path fill="#1E201F" d="M425.935 200.754C429.035 200.006 432.297 200.992 434.464 203.331C436.632 205.669 437.367 208.997 436.386 212.031C435.406 215.065 432.862 217.333 429.736 217.961C425.029 218.906 420.432 215.91 419.396 211.222C418.361 206.534 421.268 201.88 425.935 200.754Z"/><path fill="#0D8F6A" d="M426.369 204.663C428.99 203.703 431.891 205.064 432.829 207.694C433.766 210.323 432.381 213.213 429.744 214.128C427.138 215.032 424.29 213.667 423.363 211.069C422.437 208.471 423.778 205.611 426.369 204.663Z"/><path fill="#1E201F" d="M446.686 257.73C450.604 257.157 454.292 259.728 455.109 263.602C455.926 267.476 453.591 271.318 449.776 272.377C447.086 273.123 444.204 272.313 442.297 270.275C440.389 268.237 439.771 265.308 440.693 262.673C441.615 260.039 443.924 258.134 446.686 257.73Z"/><path fill="#0D8F6A" d="M446.832 261.839C448.067 261.463 449.41 261.787 450.337 262.686C451.263 263.585 451.629 264.917 451.29 266.163C450.951 267.409 449.962 268.373 448.707 268.679C446.842 269.134 444.953 268.022 444.446 266.17C443.938 264.319 444.996 262.399 446.832 261.839Z"/><path fill="white" d="M483.202 281.649C455.268 281.969 432.836 287.57 415.672 310.804C408.557 321.206 402.388 327.702 392.26 335.369C365.428 355.683 317.403 354.963 297.387 324.936C272.939 288.261 292.138 240.625 327.212 218.176C377.712 185.854 436.135 166.504 496.293 178.127L495.83 179.22C459.625 174.26 433.716 184.841 400.507 195.735C359.926 208.029 306.109 227.753 299.163 275.995C293.854 308.031 318.261 334.059 349.436 337.079C365.999 338.683 385.602 337.544 399.102 326.67C417.111 312.163 421.915 285.733 447.117 280.749C455.778 279.037 463.006 277.939 471.956 279.365C473.923 279.591 482.012 280.523 483.602 280.321L483.202 281.649Z"/><path fill="#B1B2B2" d="M496.293 178.127C497.689 178.378 498.951 178.618 500.335 178.927L498.678 179.795C497.734 179.579 496.784 179.388 495.83 179.22L496.293 178.127Z"/><path fill="#6F6E72" d="M500.335 178.927C501.194 179.192 501.044 179.092 501.697 179.563C501.777 180.331 498.954 179.832 498.678 179.795L500.335 178.927Z"/><path fill="#B1B2B2" d="M483.602 280.321C483.932 280.373 485.344 280.48 485.633 280.838C485.47 281.402 483.636 281.566 483.202 281.649L483.602 280.321Z"/><path fill="white" d="M239.831 401.192C242.184 400.988 244.49 401.064 246.839 401.261C260.26 402.392 271.975 409.427 280.526 419.624C308.302 452.747 288.156 486.992 287.843 523.739C287.709 539.471 292.957 554.713 291.487 569.537C289.893 585.616 281.581 599.912 269.06 609.953C256.917 619.747 241.397 624.35 225.878 622.758C213.64 621.688 200.74 616.297 191.163 608.648C174.137 595.049 167.141 574.877 164.889 553.842C160.569 513.498 170.608 457.764 196.517 425.768C207.229 412.541 222.773 402.999 239.831 401.192Z"/><path fill="#1E201F" d="M236.396 419.188C239.808 418.969 243.189 418.821 246.598 419.186C257.678 420.326 267.821 425.911 274.71 434.663C294.7 459.861 280.371 493.792 279.445 522.425C278.994 536.389 282.37 550.309 280.671 564.226C279.093 577.163 273.155 589.637 262.688 597.69C251.453 606.334 238.062 608.673 224.264 606.875C213.859 605.078 204.428 601.351 196.08 594.802C182.312 584.004 174.236 567.39 172.247 550.204C168.377 516.778 179.68 466.126 200.681 439.705C209.866 428.149 221.664 420.92 236.396 419.188Z"/><path fill="#0D8F6A" d="M236.847 423.151C239.725 422.769 243.003 422.885 245.884 423.254C256.216 424.576 265.623 429.533 272.016 437.837C290.022 461.226 275.801 497.778 275.012 524.618C274.624 537.797 278.319 551.04 276.448 564.158C274.751 576.06 269.347 587.199 259.528 594.447C248.845 602.331 236.527 604.574 223.607 602.544C215.394 600.534 207.623 597.713 200.658 592.815C187.906 583.847 179.932 569.588 177.379 554.364C171.748 520.776 182.024 472.602 201.977 445.1C210.721 433.049 222.052 425.466 236.847 423.151Z"/><path fill="#1E201F" d="M224.805 504.306C240.774 502.968 256.224 510.346 265.22 523.608C274.216 536.869 275.36 553.952 268.212 568.295C261.065 582.637 246.737 592.01 230.732 592.812C206.554 594.025 185.869 575.628 184.251 551.473C182.634 527.319 200.681 506.329 224.805 504.306Z"/><path fill="#0D8F6A" d="M225.189 508.4C239.668 507.207 253.668 513.9 261.832 525.917C269.996 537.933 271.06 553.414 264.617 566.435C258.174 579.456 245.221 588.001 230.715 588.801C208.705 590.014 189.805 573.318 188.293 551.326C186.782 529.335 203.22 510.209 225.189 508.4Z"/><path fill="#1E201F" d="M227.559 516.198C245.035 515.003 260.197 528.142 261.5 545.61C262.803 563.079 249.758 578.322 232.298 579.733C214.685 581.155 199.279 567.971 197.965 550.349C196.65 532.728 209.929 517.404 227.559 516.198Z"/><path fill="#0D8F6A" d="M223.931 520.793C239.035 517.562 253.885 527.231 257.042 542.351C260.198 557.47 250.456 572.273 235.321 575.355C220.291 578.415 205.614 568.755 202.479 553.741C199.345 538.726 208.932 524.001 223.931 520.793Z"/><path fill="#1E201F" d="M229.867 527.684C241.745 526.461 252.363 535.105 253.574 546.984C254.786 558.863 246.131 569.472 234.251 570.672C222.387 571.87 211.796 563.23 210.586 551.367C209.377 539.505 218.006 528.905 229.867 527.684Z"/><path fill="#0D8F6A" d="M228.846 531.782C235.149 530.63 241.585 532.961 245.689 537.882C249.793 542.804 250.929 549.554 248.662 555.548C246.395 561.542 241.077 565.851 234.744 566.825C225.14 568.303 216.131 561.793 214.518 552.211C212.906 542.63 219.288 533.53 228.846 531.782Z"/><path fill="#1E201F" d="M229.87 537.283C236.187 535.613 242.671 539.342 244.404 545.642C246.138 551.942 242.475 558.464 236.192 560.26C232.072 561.439 227.636 560.314 224.575 557.314C221.514 554.314 220.299 549.902 221.395 545.758C222.49 541.615 225.726 538.379 229.87 537.283Z"/><path fill="#0D8F6A" d="M230.153 541.302C234.234 539.748 238.807 541.751 240.432 545.803C242.057 549.856 240.134 554.464 236.11 556.16C233.444 557.283 230.379 556.881 228.093 555.107C225.808 553.333 224.657 550.463 225.084 547.602C225.511 544.74 227.449 542.331 230.153 541.302Z"/><path fill="#1E201F" d="M233.548 431.513C252.182 429.09 269.25 442.239 271.66 460.876C274.069 479.512 260.907 496.57 242.269 498.966C223.651 501.359 206.614 488.214 204.207 469.597C201.8 450.98 214.933 433.934 233.548 431.513Z"/><path fill="#0D8F6A" d="M233.618 435.533C249.945 433.173 265.125 444.41 267.635 460.714C270.144 477.019 259.046 492.301 242.765 494.959C226.272 497.652 210.748 486.378 208.206 469.862C205.664 453.345 217.079 437.925 233.618 435.533Z"/><path fill="#1E201F" d="M238.264 444.267C249.975 443.839 259.845 452.923 260.389 464.63C260.932 476.336 251.945 486.295 240.245 486.954C228.38 487.622 218.25 478.481 217.699 466.611C217.148 454.74 226.388 444.701 238.264 444.267Z"/><path fill="#0D8F6A" d="M237.938 447.552C239.113 447.518 240.328 447.428 241.497 447.573C246.019 448.132 249.707 450.493 252.352 454.126C255.437 458.364 256.339 463.4 255.616 468.502C255.24 471.152 254.37 473.463 252.878 475.693C250.382 479.424 246.19 482.291 241.749 483.056C241.24 483.143 240.726 483.216 240.216 483.301C236.9 483.158 234.018 482.93 230.999 481.396C226.993 479.361 223.951 475.486 222.685 471.198C221.291 466.476 221.888 461.649 224.336 457.38C227.343 452.138 232.222 449.112 237.938 447.552Z"/><path fill="#1E201F" d="M236.809 455.371C242.718 453.965 248.639 457.645 249.994 463.566C251.349 469.486 247.618 475.376 241.686 476.68C235.826 477.968 230.023 474.292 228.684 468.443C227.346 462.594 230.972 456.76 236.809 455.371Z"/><path fill="#0D8F6A" d="M238.105 458.962C241.959 458.277 245.645 460.826 246.363 464.675C247.08 468.523 244.561 472.23 240.719 472.98C236.832 473.738 233.071 471.183 232.345 467.289C231.619 463.395 234.205 459.656 238.105 458.962Z"/><path fill="#1E201F" d="M196.499 489.973C200.746 488.665 205.25 491.052 206.551 495.302C207.852 499.552 205.457 504.051 201.205 505.345C196.963 506.636 192.477 504.248 191.179 500.008C189.881 495.769 192.261 491.279 196.499 489.973Z"/><path fill="#0D8F6A" d="M198.048 493.436C200.274 492.875 202.536 494.211 203.121 496.43C203.705 498.65 202.392 500.927 200.179 501.534C198.726 501.932 197.172 501.519 196.108 500.453C195.044 499.387 194.635 497.832 195.036 496.38C195.437 494.928 196.588 493.804 198.048 493.436Z"/><path fill="#1E201F" d="M259.638 495.282C263.49 493.842 267.787 495.748 269.304 499.571C270.821 503.394 269.002 507.728 265.21 509.322C262.689 510.381 259.792 509.995 257.636 508.313C255.48 506.63 254.402 503.914 254.817 501.211C255.232 498.507 257.076 496.24 259.638 495.282Z"/><path fill="#0D8F6A" d="M260.569 499.259C261.726 498.62 263.138 498.652 264.265 499.344C265.391 500.036 266.059 501.28 266.012 502.601C265.965 503.922 265.212 505.116 264.039 505.727C262.257 506.654 260.06 505.976 259.111 504.206C258.161 502.436 258.811 500.231 260.569 499.259Z"/><path fill="white" d="M504.873 801.261C497.204 823.584 489.957 837.587 467.489 848.736C436.317 864.204 404.687 857.268 373.409 847.233C314.899 828.463 236.345 758.725 260.885 690.374C268.183 670.572 283.107 654.517 302.324 645.795C351.673 622.97 396.032 655.058 439.259 675.475C445.82 678.573 452.743 680.245 459.501 682.768C462.848 684.107 467.185 687.894 470.364 689.89C486.31 701.18 498.773 713.71 508.915 730.636C506.795 736.895 504.239 744.056 502.938 750.436C497.376 738.813 490.148 728.063 481.482 718.527C457.997 692.997 419.134 670.687 386.843 658.405C363.4 650.393 338.589 649.802 316.05 660.948C274.826 681.337 263.796 724.458 283.47 764.556C308.52 815.611 385.97 859.125 441.008 831.307C457.946 822.761 470.782 807.82 476.678 789.789C482.534 771.44 480.419 750.498 471.523 733.274C457.715 706.536 422.886 682.188 394.715 672.994C373.296 666.004 347.961 666.49 328.108 677.673C313.251 686.042 301.965 697.727 297.103 714.482C292.28 731.393 295.055 749.274 303.703 764.622C318.241 790.424 343.349 806.249 371.19 814.56C406.604 825.132 450.529 815.45 461.746 775.951C465.609 760.965 463.217 745.412 455.067 732.265C440.025 707.998 417.301 693.516 390.223 686.343C358.005 677.808 323.133 684.509 313.825 720.64C310.404 733.92 313.653 747.276 320.813 758.865C333.236 777.432 356.458 791.463 377.902 796.419C395.68 800.528 414.859 799.488 430.472 789.785C453.605 775.408 455.192 746.908 440.882 725.558C436.414 718.891 432.362 714.664 426.44 709.173L427.529 708.31C442.609 720.206 456.35 736.416 458.787 756.134C460.418 768.876 456.871 781.74 448.941 791.845C419.986 828.777 361.451 814.497 330.001 788.703C313.413 775.097 301.795 758.474 299.363 736.601C295.47 701.578 325.164 676.169 357.99 672.884C389.493 669.732 419.688 686.554 443.338 705.907C460.976 720.404 473.263 739.136 475.379 762.06C479.225 801.437 447.865 833.576 409.023 835.274C375.179 836.754 342.807 822.41 317.4 800.796C282.918 771.461 261.363 720.13 295.171 681.995C308.272 667.217 329.519 657.825 349.238 656.93C359.525 656.527 369.809 657.802 379.686 660.704C409.085 669.063 446.546 692.432 469.439 712.773C484.235 725.919 492.558 739.967 501.702 757.006C500.753 772.244 500.176 786.407 504.873 801.261Z"/><path fill="white" d="M255.907 332.818C223.091 262.996 299.172 203.031 355.374 176.889C415.321 149.006 486.155 137.383 550.651 158.829C622.861 182.84 633.832 270.835 563.694 305.157C542.635 315.461 520.336 312.158 497.447 315.125C431.177 323.14 373.767 364.859 345.675 425.413C345.468 426.04 345.448 426.278 345.002 426.74C344.216 426.848 344.489 423.621 344.49 423.107C344.161 405.957 339.478 389.172 330.88 374.329C352.702 377.434 372.78 371.796 390.45 358.648C397.092 353.678 403.141 347.963 408.48 341.614C411.004 338.577 415.29 332.375 418.197 329.928C434.23 316.426 457.148 307.516 477.552 304.037C488.262 302.211 497.904 302.331 508.553 301.066C551.182 297.049 599.269 261.891 582.924 214.112C570.25 177.06 527.972 162.413 492.472 160.045C425.06 155.547 358.504 176.748 305.054 217.752C268.06 246.132 246.367 290.785 273.464 333.651C267.327 332.827 262.122 332.417 255.907 332.818Z"/><path fill="#DFE2E4" d="M344.49 423.107C344.883 423.921 345.24 424.616 345.675 425.413C345.468 426.04 345.448 426.278 345.002 426.74C344.216 426.848 344.489 423.621 344.49 423.107Z"/><path fill="white" d="M700.957 591.711C710.759 590.983 721.509 591.318 731.025 593.785C744.446 608.71 760.491 617.369 780.077 621.056C794.469 633.226 804.069 650.113 807.167 668.704C812.698 703.735 795.917 737.181 775.935 764.765C739.879 814.538 676.929 857.168 615.699 866.816C589.716 870.91 564.12 866.218 542.617 850.439C522.468 835.654 510.041 812.484 506.346 787.999C502.02 759.336 510.75 730.439 526.44 706.493C531.848 698.238 538.187 690.69 544.024 682.747C554.584 679.042 564.807 675.264 574.993 670.601L567.238 678.84C552.374 694.769 538.427 712.019 529.589 732.1C519.568 754.864 517.507 778.494 526.77 801.898C535.085 822.573 551.306 839.075 571.835 847.745C599.358 859.598 628.291 855.359 655.319 844.586C703.803 825.262 760.634 780.249 781.445 731.315C790.871 709.151 794.31 684.477 785.042 661.609C776.823 641.328 759.777 625.847 739.768 617.438C710.27 605.041 676.148 607.037 646.832 618.854C653.332 612.514 659.149 605.432 665.049 598.54C676.732 594.955 688.774 592.664 700.957 591.711Z"/><path fill="#0D8F6A" d="M358.639 687.685C358.721 687.671 358.802 687.652 358.885 687.644C380.841 685.569 404.042 696.806 420.825 710.132C432.879 719.702 443.793 733.301 445.412 749.117C446.443 759.191 444.087 770.119 437.538 778.036C429.048 788.299 416.436 792.526 403.62 793.839C381.841 796.569 359.177 787.075 342.041 774.35C329.635 765.138 319.491 753.443 317.218 737.661C315.569 726.209 319.049 713.566 326.087 704.404C334.194 693.849 345.795 689.339 358.639 687.685Z"/><path fill="#1E201F" d="M367.249 696.229C382.582 696.441 399.252 701.754 411.945 710.368C422.143 717.29 430.36 727.071 432.674 739.439C434.421 748.775 432.733 758.714 427.289 766.576C420.593 776.244 410.429 781.4 399.097 783.442C381.141 784.564 363.073 780.952 349.252 768.734C339.55 760.158 332.19 746.642 331.508 733.582C331.01 724.044 333.926 713.997 340.465 706.892C347.494 699.254 357.227 696.69 367.249 696.229Z"/><path fill="#0D8F6A" d="M366.025 700.206C380.345 699.617 396.401 705.221 408.329 712.884C418.155 719.196 426.14 727.595 428.573 739.347C430.31 747.738 429.196 756.591 424.306 763.779C418.328 772.568 408.99 777.484 398.761 779.457C382.56 780.849 366.111 777.549 353.289 766.997C343.668 759.079 336.936 746.917 335.86 734.449C335.127 725.966 337.309 717.198 342.868 710.623C348.909 703.478 357.054 701.024 366.025 700.206Z"/><path fill="#1E201F" d="M375.679 706.165C385.196 705.065 393.877 707.268 401.895 712.466C410.07 717.766 415.679 724.894 417.679 734.524C419.365 742.642 418.205 751.162 413.502 758.131C407.943 766.368 399.112 770.671 389.569 772.395C379.06 773.612 368.577 772.625 359.7 766.378C352.366 761.293 347.4 753.459 345.932 744.656C344.524 736.139 346.591 726.635 351.758 719.676C357.478 711.97 366.296 707.469 375.679 706.165Z"/><path fill="#0D8F6A" d="M374.951 710.148C383.595 709.419 391.514 710.862 399.018 715.373C406.335 719.772 411.917 726.301 413.919 734.727C415.566 741.664 414.537 748.927 410.625 754.936C405.506 762.799 397.679 766.588 388.75 768.421C379.347 769.069 370.198 768.506 362.179 763.012C355.663 758.546 351.241 751.624 349.928 743.835C348.664 736.337 350.335 728.384 354.816 722.205C359.61 715.594 367.004 711.53 374.951 710.148Z"/><path fill="#1E201F" d="M380.172 715.17C392.067 713.216 403.295 721.273 405.253 733.168C407.211 745.063 399.158 756.294 387.263 758.256C375.364 760.218 364.126 752.161 362.167 740.26C360.209 728.359 368.27 717.125 380.172 715.17Z"/><path fill="#0D8F6A" d="M379.253 719.359C388.787 716.925 398.493 722.657 400.967 732.179C403.441 741.702 397.751 751.433 388.239 753.947C378.67 756.476 368.868 750.745 366.379 741.165C363.89 731.585 369.663 721.807 379.253 719.359Z"/><path fill="#1E201F" d="M380.725 724.794C387.109 723.332 393.478 727.29 394.994 733.661C396.511 740.032 392.608 746.434 386.25 748.005C379.815 749.595 373.318 745.634 371.783 739.186C370.248 732.737 374.264 726.274 380.725 724.794Z"/><path fill="#0D8F6A" d="M380.41 728.56C381.675 728.535 382.996 728.439 384.249 728.644C386.674 729.041 388.811 730.24 390.197 732.31C391.228 733.849 391.84 735.885 391.373 737.729C390.549 740.988 388.709 742.548 385.967 744.224C384.489 744.518 382.767 744.76 381.29 744.336C379.165 743.728 377.719 742.205 376.732 740.278C375.654 738.174 374.858 735.155 375.737 732.84C376.606 730.549 378.261 729.492 380.41 728.56Z"/><path fill="white" d="M248.376 367.688C251.21 367.232 254.377 367.279 257.249 367.31C271.47 367.465 286.05 373.868 295.976 383.996C302.597 390.752 307.153 398.76 310.741 407.461C328.361 450.189 302.472 485.188 303.777 526.332C304.309 543.111 311.459 558.845 314.401 575.237C315.561 581.702 315.562 588.044 315.524 594.581C302.934 597.322 291.142 601.228 279.586 606.991C284.743 600.983 288.878 594.168 291.824 586.818C301.015 563.235 290.947 542.238 292.316 518.136C293.426 498.603 300.263 479.4 299.812 459.786C299.542 450.44 297.419 441.241 293.566 432.723C287.08 418.184 276.001 405.768 260.875 400.038C246.995 394.781 233.11 395.98 219.755 402.177C194.366 413.958 181.445 437.719 172.205 462.865C159.636 498.079 153.175 551.124 168.495 586.001C176.035 603.09 190.139 616.422 207.625 622.988C226.909 630.32 245.108 627.765 263.499 619.475C256.514 628.72 251.844 636.769 250.189 648.33C229.801 650.035 211.237 646.818 194.634 634.158C170.177 615.508 160.634 584.935 156.738 555.637C149.832 503.716 157.895 444.995 190.635 402.514C204.877 384.035 225.02 370.786 248.376 367.688Z"/><path fill="white" d="M152.827 478.794C159.309 434.123 174.93 382.745 212.473 354.239C228.526 342.05 249.954 334.776 270.25 337.681C291.501 340.722 311.234 355.26 324.03 372.03C335.088 386.522 339.472 406.743 340.206 424.634C340.097 428.155 340.687 433.573 339.962 436.984C338.631 443.245 335.749 449.473 333.996 455.646C325.808 484.482 323.658 514.419 330.716 543.737C332.273 550.205 334.238 556.737 335.944 563.18C337.509 570.078 337.798 585.461 336.942 592.397C331.793 592.553 324.82 593.071 319.702 593.97C319.612 584.103 319.257 576.859 317.092 567.147C314.203 553.758 307.999 539.075 308.14 525.294C308.558 484.327 330.677 451.533 316.498 409.796C296.893 352.084 233.338 350.043 195.055 390.807C172.965 414.329 159.838 447.26 153.791 478.588L152.827 478.794Z"/><path fill="white" d="M523.666 838.553C517.872 848.774 508.475 857.505 498.342 863.291C471.126 878.829 438.033 877.75 408.591 870.243C357.363 857.181 312.463 827.227 276.205 789.326C267.155 779.867 255.529 765.905 249.013 754.821C237.55 735.322 232.642 707.205 238.462 685.188C244.492 661.858 259.668 641.941 280.562 629.937C309.677 613.141 339.55 613.662 370.949 622.16C385.461 636.589 392.514 643.011 409.521 654.575L408.313 655.212C374.522 638.163 341.816 624.718 303.975 640.247C257.635 659.157 239.897 710.191 260.493 755.137C280.657 799.139 320.095 830.383 364.204 848.371C407.112 865.87 462.718 872.265 495.16 832.05C500.582 825.328 503.874 816.964 507.047 809.046C512.763 821.949 515.287 827.151 523.666 838.553Z"/><path fill="#0D8F6A" d="M347.683 431.932C349.885 426.684 352.362 421.048 355 416.057C397.93 334.8 504.412 295.292 589.582 330.347C594.086 332.201 612.26 339.399 614.354 342.582C625.461 359.468 641.194 373.684 652.892 389.765L651.323 390.191C616.437 354.978 569.066 334.953 519.501 334.467C509.711 334.316 498.438 334.3 488.735 335.562C451.49 340.407 412.312 354.795 385.187 381.502C368.665 397.77 359.318 411.872 348.994 432.33L347.683 431.932Z"/><path fill="#0D8F6A" d="M509.768 478.001C525.988 475.035 541.547 485.76 544.545 501.974C547.544 518.188 536.85 533.768 520.642 536.799C504.389 539.839 488.754 529.108 485.747 512.849C482.74 496.589 493.502 480.976 509.768 478.001Z"/><path fill="white" d="M552.315 154.918C552.919 154.411 553.288 154.085 553.925 153.642C570.451 157.331 586.557 161.317 602.005 168.366C612.644 173.22 622.186 178.745 633.061 183.267C643.186 187.477 652.86 190.777 663.087 194.588C672.05 198.03 680.984 201.545 689.888 205.134L688.822 206.273C661.533 201.142 633.612 211.483 615.103 231.799C610.889 190.652 589.597 169.39 552.315 154.918Z"/><path fill="white" d="M155.26 577.731L156.405 578.029C166.868 622.814 199.573 658.886 248.616 652.492C243.671 659.522 241.063 665.161 237.796 672.93C216.733 677.327 194.904 667.852 182.4 651.107C168.029 631.864 159.796 600.944 155.26 577.731Z"/><path fill="white" d="M787.094 621.406C814.892 619.893 832.085 612.052 851.065 592.172C843.647 607.296 835.377 621.933 828.53 637.192C822.29 651.1 818.016 666.302 813.616 680.908C813.627 681.325 813.638 681.742 813.65 682.16L812.45 682.415C812.493 681.112 812.513 679.808 812.509 678.504C811.655 656.031 803.229 637.064 787.094 621.406Z"/><path fill="#DFE2E4" d="M812.509 678.504C812.944 679.611 813.057 679.859 813.616 680.908C813.627 681.325 813.638 681.742 813.65 682.16L812.45 682.415C812.493 681.112 812.513 679.808 812.509 678.504Z"/><path fill="white" d="M698.961 521.491L700.102 520.513C703.4 544.925 711.871 568.583 726.532 588.461C706.344 585.552 688.135 587.673 668.616 593.189C683.644 573.59 695.462 545.964 698.961 521.491Z"/><path fill="white" d="M343.65 596.231L352.139 596.096C356.179 603.281 361.708 610.335 367.063 616.599C363.627 615.722 360.165 614.952 356.682 614.292C325.672 608.393 296.017 613.709 269.808 631.534C264.341 635.622 259.351 640.051 254.579 644.93C257.08 636.426 261.188 628.699 267.238 622.191C285.487 602.563 317.929 597.085 343.65 596.231Z"/><path fill="white" d="M186.286 662.336C189.846 663.969 192.886 667.458 196.294 669.54C208.52 677.008 221.884 679.499 236.006 677.895C230.338 697.086 230.455 715.343 235.78 734.624C236.42 736.572 236.945 738.572 237.52 740.541C220.302 715.758 200.939 688.505 186.286 662.336Z"/><path fill="white" d="M535.495 685.136L535.828 685.352C535.4 687.46 527.895 696.771 526.12 699.436C520.479 707.906 515.569 716.607 511.089 725.74C505.743 717.537 499.582 709.894 492.7 702.929C486.08 696.335 478.277 690.801 471.065 684.864C491.777 690.547 514.685 689.817 535.495 685.136Z"/><path fill="white" d="M596.947 285.387C598.132 286.888 598.155 301.084 598.799 304.473C600.832 315.158 604.542 324.694 609.263 334.424C598.521 328.882 587.308 324.308 575.756 320.754C566.949 318.218 558.079 316.487 549.07 314.846C568.368 309.281 583.577 300.54 596.947 285.387Z"/><path fill="#0D8F6A" d="M647.84 606.622C647.804 607.012 647.845 606.937 647.58 607.369C646.428 609.252 644.211 611.095 642.651 612.684C639.131 616.274 635.557 619.981 631.648 623.144C625.048 628.485 617.795 633.07 611.096 638.318C603.813 644.023 596.9 650.595 588.983 655.407C579 661.474 567.941 666.804 556.658 669.828L556.941 668.967C563.827 662.678 570.59 656.221 577.812 650.318C591.643 639.013 606.863 629.092 622.196 619.965C630.409 615.077 638.882 610.015 647.84 606.622Z"/><path fill="white" d="M242.486 297.097L243.664 297.832C242.883 310.157 246.601 322.075 251.327 333.291C227.557 337.156 216.665 344.764 198.694 359.944C209.739 344.369 236.944 312.817 242.486 297.097Z"/><path fill="white" d="M527.1 842.829C543.129 857.425 551.811 862.972 572.939 869.68C574.237 869.974 575.176 869.896 575.749 870.708C573.06 871.116 569.094 871.074 566.41 870.548C560.573 870.695 553.53 869.907 547.686 869.419C531.044 868.028 517.027 865.835 500.225 867.175C511.519 861.37 519.403 852.66 527.1 842.829Z"/><path fill="#0D8F6A" d="M624.815 349.471C625.063 349.606 625.309 349.743 625.549 349.892C629.499 352.335 633.237 355.776 636.707 358.869C655.405 375.538 669.74 395.682 680.39 418.282C683.634 425.167 686.719 432.18 688.416 439.624C687.928 439.199 687.721 439.062 687.316 438.458C684.46 434.199 682.502 428.449 680.126 423.808C674.458 412.735 668.194 402.175 660.625 392.289C656.573 386.94 652.292 381.769 647.793 376.791C641.953 370.205 627.872 356.136 624.815 349.471Z"/><path fill="#3A635C" d="M425.057 655.403L425.53 655.644C428.653 657.271 431.447 659.168 434.431 660.981C454.149 672.963 482.115 683.747 505.693 682.158C507.676 682.06 518.089 681.644 519.299 682.477C519.128 683.028 517.332 682.843 517.004 682.821C514.412 682.684 512.063 683.065 509.482 683.082C498.535 683.154 487.988 682.507 477.244 680.259C457.358 676.097 440 665.582 422.484 655.829L425.057 655.403Z"/><path fill="#333434" d="M505.693 682.158C507.676 682.06 518.089 681.644 519.299 682.477C519.128 683.028 517.332 682.843 517.004 682.821C513.051 682.647 509.266 683.192 505.693 682.158Z"/><path fill="white" d="M741.834 597.969C748.093 599.548 766.576 610.835 772.198 615.057C763.322 614.092 748.21 604.115 741.834 597.969Z"/><path fill="white" d="M341.899 576.784C343.523 579.065 348.377 589.057 349.47 591.803C346.809 592.047 344.143 592.118 341.473 592.22C341.545 587.073 341.687 581.927 341.899 576.784Z"/><path fill="#8A8A91" d="M155.26 577.731C154.288 575.051 153.728 570.591 153.147 567.726C152.827 566.079 152.575 564.42 152.392 562.752C151.888 558.491 149.6 542.881 150.341 539.544L150.237 539.754L150.333 539.474C150.429 539.564 150.526 539.653 150.623 539.742L150.422 539.809L150.742 540.185C150.851 540.902 151.136 544.265 151.197 545.32C151.838 556.351 154.912 567.316 156.405 578.029L155.26 577.731Z"/><path fill="#6F6E72" d="M153.791 478.588C153.751 479.606 149.809 509 150.537 507.878L150.637 508.023L150.577 508.138C150.527 508.144 150.477 508.15 150.427 508.155L150.42 508.103L150.359 508.11C149.759 504.775 151.593 481.557 152.827 478.794L153.791 478.588Z"/><path fill="#334A43" d="M346.677 437.046C346.296 438.126 338.705 457.817 339.501 457.272C338.147 456.491 344.541 438.681 345.577 436.859L346.024 436.04L346.677 437.046Z"/><path fill="#334A43" d="M652.892 389.765C653.676 390.336 662.132 400.242 661.693 401.224C660.964 401.453 652.371 391.373 651.323 390.191L652.892 389.765Z"/><path fill="#B1B2B2" d="M418.083 701.956L422.372 704.652C423.829 705.578 426.289 707.175 427.529 708.31L426.44 709.173C423.56 706.857 420.671 704.311 417.451 702.517L418.083 701.956Z"/><path fill="#B1B2B2" d="M543.4 151.838C546.509 152.237 550.978 152.727 553.925 153.642C553.288 154.085 552.919 154.411 552.315 154.918C549.228 153.974 546.412 152.939 543.4 151.838Z"/><path fill="#B1B2B2" d="M409.521 654.575C410.368 655.034 414.875 657.847 415.136 658.465C415.115 658.57 415.117 658.645 415.029 658.643C413.943 658.619 409.12 655.671 408.313 655.212L409.521 654.575Z"/><path fill="#3A635C" d="M347.683 431.932L348.994 432.33C348.38 433.746 347.413 435.683 346.677 437.046L346.024 436.04C346.601 434.663 347.073 433.322 347.683 431.932Z"/><path fill="#333434" d="M417.451 702.517C417.107 702.296 416.757 702.082 416.403 701.876C414.22 700.611 415.082 699.425 418.083 701.956L417.451 702.517Z"/><path fill="#B1B2B2" d="M689.888 205.134L690.638 205.412C690.645 205.415 692.433 206.081 692.027 206.332C691.275 206.797 689.584 206.393 688.822 206.273L689.888 205.134Z"/><path fill="#8A8A91" d="M698.961 521.491L699.027 520.499C699.044 520.194 698.977 518.609 699.603 518.776C699.806 519.02 699.908 519.282 699.95 519.593L700.102 520.513L698.961 521.491Z"/><path fill="#8A8A91" d="M813.65 682.16C813.56 682.407 813.03 684.567 812.385 684.232C812.095 683.715 812.361 682.948 812.45 682.415L813.65 682.16Z"/><path fill="#DFE2E4" d="M242.486 297.097C242.659 296.698 242.852 296.039 243.224 295.836C243.558 296.109 243.601 297.42 243.664 297.832L242.486 297.097Z"/></svg>