<?xml version="1.0" encoding="utf-8" ?><svg xmlns="http://www.w3.org/2000/svg" xmlns:xlink="http://www.w3.org/1999/xlink" width="1024" height="1024" viewBox="0 0 1024 1024"><path fill="white" d="M0 0L687.8 0L692.901 0L1024 0L1024 1024L338.649 1024L334.063 1024L0 1024L0 0Z"/><path fill="#222122" d="M687.8 0L692.901 0C710.151 8.18346 720.618 24.8741 726.554 42.5553C751.754 117.619 695.279 190.443 643.09 238.165C639.21 241.712 621.03 257.825 617.393 258.782C616.076 257.833 616.441 258.449 616.18 256.924C617.797 253.388 624.224 249.637 627.378 246.89C633.24 241.97 639.211 236.503 644.836 231.392C699.421 181.803 743.227 115.843 713.629 39.8663C712.681 37.4314 710.732 31.6469 708.129 30.8302L707.617 30.3499C708.066 29.9714 707.78 30.258 708.253 29.3152C705.574 23.1149 692.24 5.5721 687.8 0Z"/><path fill="#222122" d="M334.063 1024C331.669 1022.6 328.711 1021.64 326.418 1019.99C292.623 995.77 285.462 944.311 296.448 907.498C311.316 857.677 344.581 818.764 382.201 784.485C388.148 779.066 402.01 766.858 408.575 763.136L409.901 763.735C410.183 764.597 410.265 765.55 409.475 766.209C343.128 821.56 270.302 893.972 314.766 990.615C314.831 991.127 314.84 991.097 315.137 991.544C322.074 1003.9 328.681 1013.63 338.649 1024L334.063 1024Z"/><defs><linearGradient id="gradient_0" gradientUnits="userSpaceOnUse" x1="716.58307" y1="70.4925" x2="587.93579" y2="128.78784"><stop offset="0" stop-color="#0E0D0C"/><stop offset="1" stop-color="#2E2D2D"/></linearGradient></defs><path fill="url(#gradient_0)" d="M700.803 34.7373L701.211 35.6297C685.73 46.727 664.526 62.728 648.884 72.3698C678.077 82.2988 697.812 98.0468 706.258 128.451L705.037 127.515C702.951 120.464 700.695 115.006 696.513 108.906C676.832 80.7284 637.186 65.1323 603.744 74.262C591.951 77.4815 583.18 83.038 572.476 88.3823C571.378 88.9306 569.297 88.457 568.095 88.1972L567.576 87.1549C583.343 75.6453 607.764 67.3104 627.345 68.557C633.959 68.9781 640.041 70.1806 646.496 71.5151C652.461 66.5302 662.479 60.1375 669.023 55.7745C679.425 48.8386 690.238 41.3874 700.803 34.7373Z"/><defs><linearGradient id="gradient_1" gradientUnits="userSpaceOnUse" x1="316.08884" y1="939.92419" x2="453.81516" y2="954.76959"><stop offset="0" stop-color="#100F0E"/><stop offset="1" stop-color="#2D2C2D"/></linearGradient></defs><path fill="url(#gradient_1)" d="M320.29 899.951L320.858 897.939C325.577 911.425 332.823 921.396 344.113 930.221C366.088 947.397 398.378 956.067 425.415 946.552C430.117 944.866 434.689 942.84 439.096 940.491C444.002 937.92 451.032 932.812 456.235 934.188L456.473 935.392C429.707 951.497 409.152 958.12 378.081 950.386L328.191 983.23L326.443 982.812C342.464 971.745 358.404 960.561 374.262 949.261C348.481 939.386 330.004 927.023 320.29 899.951Z"/><defs><linearGradient id="gradient_2" gradientUnits="userSpaceOnUse" x1="507.12222" y1="924.14331" x2="492.41711" y2="953.26917"><stop offset="0" stop-color="#0A0909"/><stop offset="1" stop-color="#2A2929"/></linearGradient></defs><path fill="url(#gradient_2)" d="M459.125 934.765C470.738 938.302 474.285 941.192 484.893 946.318C502.988 955.063 524.378 948.251 541.825 940.661L542.219 941.651C533.746 946.323 527.24 949.424 517.982 951.918C492.71 958.726 479.144 947.836 458.477 935.61L459.125 934.765Z"/><path fill="#222122" d="M485.867 79.0578C499.491 71.186 518.801 65.8567 534.316 70.1386C542.306 72.3434 548.469 75.7755 555.239 80.3714C557.12 81.6484 562.116 84.8445 564.081 85.4647L562.713 86.8343C553.639 83.8053 546.808 79.4476 538.205 75.5566C521.559 68.0279 503.383 73.3823 487.167 79.7229L485.867 79.0578Z"/><path fill="#494848" d="M314.766 990.615C318.684 988.154 322.453 985.252 326.443 982.812L328.191 983.23C325.805 984.801 316.39 989.923 315.137 991.544C314.84 991.097 314.831 991.127 314.766 990.615Z"/><path fill="#7D7E7E" d="M320.29 899.951C319.637 897.216 316.91 886.774 317.833 884.31L317.856 884.306C317.734 884.153 320.691 897.133 320.858 897.939L320.29 899.951Z"/><path fill="#494848" d="M700.803 34.7373C702.353 33.4009 705.749 31.253 707.617 30.3499L708.129 30.8302C706.411 32.0793 702.947 34.5334 701.211 35.6297L700.803 34.7373Z"/><path fill="#9A9B9C" d="M705.037 127.515L706.258 128.451C706.867 130.285 707.568 134.615 707.137 136.443L706.861 136.581L706.829 136.644C706.692 136.349 705.209 128.324 705.037 127.515Z"/><path fill="#494848" d="M487.167 79.7229C485.157 80.6635 481.088 82.6241 479.072 83.2549L478.932 83.0014L478.582 83.3135L478.486 83.2391L478.551 83.1242L478.808 83.1578C479.156 82.461 484.673 79.515 485.867 79.0578L487.167 79.7229Z"/><path fill="#363334" d="M541.825 940.661C543.396 939.585 545.684 939.004 547.547 938.375C545.674 939.567 544.135 940.54 542.219 941.651L541.825 940.661Z"/><path fill="#626363" d="M456.235 934.188C457.276 934.358 458.089 934.521 459.125 934.765L458.477 935.61L456.473 935.392L456.235 934.188Z"/><path fill="#7D7E7E" d="M565.64 86.5321C566.355 86.747 566.885 86.9085 567.576 87.1549L568.095 88.1972C566.649 87.5409 566.33 87.5316 564.782 87.1663L565.64 86.5321Z"/><path fill="#363334" d="M564.081 85.4647C564.598 85.8251 565.117 86.1809 565.64 86.5321L564.782 87.1663C564.052 87.0337 563.457 86.9271 562.713 86.8343L564.081 85.4647Z"/><path fill="#0AA25D" d="M324.173 1.16332C325.385 1.85989 325.88 5.70041 326.313 7.18835C330.672 22.1396 337.82 36.1303 346.073 49.2761C359.588 50.2527 382.17 62.7935 393.977 70.2575L393.299 70.6437C380.385 64.661 361.085 54.8975 347.761 52.2131C357.583 65.0081 367.423 77.4232 378.346 89.3237C384.948 96.517 391.298 104.119 398.834 110.383C418.021 112.233 431.393 110.574 449.662 103.429C454.066 101.707 460.237 98.0984 464.454 97.7209L465.231 97.9891C465.918 98.3514 466.603 98.7183 467.286 99.0899L465.561 99.996C444.965 111.372 425.068 116.513 401.552 113.267C405.63 117.252 410.67 121.482 414.424 125.275C424.766 133.621 435.37 142.397 445.891 150.442C472.956 170.813 500.442 190.62 528.33 209.85L582.01 246.751C589.641 251.959 597.34 257.067 604.94 262.32C608.436 264.736 611.815 267.689 615.197 270.32C648.653 296.351 682.878 322.245 710.927 354.275C713.211 356.883 715.366 359.639 717.512 362.359C737.695 390.382 749.187 413.372 753.394 449.142C759.199 498.497 740.526 550.839 714.009 592.211C713.949 592.276 713.889 592.341 713.829 592.406C711.98 596.108 700.311 614.276 697.761 617.031C668.75 663.09 628.442 698.801 583.431 729.152C583.062 729.401 581.36 728.3 580.927 728.067L580.812 727.411C585.219 723.228 592.554 718.845 597.578 714.923C605.961 708.38 615.287 701.692 623.365 694.752C652.144 670.031 682.752 640.243 698.685 605.258C704.603 592.065 707.246 577.978 708.848 563.752C712.138 534.543 700.104 497.495 681.011 474.771C681.079 474.445 681.065 474.666 680.803 474.14C660.615 446.735 630.991 419.191 605.122 397.179C603.269 395.737 601.862 394.731 599.896 393.447C599.62 393.073 599.345 392.698 599.07 392.324C571.317 371.53 543.34 351.036 515.145 330.846C454.072 287.263 388.185 246.334 332.819 195.539C305.093 170.102 286.775 134.207 286.298 96.0934C286.102 85.6745 287.316 75.2769 289.907 65.1835C294.89 45.6094 309.901 15.8268 324.173 1.16332Z"/><path fill="#222122" d="M605.122 397.179C607.086 397.356 607.812 398.107 609.515 399.26C609.884 399.391 609.851 399.395 610.133 399.696C652.676 425.195 702.487 467.802 715.709 517.496C722.192 541.861 717.94 566.847 710.698 590.392C710.464 593.274 709.966 594.822 708.454 597.412C708.291 597.692 706.366 601.047 706.909 601.529C707.39 601.436 711.038 594.278 713.829 592.406C711.98 596.108 700.311 614.276 697.761 617.031C668.75 663.09 628.442 698.801 583.431 729.152C583.062 729.401 581.36 728.3 580.927 728.067L580.812 727.411C585.219 723.228 592.554 718.845 597.578 714.923C605.961 708.38 615.287 701.692 623.365 694.752C652.144 670.031 682.752 640.243 698.685 605.258C704.603 592.065 707.246 577.978 708.848 563.752C712.138 534.543 700.104 497.495 681.011 474.771C681.079 474.445 681.065 474.666 680.803 474.14C660.615 446.735 630.991 419.191 605.122 397.179Z"/><path fill="#2F8A64" d="M697.761 617.031L697.939 616.054C698.057 615.373 709.314 592.923 710.698 590.392C710.464 593.274 709.966 594.822 708.454 597.412C708.291 597.692 706.366 601.047 706.909 601.529C707.39 601.436 711.038 594.278 713.829 592.406C711.98 596.108 700.311 614.276 697.761 617.031Z"/><path fill="#222122" d="M324.173 1.16332C325.385 1.85989 325.88 5.70041 326.313 7.18835C330.672 22.1396 337.82 36.1303 346.073 49.2761C359.588 50.2527 382.17 62.7935 393.977 70.2575L393.299 70.6437C380.385 64.661 361.085 54.8975 347.761 52.2131C357.583 65.0081 367.423 77.4232 378.346 89.3237C384.948 96.517 391.298 104.119 398.834 110.383C418.021 112.233 431.393 110.574 449.662 103.429C454.066 101.707 460.237 98.0984 464.454 97.7209L465.231 97.9891C465.918 98.3514 466.603 98.7183 467.286 99.0899L465.561 99.996C444.965 111.372 425.068 116.513 401.552 113.267C405.63 117.252 410.67 121.482 414.424 125.275C411.683 124.624 404.383 118.247 401.746 116.317C367.303 91.1044 317.213 49.002 324.173 1.16332Z"/><path fill="#363334" d="M464.454 97.7209L465.231 97.9891C465.918 98.3514 466.603 98.7183 467.286 99.0899L465.561 99.996L464.454 97.7209Z"/><path fill="#0AA25D" d="M612.5 898.297C609.594 896.932 599.019 887.72 596.148 885.412C585.352 876.73 574.779 867.353 563.585 859.171C524.998 831.171 486.1 803.604 446.897 776.475C422.985 759.675 400.958 744.977 377.927 726.581C326.199 685.261 279.409 645.186 271.362 574.85C265.953 527.567 280.499 483.753 303.691 443.192C307.531 436.477 315.968 421.344 320.695 415.441C319.992 419.888 316.261 426.285 314.588 430.704C313.031 434.814 311.762 438.404 310.591 442.695C301.485 476.937 307.439 513.438 326.956 543.01C333.873 553.337 341.699 563.026 350.341 571.96C358.963 580.721 411.635 624.869 420.978 625.945C422.944 627.479 425.597 629.682 427.611 631.022L428.333 631.788L429.043 632.436C431.443 634.585 435.288 637.196 437.968 639.291C446.545 645.995 455.519 652.245 464.249 658.763C487.383 676.2 510.908 693.111 534.807 709.484C569.769 733.254 605.66 755.733 638.44 782.372C682.188 817.924 733.873 855.103 737.496 916.718C739.904 954.174 726.288 992.246 701.8 1020.59C701.181 1021.81 701.167 1021.84 700.274 1022.87C698.991 1018.85 698.213 1014.81 696.898 1010.7C692.476 996.959 686.052 983.947 677.833 972.082C660.324 969.928 647.096 961.437 631.936 953.041L632.205 952.243C648.24 958.905 658.453 964.712 675.721 968.888C667.203 954.934 638.591 921.944 625.806 911.164C608.275 908.347 589.06 912.385 572.989 919.401C567.357 921.859 563.278 924.576 557.063 923.917L557.393 922.995C559.439 921.102 565.498 918.396 568.162 917.133C585.167 909.074 603.839 905.665 622.604 907.941C619.488 904.707 615.801 901.391 612.5 898.297Z"/><path fill="#222122" d="M612.5 898.297C616.781 900.01 627.576 908.154 631.645 911.355C662.938 935.973 701.04 965.944 701.927 1009.5C701.992 1012.73 701.436 1017.65 701.8 1020.59C701.181 1021.81 701.167 1021.84 700.274 1022.87C698.991 1018.85 698.213 1014.81 696.898 1010.7C692.476 996.959 686.052 983.947 677.833 972.082C660.324 969.928 647.096 961.437 631.936 953.041L632.205 952.243C648.24 958.905 658.453 964.712 675.721 968.888C667.203 954.934 638.591 921.944 625.806 911.164C608.275 908.347 589.06 912.385 572.989 919.401C567.357 921.859 563.278 924.576 557.063 923.917L557.393 922.995C559.439 921.102 565.498 918.396 568.162 917.133C585.167 909.074 603.839 905.665 622.604 907.941C619.488 904.707 615.801 901.391 612.5 898.297Z"/><path fill="#222122" d="M320.695 415.441C326.64 405.734 334.578 392.685 341.489 383.715C365.629 352.385 408.32 313.275 442.296 293.271C443.899 293.334 443.169 293.116 444.552 293.994C444.075 297.159 435.641 301.312 432.932 303.327C396.365 330.528 351.558 367.255 330.038 408.055C323.711 420.216 319.389 433.32 317.241 446.859C311.696 483.636 322.804 516.947 343.615 546.928C353.479 540.168 362.427 533.64 372.076 526.619C344.73 515.263 329.2 502.117 320.12 473.432L320.879 472.504C335.978 518.868 389.649 539.126 434.412 525.197C446.196 521.531 453.581 514.175 466.427 517.131L465.017 518.249C463.245 517.794 462.295 517.205 460.732 517.925C456.431 519.904 452.023 522.067 447.727 524.023C437.648 528.563 426.905 531.459 415.91 532.599C401.374 534.112 389.321 531.918 375.462 527.945C369.301 531.991 363.094 535.967 356.842 539.872C353.188 542.14 347.6 545.362 344.324 547.785C367.044 578.205 391.463 601.958 420.978 625.945C411.635 624.869 358.963 580.721 350.341 571.96C341.699 563.026 333.873 553.337 326.956 543.01C307.439 513.438 301.485 476.937 310.591 442.695C311.762 438.404 313.031 434.814 314.588 430.704C316.261 426.285 319.992 419.888 320.695 415.441Z"/><path fill="#222122" d="M630.213 540.138C650.247 547.11 669.405 555.434 679.184 575.794C682.206 582.176 684.11 589.029 684.813 596.054L683.751 596.851C681.22 585.38 677.113 573.469 668.432 565.127C657.302 572.444 644.009 582.711 637.664 594.471C651.68 601.786 658.203 611.822 661.198 627.322C661.507 629.45 661.511 630.455 661.603 632.62C661.242 632.229 660.845 631.838 660.471 631.456L660.62 630.878C659.731 625.955 658.508 621.68 656.304 617.173C651.222 606.921 642.263 599.118 631.41 595.493C617.163 590.67 600.112 593.618 586.881 599.998C580.788 602.936 574.899 606.481 568.784 609.553C555.203 608.641 547.105 603.686 535.223 597.729C517.459 588.824 500.361 593.916 482.664 600.205L481.529 599.602C482.768 598.916 484.029 598.27 485.311 597.666C503.186 589.332 521.873 585.889 539.731 595.75C547.814 600.213 554.938 604.836 563.659 607.948C569.197 606.028 576.58 600.986 582.285 598.283C601.462 589.198 615.259 586.964 635.163 593.506C642.903 578.218 652.067 572.187 666.832 563.378C655.266 552.319 644.129 547.494 629.809 541.176L630.213 540.138Z"/><path fill="#626363" d="M661.198 627.322C661.507 629.45 661.511 630.455 661.603 632.62C661.242 632.229 660.845 631.838 660.471 631.456L660.62 630.878C660.856 629.647 661.039 628.573 661.198 627.322Z"/><defs><linearGradient id="gradient_3" gradientUnits="userSpaceOnUse" x1="708.80756" y1="525.13452" x2="577.20581" y2="471.11197"><stop offset="0" stop-color="#11100F"/><stop offset="1" stop-color="#2D2B2C"/></linearGradient></defs><path fill="url(#gradient_3)" d="M648.825 493.806C654.591 490.598 676.359 475.411 680.803 474.14C681.065 474.666 681.079 474.445 681.011 474.771C671.494 481.635 661.912 488.408 652.266 495.089C674.477 503.99 692.717 515.88 702.499 538.804C702.782 539.466 703.058 540.131 703.328 540.798L702.396 541.165C692.125 520.724 678.329 508.795 656.984 500.016C635.481 490.924 611.427 489.855 589.202 497.004C581.662 499.506 574.867 502.985 567.547 506.035C566.327 505.524 563.939 505.329 562.435 504.966C563.323 504.419 564.224 503.894 565.137 503.391C592.698 488.229 618.826 485.041 648.825 493.806Z"/><path fill="#222122" d="M363.366 391.996L364.342 392.021C375.413 425.292 400.804 434.439 433.225 423.478C440.15 421.137 452.685 412.204 458.656 412.261C458.569 412.775 458.518 413.231 458.457 413.748C440.189 428.594 412.651 436.14 390.043 427.495C383.465 441.313 371.804 450.218 358.337 456.946L356.55 455.673C367.419 446.694 380.177 441.463 387.265 426.353C386.178 425.759 385.117 425.12 384.084 424.438C371.742 416.381 366.346 406.134 363.366 391.996Z"/><defs><linearGradient id="gradient_4" gradientUnits="userSpaceOnUse" x1="405.25903" y1="821.78387" x2="412.3858" y2="876.57648"><stop offset="0" stop-color="#100F0E"/><stop offset="1" stop-color="#2E2D2D"/></linearGradient></defs><path fill="url(#gradient_4)" d="M368.947 826.979L369.853 826.59C381.888 860.206 408.224 863.1 439.34 852.057C446.557 849.496 453.882 843.285 461.383 844.352L461.324 845.389C442.258 858.194 412.652 866.62 390.719 856.713C383.394 871.17 376.595 875.851 362.655 884.132C362.052 883.101 362.355 883.471 361.245 882.815C373.615 873.733 380.605 868.914 388.47 855.579C387.84 855.196 387.216 854.803 386.597 854.4C376.489 847.806 371.375 838.676 368.947 826.979Z"/><defs><linearGradient id="gradient_5" gradientUnits="userSpaceOnUse" x1="626.93018" y1="206.50301" x2="612.55328" y2="152.717"><stop offset="0" stop-color="#0E0D0B"/><stop offset="1" stop-color="#2D2B2C"/></linearGradient></defs><path fill="url(#gradient_5)" d="M663.337 138.667L664.475 139.001L664.825 140.012C654.692 147.4 641.773 156.604 636.396 168.23C647.278 175.694 652.623 182.416 655 195.749C655.186 196.825 655.325 197.909 655.417 198.997L654.591 198.912C653.631 194.135 652.151 189.452 649.736 185.201C646.208 178.991 641.096 174.418 634.812 171.103C604.914 155.327 576.62 184.876 565.586 181.85L565.852 180.986C567.974 179.167 587.447 169.89 590.732 168.627C605.776 162.841 619.005 160.935 633.967 167.419C638.672 154.604 651.799 144.989 663.337 138.667Z"/><path fill="#161515" d="M559.962 624.322C571.3 629.392 579.202 634.359 591.2 638.34C605.401 631.469 620.988 655.182 625.718 665.808C626.631 667.909 627.495 670.032 628.307 672.175L627.433 672.564C622.925 661.547 613.742 647.393 602.263 642.478C600.464 641.708 597.083 640.822 595.085 640.214C590.604 642.386 588.126 644.319 586.528 649.437C580.641 668.293 590.448 678.969 596.256 695.698L595.484 696.932C588.428 677.303 576.821 673.335 583.714 648.799C583.768 648.508 583.822 648.218 583.876 647.927C585.855 644.62 586.625 643.317 589.121 640.413C578.372 636.229 569.652 631.056 559.855 625.098L559.962 624.322Z"/><path fill="#222122" d="M427.611 631.022C435.315 626.954 445.436 622.788 453.094 618.597C463.136 613.101 481.761 624.155 491.614 628.539C509.757 636.611 527.064 631.01 544.787 623.839L545.234 624.766C528.556 633.061 512.727 639.432 493.912 633.217C483.202 629.68 471.995 621.548 461.673 618.593C450.695 624.031 440.527 629.446 428.333 631.788L427.611 631.022Z"/><defs><linearGradient id="gradient_6" gradientUnits="userSpaceOnUse" x1="506.14096" y1="516.25903" x2="503.44092" y2="533.0708"><stop offset="0" stop-color="#050505"/><stop offset="1" stop-color="#302E2E"/></linearGradient></defs><path fill="url(#gradient_6)" d="M466.427 517.131C475.486 519.142 482.761 523.517 491.247 527.194C507.001 534.021 521.525 530.806 537.171 525.307C541.127 523.917 547.473 521.104 551.136 520.045C535.338 529.627 516.344 537.304 497.565 532.996C484.733 530.052 475.854 522.447 465.017 518.249L466.427 517.131Z"/><path fill="#222122" d="M461.699 412.986C471.934 415.203 478.106 418.358 487.25 423.514C506.354 434.285 526.179 428.928 545.851 421.327L546.161 422.204C525 432.246 504.297 438.285 482.933 425.229C476.236 421.136 468.539 416.623 461.42 413.486L461.699 412.986Z"/><defs><linearGradient id="gradient_7" gradientUnits="userSpaceOnUse" x1="509.22321" y1="933.95337" x2="520.30182" y2="907.48688"><stop offset="0" stop-color="#100E0B"/><stop offset="1" stop-color="#2B292A"/></linearGradient></defs><path fill="url(#gradient_7)" d="M468.233 921.778C487.382 908.67 513.569 900.845 534.657 912.832C540.256 916.015 551.654 921.997 557.393 922.995L557.063 923.917C544.767 922.204 539.208 918.608 528.036 913.707C506.973 904.466 487.79 913.837 468.233 921.778Z"/><defs><linearGradient id="gradient_8" gradientUnits="userSpaceOnUse" x1="510.69373" y1="97.929543" x2="508.12305" y2="113.93948"><stop offset="0" stop-color="#0D0D0D"/><stop offset="1" stop-color="#2D2A2B"/></linearGradient></defs><path fill="url(#gradient_8)" d="M470.98 100.238L472.424 99.1262L473.083 99.2607C481.127 100.971 487.88 104.981 495.446 108.165C515.156 116.461 534.066 109.975 552.726 102.303L553.025 102.998C515.215 121.71 506.778 118.188 470.98 100.238Z"/><defs><linearGradient id="gradient_9" gradientUnits="userSpaceOnUse" x1="517.7135" y1="412.00677" x2="529.19928" y2="388.17413"><stop offset="0" stop-color="#12120D"/><stop offset="1" stop-color="#2A2829"/></linearGradient></defs><path fill="url(#gradient_9)" d="M483.385 396.04C500.076 388.073 514.224 384.066 532.171 390.122C542.008 393.441 554.19 402.099 561.868 403.694L562.694 403.872C563.336 404.272 563.936 404.678 564.564 405.098C554.439 404.389 546.379 400.862 537.582 396.18C519.252 386.426 503.646 390.253 484.728 396.78L483.385 396.04Z"/><path fill="#222122" d="M486.845 495.751C502.228 488.734 516.109 485.932 532.47 491.597C542.051 494.915 553.796 503.382 562.435 504.966C563.939 505.329 566.327 505.524 567.547 506.035C558.75 509.7 531.529 492.691 520.32 492.035C507.04 491.257 501.039 493.071 488.483 496.719C487.703 496.01 487.763 495.882 486.845 495.751Z"/><defs><linearGradient id="gradient_10" gradientUnits="userSpaceOnUse" x1="431.74164" y1="371.87357" x2="424.53702" y2="382.81631"><stop offset="0" stop-color="#070706"/><stop offset="1" stop-color="#2C2828"/></linearGradient></defs><path fill="url(#gradient_10)" d="M397.399 348.892C403.161 362.225 412.075 374.504 426.054 379.886C429.203 381.099 429.281 379.685 431.409 380.318C432.851 380.577 434.058 380.672 435.334 381.378C446.108 384.015 457.999 393.727 467.538 397.975L467.229 398.718C455.397 393.488 446.164 387.481 433.526 383.006C433.452 383.024 433.378 383.041 433.304 383.059C415.713 387.405 402.394 363.592 396.818 350.251L397.399 348.892Z"/><defs><linearGradient id="gradient_11" gradientUnits="userSpaceOnUse" x1="367.40372" y1="451.10306" x2="358.2106" y2="460.22729"><stop offset="0" stop-color="#0A0A09"/><stop offset="1" stop-color="#2D2B2A"/></linearGradient></defs><path fill="url(#gradient_11)" d="M341.273 424.121C343.814 433.734 346.283 440.404 351.691 448.921C353.042 451.048 355.6 454.122 356.55 455.673L358.337 456.946C360.385 463.501 386.581 476.596 393.719 479.85L393.286 480.842C365.423 471.107 343.82 456.062 340.438 424.557L341.273 424.121Z"/><path fill="#161515" d="M434.392 782.228C432.561 781.27 436.921 783.6 435.774 782.951C439.724 785.187 441.812 788.246 443.365 792.507C444.442 795.463 444.182 798.859 444.596 801.869C444.627 802.092 445.329 801.985 445.454 801.993C449.512 801.235 453.68 801.489 457.749 802.028C458.755 802.162 459.748 802.364 460.746 802.55C462.317 802.844 463.889 803.268 465.415 803.726C466.065 803.884 466.717 804.037 467.37 804.186L467.11 805.219C464.347 804.916 462.222 805.009 459.432 804.545C453.803 804.804 446.08 802.767 442.462 807.009C440.618 808.11 439.173 812.265 437.332 813.561C434.939 815.244 429.99 814.737 427.308 814.785C422.042 813.02 416.766 806.639 413.917 802.086L414.158 800.22C418.448 806.318 429.056 817.986 436.35 811.211C445.805 802.429 440.9 790.141 434.392 782.228Z"/><path fill="#222122" d="M465.415 803.726C466.065 803.884 466.717 804.037 467.37 804.186L467.11 805.219C464.347 804.916 462.222 805.009 459.432 804.545C461.517 804.272 463.75 804.623 465.415 803.726Z"/><path fill="#161515" d="M473.877 314.054C475.94 316.303 477.84 318.616 479.869 320.863C481.821 323.024 483.148 326.579 486.005 326.089L486.202 326.7L485.155 327.943C486.348 332.49 488.676 338.375 486.248 342.701C485.542 343.533 485.574 343.581 485.147 344.653C481.776 353.276 465.982 363.736 457.722 367.319C454.445 368.708 451.132 370.014 447.788 371.235L446.732 370.528C452.967 368.155 458.906 365.066 464.428 361.322C471.31 356.666 482.477 347.927 483.971 339.235C485.466 330.543 478.153 321.975 473.351 315.161L473.877 314.054Z"/><path fill="#222122" d="M427.308 814.785C429.99 814.737 434.939 815.244 437.332 813.561C439.173 812.265 440.618 808.11 442.462 807.009C441.912 809.902 440.425 811.552 438.555 813.841C452.613 821.456 466.658 827.847 483.093 825.058C487.369 824.333 494.885 820.579 497.39 825.105C494.592 826.591 488.378 827.49 485.071 828.052C465.613 831.359 453.186 824.109 437.148 814.62C433.013 815.984 431.44 816.72 427.308 814.785Z"/><defs><linearGradient id="gradient_12" gradientUnits="userSpaceOnUse" x1="566.11261" y1="687.7428" x2="541.99567" y2="674.664"><stop offset="0" stop-color="#090706"/><stop offset="1" stop-color="#292929"/></linearGradient></defs><path fill="url(#gradient_12)" d="M538.978 678.986C543.04 670.635 555.767 660.207 563.905 656.307L565.665 657.218C558.207 662.496 542.471 673.775 540.873 683.18C539.347 692.158 551.336 705.401 556.128 714.548C551.442 709.03 547.138 703.229 542.463 697.727C542.093 697.292 539.664 696.446 539.004 696.212C539.191 695.095 539.048 695.521 539.785 694.563C537.606 687.249 536.993 687.535 538.424 680.313L538.978 678.986Z"/><path fill="#161515" d="M631.831 119.208C661.696 130.424 678.072 139.958 683.276 173.625L682.143 173.927C679.707 160.008 674.257 150.26 664.825 140.012L664.475 139.001L663.337 138.667C651.227 129.625 645.296 126.251 631.446 120.072L631.831 119.208Z"/><path fill="#222122" d="M341.919 849.125L342.855 849.064C345.987 861.621 351.259 874.096 361.245 882.815C362.355 883.471 362.052 883.101 362.655 884.132C371.348 891.355 377.791 894.741 387.708 899.87L387.292 900.877C361.485 891.33 345.175 877.823 341.919 849.125Z"/><path fill="#161515" d="M586.208 208.736L588.331 210.319C599.125 204.423 611.477 219.98 615.785 228.294L614.923 228.599C608.571 218.376 590.217 199.443 584.17 222.771C582.418 229.527 586.334 235.186 590.052 240.609L588.501 239.414C584.971 236.685 581.978 233.432 581.468 228.756L581.037 224.545C577.688 224.938 574.551 225.137 571.195 225.404C569.861 224.687 568.555 223.918 567.28 223.099C572.122 222.995 576.5 222.559 581.328 222.409C582.404 218.43 584.292 213.614 587.47 210.857C586.615 210.381 585.903 210.012 585.027 209.587L586.208 208.736Z"/><path fill="#222122" d="M586.208 208.736L588.331 210.319C588.014 210.735 588.039 210.664 587.47 210.857C586.615 210.381 585.903 210.012 585.027 209.587L586.208 208.736Z"/><path fill="#161515" d="M428.673 322.964C435.831 341.51 449.108 350.227 441.386 372.318L441.392 372.982C439.306 377.043 438.73 378.339 435.334 381.378C434.058 380.672 432.851 380.577 431.409 380.318C437.213 379.319 437.906 373.408 439.401 368.398C444.555 351.132 432.214 339.136 427.816 323.17L428.673 322.964Z"/><path fill="#161515" d="M553.621 940.681C578.599 952.857 593.001 963.607 621.784 953.823L622.184 954.768C592.086 966.589 578.796 956.608 552.926 941.571L553.621 940.681Z"/><path fill="#222122" d="M461.383 844.352C462.386 844.414 462.928 844.351 463.846 844.695C474.854 847.06 483.234 851.611 493.754 854.779C506.213 858.578 519.263 860.06 532.257 859.151C536.617 858.857 542.816 857.874 546.785 857.866C544.469 858.2 542.923 858.838 540.82 859.183C521.916 862.282 502.464 861.767 484.606 854.203C477.338 851.201 470.024 847.308 462.39 845.517L461.324 845.389L461.383 844.352Z"/><path fill="#494848" d="M461.383 844.352C462.386 844.414 462.928 844.351 463.846 844.695C463.357 844.962 462.872 845.236 462.39 845.517L461.324 845.389L461.383 844.352Z"/><path fill="#161515" d="M642.103 433.854C634.385 436.89 625.72 438.777 617.626 439.569C599.466 441.347 584.283 435.538 568.534 427.229C564.698 425.205 558.504 422.674 555.223 419.892C592.186 435.594 601.457 443.228 641.678 433.487L642.103 433.854Z"/><path fill="#161515" d="M394.155 586.175C416.209 581.502 432.03 582.202 452.186 593.064C456.339 595.302 464.671 600.528 468.467 602.007L468.266 602.605C455.113 597.601 443.328 589.717 429.273 586.853C417.696 584.494 406.024 584.823 394.496 587.261L394.155 586.175Z"/><path fill="#222122" d="M532.927 199.565C551.578 195.226 569.911 199.044 586.208 208.736L585.027 209.587C566.438 203.005 557.235 197.861 536.33 202.292L532.927 199.565Z"/><path fill="#161515" d="M492.029 165.174C510.994 162.725 524.366 163.76 542.278 171.562C547.873 173.999 554.826 177.561 560.301 179.728L559.846 180.811C534.999 172.722 521.785 162.321 492.097 166.269L492.029 165.174Z"/><defs><linearGradient id="gradient_13" gradientUnits="userSpaceOnUse" x1="442.25925" y1="75.034096" x2="445.68036" y2="67.357544"><stop offset="0" stop-color="black"/><stop offset="1" stop-color="#2C2A29"/></linearGradient></defs><path fill="url(#gradient_13)" d="M417.014 63.2055C439.687 60.0623 452.228 69.4424 470.675 81.0793L469.941 81.5726C452.454 72.8156 438.943 63.6902 418.959 64.7299C417.685 64.2454 417.782 64.325 417.014 63.2055Z"/><path fill="#222122" d="M562.694 403.872C572.828 398.611 587.602 392.452 599.07 392.324C599.345 392.698 599.62 393.073 599.896 393.447C592.015 395.828 583.52 398.011 576.063 401.629C570.603 404.279 570.335 404.873 564.564 405.098C563.936 404.678 563.336 404.272 562.694 403.872Z"/><path fill="#222122" d="M395.607 903.809C395.82 903.784 396.032 903.759 396.244 903.735C424.242 894.793 439.222 904.392 463.145 919.088L462.39 919.62C442.361 909.043 426.271 898.402 403.072 902.693C400.863 903.102 397.331 904.463 395.607 903.809Z"/><path fill="#161515" d="M557.308 521.051C577.65 530.37 595.727 543.695 619.432 539.294L618.016 540.584C592.154 544.026 578.224 534.282 556.963 521.285L557.308 521.051Z"/><path fill="#161515" d="M412.342 481.605C436.174 480.178 449.548 489.053 469.126 502.038C450.864 494.385 438.521 483.36 417.287 482.435C414.347 482.54 411.535 482.464 408.631 482.564C409.441 482.156 410.257 481.759 411.078 481.375C411.499 481.452 411.921 481.528 412.342 481.605Z"/><path fill="#494848" d="M411.078 481.375C411.499 481.452 411.921 481.528 412.342 481.605C414.126 481.908 415.51 481.998 417.287 482.435C414.347 482.54 411.535 482.464 408.631 482.564C409.441 482.156 410.257 481.759 411.078 481.375Z"/><path fill="#161515" d="M563.198 103.85C581.657 112.301 598.166 123.474 619.383 119.8L620.134 120.702C595.534 124.556 583.682 116.609 562.997 104.606L563.198 103.85Z"/><defs><linearGradient id="gradient_14" gradientUnits="userSpaceOnUse" x1="503.52325" y1="348.74384" x2="502.46863" y2="341.19824"><stop offset="0" stop-color="#070503"/><stop offset="1" stop-color="#292A2D"/></linearGradient></defs><path fill="url(#gradient_14)" d="M485.147 344.653C485.574 343.581 485.542 343.533 486.248 342.701L486.719 342.793C501.036 345.745 503.884 346.931 519.66 345.832C520.336 346.136 520.269 346.124 520.395 346.837C509.361 348.556 495.603 349.503 485.147 344.653Z"/><defs><linearGradient id="gradient_15" gradientUnits="userSpaceOnUse" x1="520.9671" y1="670.21875" x2="528.95837" y2="684.54388"><stop offset="0" stop-color="#120C0C"/><stop offset="1" stop-color="#2C2D2E"/></linearGradient></defs><path fill="url(#gradient_15)" d="M511.092 675.668C516.747 675.129 535.149 674.675 538.978 678.986L538.424 680.313C530.4 678.951 523.985 677.635 515.791 676.924C513.957 676.462 512.684 676.609 511.092 675.668Z"/><path fill="#161515" d="M401.591 68.0252C406.688 65.6674 411.389 64.0011 417.014 63.2055C417.782 64.325 417.685 64.2454 418.959 64.7299C412.679 66.1878 409.36 66.0211 402.702 68.6834L401.591 68.0252Z"/><path fill="#161515" d="M563.905 656.307C567.787 653.76 574.119 650.796 578.503 649.324L578.677 650.2C574.902 651.783 569.128 654.969 565.665 657.218L563.905 656.307Z"/><path fill="#494848" d="M413.917 802.086C410.905 797.668 408.742 792.727 407.538 787.518C407.446 787.09 407.354 786.663 407.262 786.236L407.347 786.187C408.099 786.63 408.673 789.535 409.129 790.705C410.491 794.206 412.189 797.048 414.158 800.22L413.917 802.086Z"/><path fill="#626363" d="M703.328 540.798C704.809 543.532 707.584 552.692 707.269 555.756C706.128 551.042 703.991 545.768 702.396 541.165L703.328 540.798Z"/><path fill="#9A9B9C" d="M396.933 481.239C403.759 482.995 403.437 482.521 411.078 481.375C410.257 481.759 409.441 482.156 408.631 482.564C405.491 483.563 400.238 483.141 396.999 482.264L396.933 481.239Z"/><path fill="#161515" d="M479.22 499.484C481.752 498.221 484.294 496.976 486.845 495.751C487.763 495.882 487.703 496.01 488.483 496.719C486.043 497.778 482.377 498.948 480.133 500.144L479.22 499.484Z"/><path fill="#626363" d="M394.496 587.261C393.219 587.539 384.484 589.486 384.086 589.34C383.994 589.134 384.008 589.248 384.082 588.996C384.537 588.552 392.262 586.491 393.227 586.338L394.155 586.175L394.496 587.261Z"/><path fill="#7D7E7E" d="M619.432 539.294C623.938 538.33 625.948 538.473 630.213 540.138L629.809 541.176C628.353 540.58 626.944 539.826 625.453 539.322L624.703 539.049C621.589 540.019 621.285 540.111 618.016 540.584L619.432 539.294Z"/><path fill="#9A9B9C" d="M320.12 473.432C319.833 472.478 317.211 462.152 317.329 461.767L317.354 461.764C318.187 462.203 320.593 471.207 320.879 472.504L320.12 473.432Z"/><path fill="#9A9B9C" d="M492.097 166.269C490.419 166.594 483.367 167.553 482.078 167.183L482.054 167.227L481.972 167.164L481.991 167.077C482.417 166.618 491.032 165.303 492.029 165.174L492.097 166.269Z"/><path fill="#7D7E7E" d="M621.784 953.823C626.37 952.068 627.966 950.012 632.205 952.243L631.936 953.041C627.108 951.002 627.18 952.604 622.184 954.768L621.784 953.823Z"/><path fill="#626363" d="M393.977 70.2575C396.687 71.2026 398.812 69.0494 401.591 68.0252L402.702 68.6834C399.032 70.0775 396.712 72.3719 393.299 70.6437L393.977 70.2575Z"/><path fill="#9A9B9C" d="M619.383 119.8C623.914 118.604 625.049 117.733 629.457 118.219L628.982 118.917C626.597 117.806 623.081 120.043 620.134 120.702L619.383 119.8Z"/><path fill="#626363" d="M684.813 596.054C685.54 598.211 685.498 603.186 685.566 605.527C684.672 603.34 684.085 599.273 683.751 596.851L684.813 596.054Z"/><path fill="#222122" d="M505.711 676.224C507.812 676.266 509.033 675.867 511.092 675.668C512.684 676.609 513.957 676.462 515.791 676.924C513.172 676.973 509.951 676.824 507.445 677.257L505.711 676.224Z"/><path fill="#626363" d="M474.444 602.435C478.051 601.456 478.276 600.951 481.529 599.602L482.664 600.205L481.929 600.517C479.293 601.658 477.818 602.346 475.094 603.251L474.444 602.435Z"/><path fill="#494848" d="M476.904 399.071C478.936 398.168 481.367 396.602 483.385 396.04L484.728 396.78L483.483 397.256C481.425 398.023 479.279 398.879 477.231 399.61L476.904 399.071Z"/><path fill="#7D7E7E" d="M615.785 228.294C616.626 229.465 618.862 234.248 618.8 235.434C618.713 235.572 618.768 235.536 618.65 235.568C618.339 235.416 615.229 229.281 614.923 228.599L615.785 228.294Z"/><path fill="#494848" d="M465.231 97.9891C467.322 98.2505 470.544 98.5413 472.424 99.1262L470.98 100.238C469.637 99.802 468.698 99.4484 467.286 99.0899C466.603 98.7183 465.918 98.3514 465.231 97.9891Z"/><path fill="#626363" d="M396.818 350.251L396.656 349.861C396.073 348.488 394.298 343.664 394.438 342.379C394.485 342.381 394.532 342.382 394.579 342.384C395.379 343.246 397.026 347.688 397.399 348.892L396.818 350.251Z"/><path fill="#494848" d="M387.708 899.87L388.454 900.202C390.911 901.254 393.33 902.409 395.607 903.809C392.767 903.04 389.987 902.06 387.292 900.877L387.708 899.87Z"/><path fill="#626363" d="M683.276 173.625C683.641 176.109 683.411 178.3 683.79 180.822C683.335 180.173 682.873 179.529 682.405 178.889C682.556 177.084 682.301 175.702 682.143 173.927L683.276 173.625Z"/><path fill="#9A9B9C" d="M552.726 102.303C555.794 101.016 556.593 101.367 559.856 102.216L559.487 102.95C556.686 102.031 555.923 102.161 553.025 102.998L552.726 102.303Z"/><path fill="#626363" d="M340.438 424.557C340.033 423.029 339.2 417.784 339.736 416.436L339.586 416.776L339.894 416.757C340.397 419.273 340.903 421.572 341.273 424.121L340.438 424.557Z"/><path fill="#494848" d="M560.301 179.728C562.278 180.209 563.807 180.639 565.852 180.986L565.586 181.85C563.71 181.502 561.724 181.142 559.846 180.811L560.301 179.728Z"/><path fill="#626363" d="M578.503 649.324C580.232 648.605 582.002 648.072 583.876 647.927C583.822 648.218 583.768 648.508 583.714 648.799C581.988 649.112 580.336 649.645 578.677 650.2L578.503 649.324Z"/><path fill="#626363" d="M544.787 623.839C546.624 622.902 549.647 621.292 551.705 621.685C551.579 621.814 551.452 621.944 551.326 622.073C550.4 622.22 550.019 622.356 549.187 622.792C547.887 623.484 546.569 624.142 545.234 624.766L544.787 623.839Z"/><path fill="#9A9B9C" d="M468.467 602.007C472.39 603.259 470.605 602.599 474.444 602.435L475.094 603.251C472.304 603.76 470.737 603.772 468.266 602.605L468.467 602.007Z"/><path fill="#626363" d="M441.386 372.318L445.261 371.042C445.751 370.87 446.241 370.699 446.732 370.528L447.788 371.235C445.684 371.804 443.483 372.395 441.392 372.982L441.386 372.318Z"/><path fill="#7D7E7E" d="M473.227 503.127C475.163 501.452 476.854 500.408 479.22 499.484L480.133 500.144C477.859 501.005 475.449 502.125 473.227 503.127Z"/><path fill="#363334" d="M368.494 821.39C368.993 823.009 369.446 824.928 369.853 826.59L368.947 826.979C368.454 825.141 368.104 823.515 367.914 821.615L368.494 821.39Z"/><path fill="#7D7E7E" d="M519.66 345.832C521.908 344.858 526.304 346.07 520.395 346.837C520.269 346.124 520.336 346.136 519.66 345.832Z"/><path fill="#626363" d="M596.256 695.698C596.53 696.957 596.875 698.207 597.174 699.48L598.03 703.055L597.027 700.954C596.402 699.653 595.941 698.296 595.484 696.932L596.256 695.698Z"/><path fill="#626363" d="M628.307 672.175L628.597 672.939C628.894 673.66 629.831 676.071 629.28 676.774C628.773 676.491 627.758 673.323 627.433 672.564L628.307 672.175Z"/><path fill="#626363" d="M341.443 844.446L342.085 844.371C342.457 846.051 342.57 847.392 342.855 849.064L341.919 849.125C341.467 846.915 341.5 846.741 341.443 844.446Z"/><path fill="#626363" d="M362.847 386.343C363.268 387.31 363.706 388.27 364.158 389.223C364.005 390.517 364.106 390.7 364.342 392.021L363.366 391.996C362.968 389.942 362.998 388.432 362.847 386.343Z"/><path fill="#9A9B9C" d="M467.538 397.975C468.305 398.283 471.256 399.466 471.622 400.205C471.366 400.786 468.199 399.255 467.777 399.024L467.229 398.718L467.538 397.975Z"/><path fill="#363334" d="M393.719 479.85C394.793 480.331 395.856 480.771 396.933 481.239L396.999 482.264C395.669 481.698 394.591 481.407 393.286 480.842L393.719 479.85Z"/><path fill="#CDCED0" d="M477.231 399.61C472.823 402.089 472.048 400.398 476.904 399.071L477.231 399.61Z"/><path fill="#494848" d="M550.126 419.848L550.589 420.629C548.649 420.917 548.032 421.455 546.161 422.204L545.851 421.327C547.4 420.703 548.581 420.38 550.126 419.848Z"/><path fill="#363334" d="M458.656 412.261L459.438 412.433L460.234 412.592C460.755 412.701 461.192 412.837 461.699 412.986L461.42 413.486C460.011 413.501 459.804 413.496 458.457 413.748C458.518 413.231 458.569 412.775 458.656 412.261Z"/><path fill="#626363" d="M467.37 804.186C468.615 804.541 469.984 804.547 471.103 805.274C471.057 805.259 471.012 805.243 470.967 805.228L470.775 805.447L469.952 805.438L470.139 805.481C468.785 805.483 468.455 805.461 467.11 805.219L467.37 804.186Z"/><path fill="#9A9B9C" d="M470.675 81.0793C474.248 82.4881 474.229 84.1121 469.941 81.5726L470.675 81.0793Z"/><path fill="#626363" d="M559.856 102.216C560.981 102.814 562.053 103.262 563.198 103.85L562.997 104.606C561.809 104.054 560.685 103.48 559.487 102.95L559.856 102.216Z"/><path fill="#CDCED0" d="M362.847 386.343C362.846 385.575 362.758 385.287 363.027 384.661C363.091 384.629 363.155 384.596 363.219 384.564C363.815 384.752 364.09 388.519 364.158 389.223C363.706 388.27 363.268 387.31 362.847 386.343Z"/><path fill="#9A9B9C" d="M507.445 677.257C507.095 677.314 503.755 677.983 503.826 677.072C504.347 676.539 504.993 676.438 505.711 676.224L507.445 677.257Z"/><path fill="#7D7E7E" d="M463.145 919.088C464.259 919.586 465.002 920.09 466.178 920.605L465.416 921.301C464.368 920.609 463.49 920.216 462.39 919.62L463.145 919.088Z"/><path fill="#CDCED0" d="M550.126 419.848C552.745 419.1 554.759 420.684 550.589 420.629L550.126 419.848Z"/><path fill="#CDCED0" d="M682.405 178.889C682.873 179.529 683.335 180.173 683.79 180.822C683.72 181.165 683.595 182.588 683.179 182.804L683.071 182.764C682.6 182.161 682.502 179.691 682.405 178.889Z"/><path fill="#626363" d="M557.241 622.823C558.376 623.37 558.91 623.63 559.962 624.322L559.855 625.098C558.653 624.445 557.939 624.036 556.803 623.278L557.241 622.823Z"/><path fill="#9A9B9C" d="M660.471 631.456C660.845 631.838 661.242 632.229 661.603 632.62C661.566 633.152 661.564 635.207 661.25 635.589C660.858 634.971 660.564 632.313 660.471 631.456Z"/><path fill="#7D7E7E" d="M629.457 118.219L631.831 119.208L631.446 120.072C630.63 119.677 629.808 119.292 628.982 118.917L629.457 118.219Z"/><path fill="#CDCED0" d="M466.178 920.605C468.948 920.613 467.935 922.207 465.416 921.301L466.178 920.605Z"/><path fill="#7D7E7E" d="M472.304 313.678C470.745 311.298 470.624 310.061 472.903 312.764L472.304 313.678Z"/><path fill="#CDCED0" d="M655.694 200.578C655.882 201.343 656.271 202.755 655.506 203.362C655.132 203.304 655.212 202.95 655.194 202.59C655.321 201.919 655.521 201.241 655.694 200.578Z"/><path fill="#626363" d="M552.926 941.571C551.012 940.39 550.287 939.332 552.973 940.431L553.621 940.681L552.926 941.571Z"/><path fill="#CDCED0" d="M427.211 321.683C427.062 320.996 426.586 319.773 427.102 319.13C427.74 319.038 427.887 320.265 427.994 320.67L427.211 321.683Z"/><path fill="#626363" d="M654.591 198.912L655.417 198.997L655.694 200.578C655.521 201.241 655.321 201.919 655.194 202.59C654.973 201.367 654.771 200.141 654.591 198.912Z"/><path fill="#9A9B9C" d="M367.914 821.615C367.78 821.234 367.167 819.976 367.815 819.7C368.385 819.914 368.419 820.945 368.494 821.39L367.914 821.615Z"/><path fill="#626363" d="M427.211 321.683L427.994 320.67C428.241 321.445 428.45 322.182 428.673 322.964L427.816 323.17C427.608 322.677 427.407 322.181 427.211 321.683Z"/><path fill="#222122" d="M472.903 312.764L473.877 314.054L473.351 315.161C472.995 314.672 472.646 314.178 472.304 313.678L472.903 312.764Z"/><path fill="#9A9B9C" d="M341.443 844.446C340.783 841.996 341.966 841.608 342.085 844.371L341.443 844.446Z"/><path fill="#CDCED0" d="M556.963 521.285C556.701 521.173 556.059 521.052 555.992 520.645C556.228 520.05 557.186 520.957 557.308 521.051L556.963 521.285Z"/><path fill="#CDCED0" d="M556.803 623.278C556.531 623.145 556.026 623.035 555.961 622.66C556.176 622.072 556.989 622.675 557.241 622.823L556.803 623.278Z"/><path fill="#9A9B9C" d="M641.678 433.487C642.026 433.305 642.555 432.895 642.927 433.199C642.903 433.535 642.256 433.766 642.103 433.854L641.678 433.487Z"/></svg>